<?xml version="1.0" encoding="UTF-8"?>
<svg id="_レイヤー_2" data-name="レイヤー 2" xmlns="http://www.w3.org/2000/svg" viewBox="0 0 200 150">
  <defs>
    <style>
      .cls-1 {
        stroke: #231815;
        stroke-linecap: round;
        stroke-linejoin: round;
        stroke-width: 1.39px;
      }

      .cls-1, .cls-2, .cls-3 {
        fill: none;
      }

      .cls-2 {
        stroke: #f5bc1a;
        stroke-miterlimit: 10;
        stroke-width: 6px;
      }

      .cls-3, .cls-4, .cls-5, .cls-6, .cls-7 {
        stroke-width: 0px;
      }

      .cls-4 {
        fill: #f6eb66;
      }

      .cls-5 {
        fill: #5e451f;
      }

      .cls-6 {
        fill: #7ec26d;
      }

      .cls-7 {
        fill: #fff;
      }
    </style>
  </defs>
  <g id="_見習い" data-name="見習い">
    <g>
      <rect class="cls-3" width="200" height="150"/>
      <g>
        <g>
          <path class="cls-5" d="M99.84,25.07c-.36,0-.24.25-.53.46s-.2.33-.49.54-.46-.03-.75.18-.47-.04-.76.17.13.79-.16,1-.48-.05-.77.16-.13.42-.42.63-.33.15-.62.36-.61-.23-.9-.02-.13.43-.42.64-.23.29-.52.49-.54-.13-.83.07.18.86-.11,1.07-.71-.37-1-.16-.23.28-.52.49.05.68-.23.89-.59-.21-.88,0,.04.66-.25.87-.47-.04-.76.17-.12.44-.41.65-.44,0-.73.21-.13.42-.42.63-.63-.26-.92-.05-.25.26-.54.47-.37.1-.66.31-.14.42-.43.63-.31.19-.6.4-.31.19-.6.4-.26.26-.55.47-.08.5-.38.71-.25.26-.54.47-.46-.02-.75.19-.31.18-.6.39-.23.29-.53.5-.34.14-.63.35-.37.11-.66.32-.41.05-.7.26-.01.59-.3.8-.4.07-.68.28-.37.1-.66.32-.14.42-.43.63-.51-.1-.8.11-.28.23-.57.44-.14.42-.43.63-.4.07-.69.28-.21.33-.5.54-.53-.12-.82.09.11.76-.18.98-.26.26-.55.47-.27.24-.56.45-.36.11-.65.33-.67-.3-.96-.09-.05.54-.34.75-.23.3-.52.51-.33.16-.62.37-.3.21-.59.42-.35.13-.64.34-.38.09-.67.3-.02.59-.31.8-.57-.18-.87.03-.25.26-.55.47-.11.47-.4.68-.47-.03-.76.18-.23.3-.52.52-.24.28-.54.49-.13.43-.42.64-.29.21-.58.42-.71-.36-1-.15.07.71-.22.92-.28.22-.57.43-.65-.28-.94-.07.06.69-.24.91-.51-.08-.8.13-.3.2-.59.41,0,.61-.3.82-.51-.08-.8.13-.25.28-.54.49-.31.18-.61.4-.4.06-.7.28-.35.13-.65.34-.29.22-.58.43.04.67-.25.88-.65-.27-.94-.06-.15.41-.45.62-.12.46-.42.67-.4-.06-.51.29-.41.35-.3.7.17.32.28.66.67.16.78.5-.3.47-.19.81.46.23.57.57-.11.41,0,.75-.09.41.02.75.4.25.51.59.05.36.16.7.04.36.15.7,0,.38.1.72.27.29.38.63-.08.4.03.75-.03.39.09.73.65.17.76.51.11.34.22.68.13.34.24.68-.15.42-.04.76.44.23.55.57.08.35.19.69-.54.55-.43.89.31.27.42.61.22.3.33.64.11.34.22.68.29.28.4.62-.43.52-.32.86.34.27.45.61,0,.38.11.72.07.36.18.7.19.32.31.66.06.36.17.7.76.13.88.47-.65.59-.54.93.1.34.21.68.28.29.39.63.61.18.72.52-.52.54-.41.88.31.28.42.62.17.32.28.66-.05.39.06.73.48.22.59.56.02.37.13.71.12.34.23.68.12.34.23.68.43.24.55.58.07.36.18.7.02.37.13.71-.39.5-.28.85.63.17.74.51.03.37.14.71-.36.49-.25.83.73.14.84.48-.16.43-.05.77.24.3.35.64-.23.45-.12.8.64.17.75.51-.24.46-.12.8-.3.47-.18.82.4.25.51.59-.02.38.09.73.28.29.39.63.32.28.43.62.3.28.41.63-.34.49-.23.83-.02.38.1.73.31.28.42.62-.12.41,0,.76.4.25.51.59.04.36.15.71.3.28.41.62-.38.5-.27.85.89.09,1.01.43-.58.57-.47.91.75.14.86.48-.13.42-.01.76.05.37.16.71-.31.48-.2.82.51.22.62.56.19.32.3.66.06.36.17.71.22.31.33.65.36.26.47.61-.21.45-.1.8-.31.48-.2.83.23.31.35.65.03.59.32.81.5-.34.86-.34.36-.11.72-.11.36.08.72.08.36.39.72.39.36-.04.72-.04.36-.58.72-.58.36.13.72.13.36-.13.72-.13.36.33.72.33.36.37.72.37.36.1.72.1.36-.23.72-.23.36.08.72.08.36.18.72.18.36-.71.72-.71.36.13.72.13.36.5.72.5.36-.03.72-.03.36-.21.72-.21.36-.21.72-.21.36.46.72.46.36.05.71.05.36-.81.71-.81.36.57.71.57.36-.3.71-.3.36-.24.72-.24.36.12.72.12.36.21.72.21.36-.26.72-.26.36-.08.72-.08.36.68.72.68.36-.33.72-.33.36-.14.72-.14.36.38.72.38.36-.59.72-.59.36.39.72.39.36.36.71.36.36-.3.71-.3.36.01.71.01.36-.09.72-.09.36.13.72.13.36.21.72.21.36-.62.72-.62.36.57.72.57.36-.69.72-.69.36.15.72.15.36.22.72.22.36-.08.72-.08.36-.22.72-.22.36-.04.72-.04.36.49.72.49.36.2.72.2.36-.14.72-.14.36.02.72.02.36-.12.72-.12.36-.16.72-.16.36-.08.72-.08.36.07.72.07.36.36.72.36.36.03.72.03.36-.23.72-.23.36-.42.72-.42.36.23.72.23.36.23.72.23.36-.42.72-.42.36.11.72.11.36.19.72.19.36-.36.72-.36.36.4.72.4.36.26.72.26.36-.12.72-.12.36-.24.72-.24.36-.05.72-.05.36.47.72.47.36-.29.72-.29.36.36.72.36.36-.74.72-.74.36.62.72.62.36-.61.72-.61.36.11.72.11.36.53.72.53.36.09.72.09.36-.6.73-.6.36.24.73.24.36-.07.73-.07.53.36.83.15.39-.36.5-.7-.44-.52-.33-.86,0-.38.11-.72.72-.14.83-.48-.2-.44-.09-.78.5-.21.61-.55-.39-.5-.28-.84.58-.19.69-.53.09-.35.2-.69-.19-.44-.08-.78.42-.24.53-.58.15-.33.26-.67-.18-.43-.07-.78.11-.34.22-.68.24-.3.35-.64-.21-.45-.1-.79-.05-.39.06-.74.33-.27.44-.6.32-.27.43-.61.13-.33.24-.67.12-.34.23-.68.07-.35.18-.69.22-.31.33-.64-.55-.56-.44-.89.71-.14.82-.49.17-.32.28-.66-.4-.51-.29-.85.6-.18.72-.52-.29-.47-.18-.81.64-.17.75-.51-.59-.57-.48-.91.09-.35.2-.69.26-.29.37-.63.68-.16.79-.5-.44-.52-.33-.86.5-.21.61-.55.27-.29.38-.63-.61-.57-.49-.91.25-.29.36-.63.53-.2.64-.54.3-.28.41-.62-.3-.47-.19-.82.06-.36.18-.7.5-.22.61-.56.08-.35.19-.69.14-.33.25-.68-.58-.57-.47-.91.87-.1.98-.44-.23-.45-.12-.79-.17-.43-.06-.77.29-.28.4-.62.5-.22.61-.56-.2-.44-.09-.78.39-.25.5-.59.11-.34.22-.68.1-.35.21-.69-.06-.4.06-.74.18-.32.29-.66-.08-.4.03-.75-.04-.39.07-.73.47-.23.58-.57-.52-.55-.41-.89.49-.22.6-.56-.07-.4.04-.75.24-.3.35-.64-.2-.44-.09-.79.69-.15.8-.49.23-.3.34-.64-.45-.52-.34-.86.58-.19.69-.53-.5-.54-.39-.88.79-.12.9-.47.12-.34.23-.68-.07-.4.04-.74.34-.27.45-.61-.03-.39.08-.74.29-.28.41-.63-.59-.57-.48-.92.7-.15.81-.5,0-.38.11-.73-.25-.46-.13-.8.15-.33.26-.68.58-.19.7-.54-.01-.39.1-.73-.35-.5-.24-.84,1.01-.38.9-.73-.84.13-1.13-.08.07-.71-.22-.92-.69.34-.98.13.04-.66-.25-.87-.18-.36-.47-.57-.7.35-.98.14-.31-.17-.6-.38-.3-.2-.58-.41-.03-.57-.32-.78-.18-.36-.46-.57-.6.21-.88,0-.38-.09-.67-.3-.23-.29-.51-.5.07-.71-.21-.92-.43,0-.72-.22-.45.01-.74-.2-.12-.45-.4-.66-.2-.32-.49-.53-.34-.14-.63-.35-.52.12-.81-.09-.24-.28-.53-.49.02-.63-.27-.84-.74.42-1.03.21.13-.79-.16-1-.38-.09-.67-.3-.28-.23-.57-.44-.43-.02-.72-.23-.4-.06-.69-.27.06-.7-.23-.91-.7.36-1,.15-.29-.22-.58-.43.09-.73-.2-.94-.39-.08-.68-.29-.25-.27-.54-.48-.61.23-.9.02-.1-.48-.39-.69-.42-.03-.71-.24-.14-.42-.43-.63-.54.14-.83-.07-.26-.26-.55-.47-.02-.58-.31-.79-.26-.25-.55-.46-.46.03-.76-.18-.19-.35-.48-.57-.18-.36-.48-.57-.62.24-.91.03.1-.74-.2-.96-.64.27-.93.06-.36-.12-.65-.33-.16-.39-.45-.6-.24-.28-.53-.49-.33-.16-.62-.37-.42-.04-.71-.25-.05-.55-.34-.76-.37-.11-.66-.32-.36-.12-.65-.33-.31-.19-.6-.41-.18-.37-.47-.58-.44,0-.73-.22-.13-.43-.42-.64-.5.07-.79-.14.03-.66-.26-.87-.51.09-.81-.12,0-.62-.29-.83-.54.13-.83-.09-.35-.13-.64-.34-.14-.42-.43-.63-.28-.23-.57-.44-.29-.22-.58-.43-.35-.13-.64-.34-.2-.34-.49-.55-.43-.03-.72-.24-.11-.46-.4-.67-.23-.29-.53-.5-.6.21-.89,0-.4-.07-.69-.28-.14-.42-.44-.63-.17-.38-.46-.6-.54.12-.83-.09-.05-.54-.34-.76-.38-.1-.67-.31-.29-.21-.59-.43-.08-.51-.37-.73-.66.29-.96.08-.25-.32-.51-.58-.13-.49-.49-.5Z"/>
          <path class="cls-2" d="M99.84,25.07c-.36,0-.24.25-.53.46s-.2.33-.49.54-.46-.03-.75.18-.47-.04-.76.17.13.79-.16,1-.48-.05-.77.16-.13.42-.42.63-.33.15-.62.36-.61-.23-.9-.02-.13.43-.42.64-.23.29-.52.49-.54-.13-.83.07.18.86-.11,1.07-.71-.37-1-.16-.23.28-.52.49.05.68-.23.89-.59-.21-.88,0,.04.66-.25.87-.47-.04-.76.17-.12.44-.41.65-.44,0-.73.21-.13.42-.42.63-.63-.26-.92-.05-.25.26-.54.47-.37.1-.66.31-.14.42-.43.63-.31.19-.6.4-.31.19-.6.4-.26.26-.55.47-.08.5-.38.71-.25.26-.54.47-.46-.02-.75.19-.31.18-.6.39-.23.29-.53.5-.34.14-.63.35-.37.11-.66.32-.41.05-.7.26-.01.59-.3.8-.4.07-.68.28-.37.1-.66.32-.14.42-.43.63-.51-.1-.8.11-.28.23-.57.44-.14.42-.43.63-.4.07-.69.28-.21.33-.5.54-.53-.12-.82.09.11.76-.18.98-.26.26-.55.47-.27.24-.56.45-.36.11-.65.33-.67-.3-.96-.09-.05.54-.34.75-.23.3-.52.51-.33.16-.62.37-.3.21-.59.42-.35.13-.64.34-.38.09-.67.3-.02.59-.31.8-.57-.18-.87.03-.25.26-.55.47-.11.47-.4.68-.47-.03-.76.18-.23.3-.52.52-.24.28-.54.49-.13.43-.42.64-.29.21-.58.42-.71-.36-1-.15.07.71-.22.92-.28.22-.57.43-.65-.28-.94-.07.06.69-.24.91-.51-.08-.8.13-.3.2-.59.41,0,.61-.3.82-.51-.08-.8.13-.25.28-.54.49-.31.18-.61.4-.4.06-.7.28-.35.13-.65.34-.29.22-.58.43.04.67-.25.88-.65-.27-.94-.06-.15.41-.45.62-.12.46-.42.67-.4-.06-.51.29-.41.35-.3.7.17.32.28.66.67.16.78.5-.3.47-.19.81.46.23.57.57-.11.41,0,.75-.09.41.02.75.4.25.51.59.05.36.16.7.04.36.15.7,0,.38.1.72.27.29.38.63-.08.4.03.75-.03.39.09.73.65.17.76.51.11.34.22.68.13.34.24.68-.15.42-.04.76.44.23.55.57.08.35.19.69-.54.55-.43.89.31.27.42.61.22.3.33.64.11.34.22.68.29.28.4.62-.43.52-.32.86.34.27.45.61,0,.38.11.72.07.36.18.7.19.32.31.66.06.36.17.7.76.13.88.47-.65.59-.54.93.1.34.21.68.28.29.39.63.61.18.72.52-.52.54-.41.88.31.28.42.62.17.32.28.66-.05.39.06.73.48.22.59.56.02.37.13.71.12.34.23.68.12.34.23.68.43.24.55.58.07.36.18.7.02.37.13.71-.39.5-.28.85.63.17.74.51.03.37.14.71-.36.49-.25.83.73.14.84.48-.16.43-.05.77.24.3.35.64-.23.45-.12.8.64.17.75.51-.24.46-.12.8-.3.47-.18.82.4.25.51.59-.02.38.09.73.28.29.39.63.32.28.43.62.3.28.41.63-.34.49-.23.83-.02.38.1.73.31.28.42.62-.12.41,0,.76.4.25.51.59.04.36.15.71.3.28.41.62-.38.5-.27.85.89.09,1.01.43-.58.57-.47.91.75.14.86.48-.13.42-.01.76.05.37.16.71-.31.48-.2.82.51.22.62.56.19.32.3.66.06.36.17.71.22.31.33.65.36.26.47.61-.21.45-.1.8-.31.48-.2.83.23.31.35.65.03.59.32.81.5-.34.86-.34.36-.11.72-.11.36.08.72.08.36.39.72.39.36-.04.72-.04.36-.58.72-.58.36.13.72.13.36-.13.72-.13.36.33.72.33.36.37.72.37.36.1.72.1.36-.23.72-.23.36.08.72.08.36.18.72.18.36-.71.72-.71.36.13.72.13.36.5.72.5.36-.03.72-.03.36-.21.72-.21.36-.21.72-.21.36.46.72.46.36.05.71.05.36-.81.71-.81.36.57.71.57.36-.3.71-.3.36-.24.72-.24.36.12.72.12.36.21.72.21.36-.26.72-.26.36-.08.72-.08.36.68.72.68.36-.33.72-.33.36-.14.72-.14.36.38.72.38.36-.59.72-.59.36.39.72.39.36.36.71.36.36-.3.71-.3.36.01.71.01.36-.09.72-.09.36.13.72.13.36.21.72.21.36-.62.72-.62.36.57.72.57.36-.69.72-.69.36.15.72.15.36.22.72.22.36-.08.72-.08.36-.22.72-.22.36-.04.72-.04.36.49.72.49.36.2.72.2.36-.14.72-.14.36.02.72.02.36-.12.72-.12.36-.16.72-.16.36-.08.72-.08.36.07.72.07.36.36.72.36.36.03.72.03.36-.23.72-.23.36-.42.72-.42.36.23.72.23.36.23.72.23.36-.42.72-.42.36.11.72.11.36.19.72.19.36-.36.72-.36.36.4.72.4.36.26.72.26.36-.12.72-.12.36-.24.72-.24.36-.05.72-.05.36.47.72.47.36-.29.72-.29.36.36.72.36.36-.74.72-.74.36.62.72.62.36-.61.72-.61.36.11.72.11.36.53.72.53.36.09.72.09.36-.6.73-.6.36.24.73.24.36-.07.73-.07.53.36.83.15.39-.36.5-.7-.44-.52-.33-.86,0-.38.11-.72.72-.14.83-.48-.2-.44-.09-.78.5-.21.61-.55-.39-.5-.28-.84.58-.19.69-.53.09-.35.2-.69-.19-.44-.08-.78.42-.24.53-.58.15-.33.26-.67-.18-.43-.07-.78.11-.34.22-.68.24-.3.35-.64-.21-.45-.1-.79-.05-.39.06-.74.33-.27.44-.6.32-.27.43-.61.13-.33.24-.67.12-.34.23-.68.07-.35.18-.69.22-.31.33-.64-.55-.56-.44-.89.71-.14.82-.49.17-.32.28-.66-.4-.51-.29-.85.6-.18.72-.52-.29-.47-.18-.81.64-.17.75-.51-.59-.57-.48-.91.09-.35.2-.69.26-.29.37-.63.68-.16.79-.5-.44-.52-.33-.86.5-.21.61-.55.27-.29.38-.63-.61-.57-.49-.91.25-.29.36-.63.53-.2.64-.54.3-.28.41-.62-.3-.47-.19-.82.06-.36.18-.7.5-.22.61-.56.08-.35.19-.69.14-.33.25-.68-.58-.57-.47-.91.87-.1.98-.44-.23-.45-.12-.79-.17-.43-.06-.77.29-.28.4-.62.5-.22.61-.56-.2-.44-.09-.78.39-.25.5-.59.11-.34.22-.68.1-.35.21-.69-.06-.4.06-.74.18-.32.29-.66-.08-.4.03-.75-.04-.39.07-.73.47-.23.58-.57-.52-.55-.41-.89.49-.22.6-.56-.07-.4.04-.75.24-.3.35-.64-.2-.44-.09-.79.69-.15.8-.49.23-.3.34-.64-.45-.52-.34-.86.58-.19.69-.53-.5-.54-.39-.88.79-.12.9-.47.12-.34.23-.68-.07-.4.04-.74.34-.27.45-.61-.03-.39.08-.74.29-.28.41-.63-.59-.57-.48-.92.7-.15.81-.5,0-.38.11-.73-.25-.46-.13-.8.15-.33.26-.68.58-.19.7-.54-.01-.39.1-.73-.35-.5-.24-.84,1.01-.38.9-.73-.84.13-1.13-.08.07-.71-.22-.92-.69.34-.98.13.04-.66-.25-.87-.18-.36-.47-.57-.7.35-.98.14-.31-.17-.6-.38-.3-.2-.58-.41-.03-.57-.32-.78-.18-.36-.46-.57-.6.21-.88,0-.38-.09-.67-.3-.23-.29-.51-.5.07-.71-.21-.92-.43,0-.72-.22-.45.01-.74-.2-.12-.45-.4-.66-.2-.32-.49-.53-.34-.14-.63-.35-.52.12-.81-.09-.24-.28-.53-.49.02-.63-.27-.84-.74.42-1.03.21.13-.79-.16-1-.38-.09-.67-.3-.28-.23-.57-.44-.43-.02-.72-.23-.4-.06-.69-.27.06-.7-.23-.91-.7.36-1,.15-.29-.22-.58-.43.09-.73-.2-.94-.39-.08-.68-.29-.25-.27-.54-.48-.61.23-.9.02-.1-.48-.39-.69-.42-.03-.71-.24-.14-.42-.43-.63-.54.14-.83-.07-.26-.26-.55-.47-.02-.58-.31-.79-.26-.25-.55-.46-.46.03-.76-.18-.19-.35-.48-.57-.18-.36-.48-.57-.62.24-.91.03.1-.74-.2-.96-.64.27-.93.06-.36-.12-.65-.33-.16-.39-.45-.6-.24-.28-.53-.49-.33-.16-.62-.37-.42-.04-.71-.25-.05-.55-.34-.76-.37-.11-.66-.32-.36-.12-.65-.33-.31-.19-.6-.41-.18-.37-.47-.58-.44,0-.73-.22-.13-.43-.42-.64-.5.07-.79-.14.03-.66-.26-.87-.51.09-.81-.12,0-.62-.29-.83-.54.13-.83-.09-.35-.13-.64-.34-.14-.42-.43-.63-.28-.23-.57-.44-.29-.22-.58-.43-.35-.13-.64-.34-.2-.34-.49-.55-.43-.03-.72-.24-.11-.46-.4-.67-.23-.29-.53-.5-.6.21-.89,0-.4-.07-.69-.28-.14-.42-.44-.63-.17-.38-.46-.6-.54.12-.83-.09-.05-.54-.34-.76-.38-.1-.67-.31-.29-.21-.59-.43-.08-.51-.37-.73-.66.29-.96.08-.25-.32-.51-.58-.13-.49-.49-.5Z"/>
        </g>
        <g>
          <path class="cls-7" d="M73.39,82.93c-.1,0-.29.2-.31.29-.09.36.5.4.5.78s-.17.37-.17.75.18.38.18.75-.06.38-.06.75-.39.38-.39.76.46.38.46.76c0,.29-.76.68-.69.83.08.17.67-.24.97-.19.17.03.34.02.61.03.19,0,.4.58.65.58s.49.05.7.05c.26,0,.48-.39.68-.4.28-.02.52.1.7.07.31-.06.5-.2.62-.32.12-.12.45-.23.53-.5.06-.17.28-.39.32-.64.03-.19-.29-.47-.26-.7.02-.2.24-.41.25-.64.01-.21-.25-.43-.25-.66.34,0,.35.02.66.14s.25.27.57.39.2.42.51.55.53-.43.84-.31.35.03.67.15.2.41.52.53c.42.16.16.23.16.61,0,.06.69.06.69.13,0,.25.05.51.03.74-.02.25-.68.42-.71.65-.04.25.5.6.45.83-.06.24-.85.24-.93.46-.09.23.36.69.25.89-.12.22-.42.32-.57.5-.16.19-.09.65-.28.79-.19.15-.52.17-.76.28-.2.09-.56-.27-.83-.21-.21.05-.43.03-.7.07-.22.03-.39.75-.66.77-.22.02-.49-.36-.76-.35-.23.01-.46.22-.72.22-.23,0-.48-.31-.73-.31-.23,0-.47.29-.73.3-.23,0-.48-.47-.74-.47s-.49.26-.73.26c-.25,0-.49-.07-.72-.08-.26,0-.5.02-.73,0-.26-.01-.54.39-.77.37-.26-.03-.46-.42-.69-.46-.26-.04-.42-.36-.63-.42-.25-.07-.63.26-.83.15-.23-.12-.43-.33-.59-.5s.03-.55-.06-.78c-.08-.21-.35-.35-.39-.61-.03-.22-.11-.46-.11-.73,0-.33.28-.33.28-.65s-.59-.34-.58-.67.31-.33.32-.66.43-.32.43-.66-.46-.34-.46-.67.12-.33.12-.66-.25-.33-.25-.65.17-.33.17-.66.48-.33.48-.66.03-.64-.22-.85c-.29-.25-.55.23-.93.23s-.38.23-.77.23-.37-.28-.74-.17c-.03.24-.3.34-.33.57s.13.5.09.73.14.53.09.76-.15.47-.22.69-.22.44-.3.66.05.56-.05.77-.85.11-.96.32.12.61-.01.81-.44.27-.59.45.1.72-.06.89-.69,0-.86.16-.38.27-.57.42-.43.19-.62.32-.1.72-.31.84-.41.27-.62.38-.49.1-.71.2-.5.03-.73.11-.49.02-.72.09-.49-.02-.72.05-.35.54-.58.6-.51-.16-.75-.11-.37.61-.61.65-.58-.56-.82-.53c-.13.03-.21.6-.31.6-.26,0-.51-.39-.7-.68-.19-.28.18-.54-.02-.82s-.56-.02-.75-.3-.23-.25-.43-.53-.39-.14-.59-.42.06-.46-.14-.74-.11-.28-.2-.61c.24-.03.26-.16.49-.2s.5.09.72.05c.24-.04.47-.1.7-.14.24-.04.48-.05.7-.1.24-.05.44-.22.66-.28.24-.06.53.12.75.06.23-.07.31-.61.52-.68.23-.08.41-.2.62-.29.23-.09.71.43.92.33.22-.11.12-.77.31-.89.21-.13.79.32.98.18s.11-.63.27-.79.12-.49.27-.67.54-.17.66-.37.2-.42.3-.64-.18-.55-.1-.77.81-.24.87-.48c.06-.22-.19-.49-.15-.73-.31-.11-.31.38-.64.4s-.35-.41-.68-.4-.33-.03-.67-.02-.33.08-.67.1-.35-.36-.68-.35-.39.72-.72.65c-.15-.04.2-.41.16-.57-.08-.38-.58-.33-.57-.71s.48-.38.49-.76.1-.39.1-.78-.15-.39-.14-.78-.16-.39-.15-.79.18-.39.19-.78c0-.37.24-.37.24-.74s-.59-.37-.59-.74.18-.37.18-.74.26-.37.26-.74-.16-.37-.16-.74.2-.37.2-.74-.69-.37-.69-.74.09-.37.09-.74.21-.37.21-.74.27-.37.27-.74-.55-.37-.55-.74.22-.37.22-.75-.01-.37-.01-.75.22-.37.22-.75-.06-.39-.07-.78-.44-.38-.45-.77.62-.41.61-.8.06-.39.05-.79-.34-.39-.26-.77c.03-.14.05-.12.2-.14.38-.07.38-.17.76-.16s.38.32.76.33.39-.22.78-.21.39-.25.78-.24.38.53.77.54.39-.3.78-.29c.36,0,.36.49.71.49s.35-.71.71-.71.35.56.71.56.35.04.71.04.36-.3.71-.3.36.06.71.06.36-.3.71-.3.36.31.71.31.36.27.71.27.36-.46.71-.46.36.22.71.22.36-.33.71-.33.36.21.72.21.36-.42.72-.42.36.63.72.62.37.12.74.12.36-.16.73-.17.36-.28.73-.29.37-.07.74-.08.38.56.75.56.45-.83.81-.75c.18.04.07.41.11.59.09.37.31.37.3.75s-.01.38-.02.77-.18.38-.19.76.14.39.13.77-.53.38-.54.76.05.37.05.74-.03.37-.03.74.47.37.47.74-.1.37-.1.74-.17.37-.17.74-.17.37-.17.74.07.37.07.74.54.37.54.74-.57.37-.57.74.49.37.49.74-.04.37-.04.74-.63.37-.63.75.04.37.04.75,0,.38,0,.75.63.38.64.77-.21.39-.2.78-.45.4-.44.79.42.38.43.77-.38.4-.38.79.16.31.05.69c-.05.18.23.35.06.39-.33.07-.34-.47-.68-.48s-.36.67-.7.66-.32-.74-.65-.75-.36.8-.7.79-.22-.67-.54-.78c-.36-.13-.46.04-.8.03ZM61.78,69.66c.24.28.61-.09.98-.09s.37-.51.73-.51.37.17.73.17.37-.18.74-.18.37.06.74.06.37.39.74.39.37-.46.74-.46.37.82.74.82.37-.73.74-.73.37-.02.74-.02.37.57.74.57.37.06.74.06.37-.37.74-.37.37.15.74.15.51.23.75-.05c.28-.33.24-.44.24-.87s.35-.81.07-1.14c-.24-.28-.69.21-1.05.21s-.37-.2-.73-.2-.37.26-.73.26-.37.11-.74.11-.37-.16-.74-.16-.37-.32-.74-.32-.37.59-.74.59-.37.1-.74.1-.37-.31-.74-.31-.37-.39-.74-.39-.37.69-.74.69-.37.06-.74.06-.37-.64-.74-.64-.37.6-.74.6-.82-.88-1.06-.6c-.28.33.63.78.49,1.2-.18.55-.69.69-.41,1.01ZM73.33,74.69c.28-.33-.13-.64-.13-1.07s-.13-.28-.41-.61c-.24-.28-.07-.03-.44-.03s-.37.18-.73.18-.37-.06-.73-.06-.37-.39-.74-.39-.37.46-.74.46-.37-.82-.74-.82-.37.73-.74.73-.37.02-.74.02-.37-.57-.74-.57-.37-.06-.74-.06-.37.37-.74.37-.37-.15-.74-.15-.37.05-.74.05-.37-.24-.74-.24-.82-.3-1.06-.02c-.28.33.25.7.25,1.14s-.42.71-.14,1.04c.24.28.57-.17.94-.17s.37-.11.73-.11.37.16.73.16.37.32.74.32.37-.59.74-.59.37-.1.74-.1.37.31.74.31.37.39.74.39.37-.69.74-.69.37-.06.74-.06.37.64.74.64.37-.6.74-.6.37.75.74.75.45-.71.8-.59c.51.17.69.66.93.38ZM73.29,77.53c-.28-.23-.57.13-.94.13s-.37.51-.73.51-.37-.17-.73-.17-.37.18-.74.18-.37-.06-.74-.06-.37-.39-.74-.39-.37.46-.74.46-.37-.82-.74-.82-.37.73-.74.73-.37.02-.74.02-.37-.57-.74-.57-.37-.06-.74-.06-.37.37-.74.37-.37-.15-.74-.15-.46-.18-.75.05c-.24.19-.24.31-.24.62s-.17.3-.17.61.14.46.38.66c.28.23.41.22.78.22s.37-.26.73-.26.37-.11.73-.11.37.16.74.16.37.32.74.32.37-.59.74-.59.37-.1.74-.1.37.31.74.31.37.39.74.39.37-.69.74-.69.37-.06.74-.06.37.64.74.64.37-.6.74-.6.37.75.74.75.34-.33.63-.56c.24-.19.13-.16.13-.47s-.46-.44-.36-.73c.15-.44.78-.54.54-.74Z"/>
          <path class="cls-7" d="M94.22,73.46c-.22.1-.24.29-.47.39s-.6-.16-.83-.07-.27.62-.5.71-.45.19-.68.28-.57-.11-.8-.03-.51.03-.74.12-.51.02-.75.11-.26.72-.49.8-.62-.29-.85-.2-.44.23-.67.31-.3.67-.53.75-.61-.58-.85-.5c-.16.01-.13.44-.24.32-.24-.26-.28-.24-.44-.57s-.3-.26-.46-.58.09-.44-.07-.77.1-.45-.05-.78-.48-.17-.56-.53c-.04-.16.1-.06.21-.19.23-.06.32-.18.55-.24s.48-.02.7-.08.5.04.72-.02.44-.17.66-.23.3-.67.52-.74.56.26.78.19.5-.2.72-.26c-.14-.2-.08-.64-.22-.83s-.46-.28-.6-.46-.16-.51-.31-.69-.71-.02-.87-.19-.56-.35-.74-.52c-.04-.14.21-.37.31-.48.27-.29.32-.28.64-.51s.34-.22.66-.45.57.07.54-.33c-.02-.34-.15.13-.49.14s-.34.05-.68.06-.35-.38-.7-.37-.35-.11-.69-.1-.34.41-.68.35c-.14-.03-.27-.03-.3-.17-.09-.39.03-.42.03-.82s.43-.4.43-.81-.4-.4-.4-.81.28-.35.35-.75c.03-.13-.24-.06-.11-.09.34-.07.31.19.66.19s.35,0,.7,0,.37-.61.72-.6.35.03.71.04.34.34.7.35.36-.42.72-.42.36.77.72.77.36.03.72.03.36-.47.72-.47.36.06.72.06.36-.03.73-.03.36-.14.73-.14.36.27.73.26c.33,0,.33-.27.66-.27s.34.16.67.15.34.34.67.33.32-.62.65-.62.34.39.68.39.37-.39.7-.31c.15.04.41.15.45.3.07.32-.14.39-.15.71s-.39.31-.4.64.34.34.33.66.25.34.24.66-.14.32-.14.65c0,.38-.17.38-.17.75s.1.38.1.76-.08.38-.08.76-.26.38-.25.76.47.37.48.75-.29.39-.27.77.38.37.4.75-.01.38,0,.76-.62.4-.6.79.13.38.15.76c0,.22.13.42.12.62-.01.22-.36.35-.4.55-.04.21.45.19.38.38.35.19.17.6.55.7s.49-.32.88-.22.25.6.64.7.56-.38.89-.16c.13.09-.4.18-.42.34-.1.2-.06.31-.17.51s-.03.5-.14.7-.24.71-.36.91c.36.11.46,0,.84,0s.38.12.75.12.38-.17.75-.17.38.06.75.06.38-.35.76-.35.38-.04.76-.04.38.14.76.14.37.22.74.21.35-.66.72-.66.37.19.74.19.37-.15.73-.16.37.2.74.19.38.02.75.1c.15.03.11.11.15.26.08.34-.18.32-.19.66s-.12.34-.13.69,0,.35-.01.69-.01.35-.02.69.13.35.13.7c0,.38.39.39.39.77s.07.39.07.77-.19.39-.19.77-.04.39-.04.78-.4.39-.39.78c0,.35.36.34.37.69s.01.35.02.69.11.34.12.69-.39.36-.38.7.62.33.63.67-.12.35-.11.7.11.34.12.69-.33.36-.32.71.56.69.33.94-.6-.34-.93-.34-.33.28-.67.28-.33-.5-.67-.5-.34.11-.67.11-.34.52-.67.52-.34-.52-.68-.52-.4.4-.66.18c-.22-.2.38-.27.38-.57s-.14-.45-.37-.63c-.27-.23-.39.45-.75.45s-.36,0-.71,0-.36-.78-.71-.78-.36.68-.72.68-.36-.25-.71-.25-.36-.04-.71-.04-.36.38-.71.38-.36-.12-.72-.12-.36-.64-.72-.64-.36.48-.72.48-.36.12-.72.12-.36-.24-.72-.24-.36.11-.72.11-.36-.25-.72-.25-.36.34-.72.34-.36-.09-.72-.09-.36-.28-.72-.28-.39,0-.66.25c-.25.23.36.26.36.6s-.39.21-.64.44c-.28.25-.16.25-.54.25s-.37-.22-.75-.22-.38.58-.75.58-.38-.6-.75-.6-.38.13-.76.13-.62.5-.89.24.15-.5.16-.86.35-.35.36-.72-.13-.37-.13-.73-.47-.37-.47-.74.34-.35.35-.71.32-.36.33-.72-.08-.37-.07-.73-.07-.37-.06-.73.11-.37.12-.73-.31-.38-.31-.75.24-.37.24-.75-.08-.37-.08-.75-.11-.38-.11-.75.11-.38.11-.75c0-.34-.36-.34-.37-.68s.52-.36.51-.71-.24-.34-.25-.69.28-.35.27-.7-.12-.28-.05-.62c.03-.15-.29-.24-.15-.28.36-.08.36.16.73.17s.38-.43.74-.42.36.56.72.56.37.14.73.14.37-.16.74-.15.38-.53.75-.53c.34,0,.34.39.68.39s.34.05.69.05.34-.4.69-.4.26-.05.6-.13c.1-.19.66.16.74-.03s-.49-.25-.41-.44c-.23.07-.15.19-.41.23-.23.04-.53-.22-.8-.2-.24.02-.49.26-.76.26-.24,0-.51-.57-.77-.57-.48,0-.45.11-.61-.31-.14-.37-.68-.17-.82-.54s.39-.57.25-.94-.56-.21-.7-.59-.08-.45-.09-.85c.27,0,.6-.26.84-.27.27,0,.54.42.77.41.27-.02.49-.46.72-.48.38-.03.65.08.65-.43-.02-.48-.14-.47-.26-.95ZM94.26,67.3c-.25-.24-.24.04-.59.04s-.35-.38-.69-.38-.35.47-.7.47-.35.01-.7.01-.35-.31-.7-.31-.43-.25-.77-.14c.21.16.2.8.38.97s.76-.08.94.13c.15.17-.06.67.12.88.14.18.32.26.49.48.04.14.52.35.42.46-.21.26-.78-.33-1.04-.13s-.06.47-.32.67-.17.33-.43.53-.17.25-.39.5c.24-.08.29-.31.53-.39s.57.12.81.05.4-.41.63-.49.53,0,.76-.08.44-.28.67-.36.61-.17.84-.26c.1-.32.17-.39.17-.73s-.05-.34-.05-.68-.61-.38-.57-.72c.04-.3.43-.29.18-.53ZM93.17,84.17c.24.26.24-.04.6-.04s.36.38.71.38.36-.47.71-.47.36-.01.72-.01.36.31.71.31.36.15.71.15.36.16.71.16.36-.59.72-.59.36.48.72.48.36-.08.72-.08.36-.54.72-.54.36.75.72.75.36-.33.72-.33.36-.15.72-.15.36-.16.72-.16.36.27.72.27.36.29.72.29.5-.02.75-.28.17-.4.17-.78.11-.52-.15-.79c-.24-.26-.4-.12-.75-.12s-.36-.16-.71-.16-.36.05-.71.05-.36.57-.72.57-.36-.4-.71-.4-.36,0-.71,0-.36-.26-.71-.26-.36.2-.72.2-.36-.2-.72-.2-.36.52-.72.52-.36.2-.72.2-.36-.26-.72-.26-.36.04-.72.04-.36-.02-.72-.02-.36.05-.72.05-.36-.06-.72-.06-.36.04-.72.04-.63-.59-.88-.33-.13.48-.18.86c-.04.34.19.41.44.69ZM93.17,88.77c.25.26.24-.04.6-.04s.36.38.71.38.36-.47.71-.47.36-.01.72-.01.36.31.71.31.36.15.71.15.36.16.71.16.36-.59.72-.59.36.48.72.48.36-.08.72-.08.36-.54.72-.54.36.75.72.75.36-.33.72-.33.36-.15.72-.15.36-.16.72-.16.36.27.72.27.36.29.72.29.49-.03.75-.28.17-.39.17-.76.11-.51-.15-.78-.4-.12-.75-.12-.36-.16-.71-.16-.36.05-.71.05-.36.57-.72.57-.36-.4-.71-.4-.36,0-.71,0-.36-.26-.71-.26-.36.2-.72.2-.36-.2-.72-.2-.36.52-.72.52-.36.2-.72.2-.36-.26-.72-.26-.36.04-.72.04-.36-.02-.72-.02-.36.05-.72.05-.36-.06-.72-.06-.36.04-.72.04-.62-.59-.87-.33-.13.48-.18.84c-.04.33.19.4.44.67ZM100.94,76.48c-.25-.27-.18-.37-.34-.7s.18-.5.02-.82-.58-.13-.74-.46-.17-.33-.33-.66.05-.43-.03-.78c-.04-.16.09-.04.2-.16.24-.06.4.11.63.05s.33-.69.56-.75.59.34.82.27.45-.2.68-.27.32-.65.55-.72.94.32,1.16.25c-.15-.22-.62-.56-.75-.75-.15-.21-.42-.31-.56-.49-.16-.2-.43-.28-.59-.45-.16-.19-.12-.54-.29-.71s-.06-.42-.23-.59c-.04-.14-.33-.06-.24-.17.27-.29.41-.1.73-.32s.25-.34.58-.57.79-.11.78-.51c-.01-.33-.5-.31-.84-.3s-.33.06-.67.07-.32.58-.66.59-.35-.39-.69-.38-.32.09-.65.03c-.14-.03.13-.03.1-.18-.09-.39-.2-.33-.2-.73s.2-.4.2-.81-.52-.4-.52-.81-.27-.48-.19-.88c.03-.13.41-.21.54-.23.35-.07.38-.04.74-.03s.36.03.72.04.36-.04.72-.03.36.07.72.08.36-.03.72-.03.36.39.72.39.36.12.72.12.36-.33.72-.33.36-.08.72-.08.36.03.72.03.36.43.73.43.36-.4.73-.4.37.36.73.36c.33,0,.33-.18.67-.18s.34.16.67.16.34-.02.67-.03.32-.63.66-.64.34,0,.68,0,.34.23.67.31c.15.04.57-.06.6.09.07.32-.77.4-.78.72s-.04.33-.05.65.46.34.45.67-.07.33-.08.65.02.33.01.66c0,.4.14.4.14.8s-.26.4-.26.8.26.4.26.8-.17.4-.17.8c0,.37-.33.38-.32.75s.62.35.63.72-.39.39-.38.76.31.36.33.73.13.37.14.74-.12.38-.11.75c0,.25-.38.47-.39.7-.02.25.28.53.23.74-.06.24.08.6-.03.8-.11.21-.4.4-.56.57s-.48.2-.69.33c-.19.12-.38.31-.61.4-.21.08-.47.07-.72.12-.22.05-.49-.16-.73-.13-.22.03-.41.5-.66.52-.23.02-.48-.27-.73-.27-.23,0-.47.38-.71.38-.48,0-.91-.33-1.07-.74-.14-.36.45-.59.31-.94s-.25-.31-.39-.67-.26-.31-.4-.67.05-.31.05-.69c.28,0,.13-.34.37-.35.28,0,.55.53.79.52.27-.01.49-.47.73-.49.38-.03.83.06.83-.45,0-.37-.26-.36-.38-.71-.23.09-.52-.23-.76-.15s-.42.27-.65.36-.39.37-.63.45-.53-.03-.77.05-.46.17-.7.25-.51.05-.74.13-.42.31-.65.39-.49.1-.73.18-.37.49-.61.57-.46.19-.7.27-.52.03-.77.11c-.21.1-.31.22-.42.1ZM107.1,69.78c-.21.26-.3.22-.56.43s-.5-.1-.77.1.01.58-.25.78-.27.13-.49.38c.24-.07.31-.24.55-.31s.53,0,.77-.07.53,0,.77-.07.3-.71.54-.79.63.3.86.22.58-.35.82-.43c.1-.33-.53-.4-.53-.75s.75-.35.75-.7-.33-.35-.33-.7.12-.39-.13-.63-.29.19-.65.19-.36-.27-.71-.27-.36-.29-.71-.29-.36.27-.72.27-.36-.16-.72-.16-.39.03-.74.14c.21.16.31.5.5.67s.24.45.42.64.36.33.54.53c.16.19.77.04.94.25.12.17-.06.45-.15.56Z"/>
          <path class="cls-7" d="M119.36,67.65c.37-.06.35-.35.73-.34s.36.5.73.51.4-.61.77-.6.37.26.74.28.36.39.74.41.49-.73.86-.63c.15.04.39.3.46.44-.02.24-.05.65-.07.88s-.21.47-.23.7.2.5.19.73-.4.46-.41.69-.29.47-.31.7.01.48,0,.72.27.49.26.73c0,.24-.31.47-.32.7,0,.25.56.5.56.73,0,.25-.36.48-.37.71,0,.25-.21.48-.22.71,0,.25.5.49.5.71,0,.24-.02.48-.02.71,0,.24-.06.48-.05.71,0,.24-.09.48-.07.71.02.24-.47.52-.45.75.02.24.55.43.58.66.03.24.13.46.16.69.04.24-.24.53-.2.76.05.24,0,.5.05.72s.45.38.51.6c.07.24.4.36.47.57.08.24-.24.6-.14.79.12.24.46.24.61.39.18.18.21.79.45.79.2,0,.56-.26.77-.44.16-.13.41-.3.57-.51.13-.17-.3-.72-.17-.94.11-.19.66-.16.77-.39.09-.2.05-.48.14-.71.08-.21-.18-.54-.11-.77.07-.22.78-.24.85-.47.06-.22-.26-.41-.2-.65.31.2.45.05.68.33s.2.31.42.6-.15.59.08.87.67-.06.9.23.19.32.41.61,0,.47.24.76.63-.03.86.26c.13.16.21.54.21.66s-.22.28-.28.44c-.09.23-.42.36-.52.58s-.32.39-.42.6.19.65.07.86-.21.47-.34.67-.19.5-.33.69-.5.25-.66.43-.67.03-.84.19.04.81-.15.96-.56.08-.77.2-.38.42-.6.5-.53.02-.77.06-.5-.07-.75-.07-.52.31-.75.27-.39-.44-.61-.51-.31-.4-.52-.51-.72.31-.92.18-.14-.58-.32-.74-.41-.24-.57-.41-.33-.33-.47-.52-.07-.51-.2-.71-.05-.49-.16-.7-.83-.08-.93-.29c-.1-.2.22-.62.12-.86-.09-.21-.49-.32-.57-.56-.08-.22.08-.53,0-.77-.07-.22.08-.51.02-.76-.06-.23-.25-.42-.31-.67s-.24-.44-.29-.68-.05-.48-.1-.72.12-.5.08-.75-.11-.46-.14-.71-.19-.46-.21-.71-.09-.48-.11-.72-.08-.48-.09-.72-.09-.49-.09-.73-.08-.49-.08-.74c0-.23.47-.46.47-.7s-.35-.47-.34-.7-.28-.47-.27-.71.57-.46.57-.7-.59-.48-.59-.72.61-.45.62-.69-.19-.47-.18-.71.33-.46.33-.69.08-.47.09-.7-.34-.48-.34-.71-.13-.47-.12-.71.23-.46.24-.7-.35-.63-.34-.87c.06-.11.39.16.54.14ZM134.64,73.16c.26-.3.05-.51.36-.75s.61.13.92-.11-.09-.74.22-.98.46-.05.77-.3.47.02.82-.17c.16-.09.07-.71.25-.69.2.13.55.35.75.49s.36.32.55.47.27.44.45.59.52.13.7.29.11.59.28.76.16.52.32.68.36.31.52.48.54.15.7.32.09.55.24.73.75,0,.9.19.02.59.16.78.11.5.25.7.69.1.82.3.24.42.37.62.19.45.31.65.14.47.26.68-.23.65-.12.86.67.2.77.42.27.48.37.69c0,.15-.26.07-.37.17-.24.24-.32.07-.61.25s-.1.48-.39.66-.14.42-.43.6-.52-.19-.81,0-.14.43-.43.61-.6-.31-.89-.13-.14.34-.47.44c-.16.05.06-.01-.07-.11-.09-.22-.69-.07-.78-.29s.28-.64.19-.86-.33-.38-.43-.59-.53-.27-.64-.48.38-.74.27-.95-.39-.34-.51-.55-.53-.24-.65-.45-.22-.42-.35-.62.13-.67,0-.86-.73-.06-.88-.25-.24-.41-.39-.59-.09-.55-.24-.73-.69,0-.85-.18-.27-.38-.44-.55-.21-.45-.39-.61-.19-.51-.37-.66-.29-.41-.48-.55-.73,0-.92-.14c-.06-.12.31-.15.4-.26Z"/>
        </g>
        <g>
          <g>
            <g>
              <path class="cls-4" d="M138.43,46.88c-.18-.12-.25-.29-.29-.52-.06-.34-.1-.34-.16-.68s-.09-.34-.15-.68.05-.36-.02-.71-.19-.32-.25-.66.05-.36-.02-.71-.21-.32-.27-.66.02-.36-.05-.7-.07-.34-.13-.69.07-.37,0-.71-.22-.32-.28-.66-.05-.35-.11-.69.09-.37.03-.72-.07-.35-.13-.69-.27-.31-.33-.66.05-.37-.02-.71c-.04-.23-.18-.41-.34-.52-.17-.12-.41-.24-.62-.2-.2.03-.44.17-.57.36-.21.3-.15.34-.36.64s-.15.34-.35.64-.34.21-.55.51-.15.34-.36.64-.24.28-.45.57-.15.34-.35.64-.22.29-.43.59-.21.29-.42.59-.22.29-.43.59-.18.32-.39.62-.19.31-.4.61-.2.31-.41.61-.15.34-.36.64-.21.3-.42.6-.28.25-.49.55-.11.37-.32.67-.21.3-.42.6-.25.27-.46.57-.33.22-.54.52-.23.28-.44.58-.13.36-.34.66-.28.25-.48.56-.14.35-.35.65-.15.35-.36.65-.35.21-.56.51-.1.38-.31.68c0,0-.09-.01-.09,0,.06.36.11.35.17.71s.07.36.14.72.17.34.24.7-.07.39,0,.75,0,.37.07.73.14.35.21.71-.01.38.05.74.16.35.23.71.14.35.2.71-.12.4-.05.76.11.36.18.72.15.35.22.71.06.36.12.73.14.35.21.71-.11.4-.05.76.17.35.23.71-.03.38.04.75.24.33.3.7c0,0-.08.11-.08.11.02,0-.05-.13-.03-.14.21-.28.29-.22.5-.51s.15-.32.36-.61.23-.27.43-.56.17-.31.37-.6.26-.25.46-.54.17-.31.37-.6.27-.24.47-.53.12-.35.32-.64.27-.24.47-.53.09-.36.3-.65.25-.25.45-.54.21-.29.41-.57.09-.36.29-.65.35-.19.55-.48.15-.33.35-.62.26-.25.46-.55.23-.27.43-.56.1-.36.31-.65.2-.3.4-.59.25-.26.45-.55.24-.26.45-.55.21-.28.42-.58.05-.4.25-.69.32-.21.52-.5.18-.31.38-.6.22-.28.43-.57.18-.31.38-.6.21-.29.41-.59.25-.25.47-.54.17-.33.28-.67Z"/>
              <path class="cls-4" d="M138.45,46.86c.17.13.44.29.67.25.34-.06.32-.17.67-.24s.34-.09.68-.15.35-.02.69-.08.35-.01.7-.07.33-.16.67-.22.37.06.71,0,.35-.02.7-.09.33-.14.68-.2.36,0,.7-.06.34-.1.68-.17.34-.07.69-.14.35-.07.69-.13.33-.14.68-.2.34-.08.69-.15.38.11.73.05c.23-.04.39-.03.55.09.17.12.43.24.47.45.04.2-.05.46-.18.65-.21.3-.2.3-.41.6s-.29.24-.5.54-.22.29-.42.59-.13.36-.34.66-.18.32-.39.62-.36.19-.56.49-.04.41-.25.71-.32.22-.53.52-.24.28-.44.58-.09.38-.3.68-.25.27-.45.57-.25.27-.46.57-.27.26-.48.56-.15.34-.36.64-.12.36-.33.66-.21.3-.42.6-.22.29-.43.59-.26.26-.47.57-.15.34-.36.64-.27.26-.48.56-.18.32-.39.63-.19.32-.39.62-.3.24-.51.54-.11.37-.32.68-.3.24-.51.54-.09.39-.3.69c0,0-.07-.03-.08-.02-.36.07-.36.07-.72.14s-.38-.06-.74,0-.33.23-.69.29-.37.05-.73.11-.39-.09-.75-.02-.36.07-.72.13-.33.27-.69.33-.38-.04-.75.02-.36.07-.72.14-.37,0-.74.06-.37.06-.73.12-.35.13-.71.2-.35.14-.71.21-.39-.1-.75-.03-.35.14-.72.2-.37.03-.74.09-.35.14-.72.21-.37.05-.73.11c0,0,.03.01.03.01,0-.02-.01,0,0-.02.19-.3.17-.31.37-.6s.19-.3.39-.59.19-.3.39-.59.15-.33.35-.62.21-.29.41-.58.27-.24.47-.53.1-.36.31-.65.2-.29.4-.58.24-.26.44-.55.32-.2.52-.49.22-.27.42-.56.12-.34.32-.63.27-.24.47-.53.13-.34.33-.63.14-.33.34-.62.34-.2.54-.49.09-.37.29-.66.27-.24.47-.53.17-.32.37-.61.2-.3.4-.59.11-.35.32-.64.31-.21.52-.51.25-.26.45-.55.14-.34.34-.63.27-.25.47-.54.12-.35.32-.64.14-.34.35-.63.36-.19.56-.48.21-.3.38-.62c.17-.34.05-.43.33-.65Z"/>
            </g>
            <path class="cls-6" d="M138.48,46.89c.17.13.38.1.61.05.34-.06.38.13.72.07s.33-.14.67-.2.33-.11.68-.18.34-.07.68-.14.36.04.71-.02.32-.19.66-.25.36.03.71-.03.33-.16.67-.22.37.05.71,0,.36,0,.7-.06.34-.11.68-.17.35-.03.7-.09.35-.07.69-.13.33-.17.68-.23.33-.16.68-.22c.23-.04.41.19.57.3.17.12.3.25.34.46.04.2.09.44-.05.63-.21.3-.25.27-.46.57s-.31.23-.52.53-.18.32-.39.62-.14.35-.35.65-.28.25-.48.55-.19.31-.4.61-.11.36-.32.66-.28.25-.49.54-.13.35-.33.65-.31.23-.52.53-.18.32-.39.62-.27.26-.48.56-.13.35-.34.65-.26.26-.47.56-.13.35-.34.65-.32.22-.53.52-.2.3-.41.6-.1.38-.31.68-.19.32-.4.62-.3.24-.51.54-.12.37-.33.67-.19.32-.39.62-.25.28-.46.58-.25.27-.46.58-.13.36-.34.66-.32.23-.52.54c0,0,.03-.04.02-.04-.36.07-.34.14-.7.2s-.37,0-.73.07-.35.11-.72.17-.36.08-.72.14-.36.07-.72.13-.35.14-.71.21-.36.09-.72.15-.4-.11-.76-.05-.36.1-.72.16-.33.23-.7.29-.37.02-.74.09-.36.07-.73.14-.38-.03-.74.03-.36.06-.73.12-.35.16-.71.23-.36.1-.72.16-.4-.11-.76-.05-.33.27-.7.33c0,0,.01-.11.01-.11,0-.02,0,.02.02,0,.19-.3.09-.37.29-.66s.24-.26.44-.56.24-.26.44-.55.26-.25.47-.54.14-.33.34-.62.12-.35.32-.64.21-.29.41-.58.22-.28.42-.57.25-.25.46-.54.15-.33.35-.62.26-.25.46-.54.17-.31.37-.6.18-.31.38-.59.29-.23.49-.52.1-.36.3-.65.29-.23.5-.52.08-.38.28-.67.27-.24.47-.54.19-.3.4-.59.31-.22.51-.51.07-.38.27-.68.22-.28.42-.57.33-.2.53-.5.2-.29.4-.58.03-.41.24-.7.29-.23.5-.52.2-.3.4-.59.26-.25.46-.55.25-.28.42-.59.05-.41.33-.63Z"/>
          </g>
          <path class="cls-1" d="M139.36,62.08s.06.04.07.03c.2-.3.06-.4.27-.7s.19-.31.4-.61.24-.28.45-.58.24-.28.45-.58.3-.24.51-.54.06-.4.27-.7.34-.21.54-.5.19-.31.4-.61.24-.28.44-.58.12-.36.33-.66.15-.34.35-.64.25-.28.45-.58.17-.32.38-.62.26-.26.47-.56.19-.31.4-.61.26-.26.47-.56.17-.33.38-.63.21-.3.42-.6.16-.33.37-.64.33-.22.54-.52.2-.31.41-.61.22-.29.43-.59.16-.34.37-.64.27-.26.48-.57.18-.32.39-.63.21-.31.42-.61c.13-.19.03-.4,0-.6-.04-.21-.03-.44-.21-.56-.16-.11-.39-.17-.62-.12-.34.06-.36,0-.7.05s-.34.05-.69.12-.33.11-.68.17-.33.12-.68.18-.33.16-.67.22-.38-.15-.73-.08-.32.21-.66.27-.34.1-.68.16-.38-.12-.72-.06-.33.17-.67.23-.36-.05-.71.01-.31.24-.66.3-.36,0-.71.05-.34.08-.69.14-.36-.01-.71.05c-.22.04-.36-.02-.53-.14s-.34-.22-.38-.43c-.06-.34-.07-.34-.14-.69s-.04-.35-.1-.69-.09-.34-.15-.68-.16-.33-.22-.67.13-.38.07-.72-.14-.33-.2-.67-.11-.33-.18-.68-.07-.34-.14-.69.04-.36-.02-.71-.19-.32-.25-.67.03-.36-.03-.71-.16-.33-.22-.67.05-.37,0-.71,0-.36-.06-.71-.11-.34-.17-.69c-.04-.23-.17-.47-.34-.59-.17-.12-.46-.18-.67-.14-.2.03-.36.24-.49.43-.21.3-.13.35-.34.65s-.36.19-.57.49-.17.33-.38.63-.13.36-.34.66-.25.27-.46.57-.31.23-.52.52-.18.32-.39.61-.14.35-.34.64-.28.25-.48.55-.19.31-.4.61-.11.36-.32.67-.28.25-.49.55-.13.36-.33.66-.31.23-.52.53-.18.32-.39.62-.27.26-.48.56-.13.35-.34.65-.26.27-.47.57-.13.36-.34.66-.32.22-.53.52-.2.3-.41.61-.1.38-.31.68-.19.32-.4.62-.3.24-.51.54-.12.37-.33.67-.18.32-.4.62c0,0-.04-.06-.04-.05.06.36.01.37.08.73s.16.34.23.7-.06.38,0,.75.03.37.09.73.14.35.2.71,0,.37.07.73.11.35.17.72.08.36.14.72.07.36.13.72.14.35.21.71.09.36.15.72-.11.4-.05.76.1.36.16.72.23.33.29.7.02.37.09.74.07.36.14.73-.03.38.03.75.06.37.12.73c0,0,.04-.06.04-.06.36-.06.35-.1.71-.16s.39.11.75.05.33-.26.69-.33.39.07.75,0,.37-.03.73-.1.34-.2.7-.27.37-.02.73-.09.37-.02.74-.08.38,0,.74-.06.35-.14.71-.2.35-.17.71-.23.36-.06.73-.12.37-.05.73-.11.37,0,.74-.07.35-.13.72-.2.38,0,.74-.06.36-.11.72-.17.37-.04.73-.12Z"/>
        </g>
        <g>
          <g>
            <g>
              <path class="cls-4" d="M112.49,32.18c-.19.09-.38.06-.6-.03-.33-.13-.34-.09-.67-.22s-.34-.1-.66-.23-.28-.23-.61-.36-.37,0-.7-.14-.29-.23-.61-.36-.38.01-.71-.11-.3-.2-.62-.33-.33-.12-.66-.25-.28-.25-.61-.38-.39.02-.71-.1-.32-.14-.65-.27-.27-.27-.6-.4-.33-.12-.66-.25-.4.06-.73-.06-.29-.23-.62-.36c-.22-.08-.44-.07-.62.02-.19.09-.42.23-.49.43-.07.19-.09.46,0,.68.15.33.21.31.36.64s.22.3.36.64,0,.4.14.73.21.31.36.64.11.35.26.68.22.3.36.64.13.34.27.67.14.34.28.67.13.34.28.67.18.32.32.65.17.33.31.66.16.33.3.67.21.31.35.64.14.34.29.67.07.37.21.7.26.29.4.62.15.33.3.67.1.35.25.69.01.4.16.73.12.35.27.68.24.3.38.63.07.37.22.7.22.3.37.64.22.31.36.64,0,.41.14.74.27.28.42.62c0,0-.06.07-.05.07.34.14.36.09.7.23s.34.13.68.26.38.03.72.17.29.26.64.39.32.19.66.32.37.06.71.19.31.21.66.34.38.04.72.17.37.06.71.2.28.31.62.44.36.09.71.23.37.05.72.19.34.14.68.28.37.06.72.19.28.31.62.44.38.04.73.17.31.22.66.36.41-.03.76.11c0,0,.05.12.05.12,0-.02-.13-.03-.14-.05-.13-.33-.04-.37-.18-.69s-.2-.3-.34-.62-.11-.34-.25-.66-.18-.31-.32-.63-.08-.35-.22-.68-.18-.31-.32-.63-.06-.36-.21-.68-.23-.28-.38-.61-.06-.36-.21-.68-.26-.27-.4-.59-.08-.35-.22-.67-.14-.32-.28-.65-.26-.27-.4-.59.02-.39-.12-.72-.2-.3-.34-.62-.08-.35-.22-.68-.11-.34-.25-.66-.25-.28-.39-.6-.15-.32-.29-.65-.09-.35-.23-.67-.1-.35-.24-.67-.13-.33-.27-.66-.32-.25-.46-.58-.01-.38-.16-.71-.17-.31-.31-.64-.12-.34-.26-.66-.17-.31-.32-.64-.14-.33-.29-.66-.09-.35-.21-.68-.19-.32-.42-.59Z"/>
              <path class="cls-4" d="M112.48,32.16c.2-.08.48-.22.56-.44.13-.33.02-.37.15-.69s.1-.34.23-.66.17-.31.29-.63.17-.31.3-.63.04-.36.16-.69.24-.28.37-.61.16-.31.29-.64.06-.35.18-.68.19-.3.31-.63.09-.34.21-.67.12-.33.24-.66.12-.33.25-.66.05-.36.18-.69.11-.34.24-.67.3-.26.42-.59c.08-.22.18-.34.36-.42.19-.08.43-.24.63-.16.19.07.37.28.46.5.15.33.15.33.3.66s.06.37.2.71.14.34.29.67.24.3.38.63.18.32.32.66-.02.41.13.74.33.25.48.58.02.39.17.72.11.35.26.68.27.28.42.61.1.35.25.69.1.36.25.69.08.36.22.7.21.31.36.64.24.29.39.63.14.34.29.67.13.34.28.68.09.36.24.7.21.31.36.65.08.37.23.7.18.32.33.65.17.32.32.66.05.38.19.72.26.29.41.62.05.38.2.72.28.28.43.61c0,0-.06.05-.06.05-.13.34-.12.34-.26.68s-.25.29-.39.63.02.4-.11.74-.15.34-.28.68-.28.29-.41.63-.13.34-.26.69.06.42-.07.76-.24.3-.37.65-.13.34-.26.69-.2.32-.33.66-.14.34-.28.69-.07.37-.2.71-.06.37-.2.71-.29.28-.42.63-.07.37-.2.72-.17.33-.31.68-.07.37-.2.72-.15.34-.29.69c0,0,.03-.02.03-.02-.02,0,0,.01-.01-.01-.16-.32-.17-.31-.32-.63s-.16-.32-.3-.64-.15-.32-.29-.64-.2-.3-.34-.62-.14-.33-.28-.65-.06-.36-.21-.68-.25-.28-.39-.6-.14-.32-.29-.65-.1-.34-.24-.67,0-.38-.15-.7-.12-.33-.26-.66-.23-.28-.37-.6-.07-.35-.21-.68-.22-.29-.36-.61-.21-.29-.35-.62.01-.39-.13-.72-.26-.27-.41-.6-.06-.36-.21-.68-.18-.31-.32-.63-.15-.32-.29-.65-.24-.28-.38-.61-.02-.38-.16-.7-.09-.35-.23-.68-.22-.29-.36-.62-.07-.36-.21-.68-.24-.28-.38-.61-.21-.3-.36-.62.03-.4-.12-.73-.15-.34-.33-.64c-.2-.32-.34-.26-.39-.62Z"/>
            </g>
            <path class="cls-6" d="M112.53,32.15c.2-.08.28-.27.36-.49.13-.33.31-.25.44-.58s.05-.35.18-.68.08-.34.2-.67.12-.33.24-.65.22-.29.35-.62,0-.37.13-.7.22-.29.34-.62.04-.36.16-.69.24-.28.36-.61.19-.3.32-.63.08-.34.21-.67.16-.31.29-.64.12-.33.25-.66.03-.37.16-.7.04-.36.17-.69c.08-.22.37-.25.56-.33.19-.08.37-.13.57-.05.19.07.42.15.51.37.15.33.1.35.25.69s.03.38.18.72.18.32.32.66.23.3.37.63.07.37.22.7.17.32.31.66.25.29.4.62.06.37.21.7.24.29.38.62.03.38.18.72.18.32.32.66.08.36.23.7.23.3.38.63.09.36.24.69.23.3.38.63.02.39.17.73.15.33.3.67.27.28.42.62.17.33.32.66.04.38.19.72.25.29.4.63.17.32.32.66.11.35.25.69.1.36.25.69.24.3.39.64.03.39.18.73c0,0-.02-.05-.03-.04-.13.34-.06.37-.19.71s-.19.32-.32.66-.09.36-.23.7-.12.35-.26.69-.13.34-.26.69-.06.37-.19.71-.11.35-.25.69-.3.28-.44.62-.11.35-.24.7.02.4-.12.75-.17.33-.31.67-.13.35-.26.69-.23.31-.36.65-.14.34-.28.68-.04.38-.18.72-.11.36-.24.7-.3.28-.44.63.05.42-.08.77c0,0-.08-.07-.08-.07-.02,0,.02,0,0-.02-.16-.32-.27-.27-.41-.59s-.1-.34-.24-.67-.1-.34-.24-.67-.07-.35-.21-.68-.21-.29-.35-.62-.24-.28-.38-.61-.14-.33-.28-.65-.13-.33-.27-.66-.08-.35-.23-.67-.2-.3-.34-.62-.07-.35-.22-.67-.18-.31-.32-.63-.17-.31-.31-.63-.04-.37-.18-.69-.26-.27-.4-.6-.04-.37-.19-.7-.28-.26-.42-.59-.07-.36-.21-.68-.15-.32-.29-.64-.02-.38-.17-.7-.29-.26-.43-.58-.13-.33-.27-.66,0-.39-.15-.71-.15-.32-.29-.65-.33-.24-.47-.57-.04-.37-.18-.69-.15-.32-.29-.65-.08-.35-.23-.68-.11-.36-.28-.67-.33-.26-.37-.61Z"/>
          </g>
          <path class="cls-1" d="M125.93,39.34s.07-.03.06-.04c-.15-.33-.31-.26-.46-.59s-.16-.33-.31-.66-.11-.35-.25-.69-.11-.35-.26-.69-.05-.38-.19-.71-.31-.26-.46-.6,0-.4-.15-.73-.16-.32-.31-.66-.11-.35-.26-.68-.25-.29-.39-.62-.22-.3-.36-.64-.11-.35-.25-.69-.19-.32-.33-.65-.09-.36-.24-.69-.16-.33-.31-.66-.09-.36-.23-.7-.19-.32-.33-.65-.15-.34-.29-.67-.2-.31-.35-.65-.01-.39-.16-.73-.16-.33-.3-.67-.13-.34-.28-.68-.2-.31-.35-.65-.08-.37-.23-.7-.18-.32-.33-.66-.15-.34-.3-.67c-.09-.21-.33-.24-.51-.31-.2-.08-.39-.2-.59-.12-.18.08-.35.25-.43.46-.13.33-.19.3-.32.63s-.13.32-.26.65-.08.34-.21.67-.08.35-.2.67-.03.36-.16.69-.32.25-.45.57.01.38-.11.71-.09.34-.22.67-.3.26-.43.59-.03.36-.16.69-.23.28-.36.61.04.39-.09.72-.2.3-.32.63-.11.33-.24.66-.2.3-.33.63c-.08.21-.21.29-.4.38s-.36.18-.57.1c-.33-.13-.33-.12-.66-.24s-.32-.15-.64-.28-.34-.1-.66-.22-.36-.03-.69-.16-.26-.31-.58-.44-.36-.05-.68-.18-.35-.08-.67-.2-.33-.12-.66-.24-.29-.22-.61-.35-.37,0-.7-.13-.29-.22-.62-.34-.36-.04-.69-.16-.29-.24-.61-.36-.3-.19-.63-.32-.35-.09-.67-.21c-.22-.08-.49-.1-.68-.02-.19.09-.39.3-.47.5-.07.19.02.43.11.64.15.33.23.29.38.63s-.03.41.12.74.19.32.33.65.24.29.38.63.1.36.25.69.03.38.18.72.18.32.32.65.22.3.37.63.07.37.22.7.17.32.31.66.25.29.4.62.06.37.21.71.24.29.38.63.03.38.18.72.18.32.32.66.08.36.23.7.23.3.38.63.09.36.24.7.23.3.38.63.02.39.17.73.15.33.3.67.27.28.42.61.17.33.32.66.05.38.19.72.25.29.4.63.18.33.32.67c0,0-.07,0-.06.01.34.14.32.18.66.31s.38.04.72.17.3.25.64.38.33.17.67.3.37.06.71.2.32.19.66.33.36.09.7.23.35.12.69.26.34.13.69.26.37.06.72.19.35.11.7.25.28.3.62.44.35.11.7.24.4-.02.75.12.33.17.67.31.35.13.69.26.31.23.66.36.34.14.69.28c0,0-.03-.06-.03-.06.13-.34.1-.35.24-.69s.3-.27.44-.62-.06-.42.08-.76.26-.29.39-.64.17-.33.3-.67,0-.39.14-.73.18-.33.31-.67.18-.33.32-.67.2-.32.34-.66.07-.37.2-.71.04-.38.17-.73.14-.34.27-.69.15-.34.29-.68.19-.32.33-.66.07-.37.21-.71.2-.32.34-.66.09-.36.23-.71.16-.34.28-.69Z"/>
        </g>
      </g>
    </g>
  </g>
</svg>