<?xml version="1.0" encoding="UTF-8"?>
<svg id="_レイヤー_2" data-name="レイヤー 2" xmlns="http://www.w3.org/2000/svg" viewBox="0 0 200 150">
  <defs>
    <style>
      .cls-1 {
        stroke-width: 1.5px;
      }

      .cls-1, .cls-2, .cls-3, .cls-4, .cls-5, .cls-6 {
        fill: none;
      }

      .cls-1, .cls-2, .cls-4, .cls-5, .cls-6 {
        stroke-miterlimit: 10;
      }

      .cls-1, .cls-5 {
        stroke: #040000;
      }

      .cls-2 {
        stroke: #6bb937;
        stroke-width: 6px;
      }

      .cls-3, .cls-7, .cls-8, .cls-9 {
        stroke-width: 0px;
      }

      .cls-4 {
        stroke-width: .84px;
      }

      .cls-4, .cls-6 {
        stroke: #4a8037;
        stroke-linecap: round;
      }

      .cls-5 {
        stroke-width: 1.26px;
      }

      .cls-7 {
        fill: #1b5c30;
      }

      .cls-8 {
        fill: #6ab82d;
      }

      .cls-9 {
        fill: #fff;
      }
    </style>
  </defs>
  <g id="_常人" data-name="常人">
    <rect class="cls-3" width="200" height="150"/>
    <g>
      <g>
        <path class="cls-7" d="M100.3,25.23c-.36,0-.44.19-.73.4s-.2.34-.49.55-.33.15-.62.36.01.63-.28.84-.43.02-.72.23-.22.3-.51.51-.24.27-.53.48-.24.27-.53.48-.73-.4-1.02-.19.1.74-.19.95-.3.19-.59.4-.21.32-.49.53-.46-.03-.75.18-.25.27-.53.47-.15.4-.43.61-.62-.25-.91-.04-.24.27-.53.48-.43.01-.72.22.07.7-.22.91-.32.17-.6.38-.56-.16-.85.05-.2.33-.49.54-.25.26-.54.47-.06.53-.35.74-.27.24-.56.45-.57-.17-.86.04-.04.56-.33.77-.51-.09-.8.13-.26.26-.55.47-.54-.13-.83.08.06.69-.23.91-.44.01-.73.22-.23.3-.52.51-.22.31-.51.52-.37.1-.66.31-.14.42-.43.63-.34.15-.63.36-.54-.13-.83.08-.16.39-.45.6-.27.24-.56.45-.57-.18-.86.03-.07.52-.36.73-.47-.03-.76.18.03.65-.27.86-.53-.12-.82.09-.04.56-.33.77-.46-.02-.75.2-.07.52-.36.73-.65-.29-.94-.07-.02.58-.31.79-.32.17-.61.38-.15.4-.44.61-.44,0-.73.21-.53-.12-.82.1-.23.3-.52.51-.41.05-.7.26-.26.25-.56.47-.34.14-.63.35-.23.3-.52.51.08.72-.21.94-.26.26-.55.47-.4.06-.7.27-.21.32-.5.54-.32.18-.61.39-.46-.02-.75.19-.07.52-.36.73-.44,0-.73.22-.59-.2-.88.01-.18.36-.47.58-.02.58-.31.8-.27.25-.56.46-.34.15-.63.36-.66-.29-.95-.08-.19.35-.48.56-.05.55-.34.76-.29.21-.59.43-.64-.27-.94-.06.02.64-.27.86-.37.1-.67.32-.42.03-.71.25-.41.06-.7.27-.06.53-.35.75-.11.47-.4.69-.44.01-.74.23-.24.29-.53.51-.2.07-.32.42-.02.14.09.48-.22.45-.11.79.57.19.68.53-.29.47-.18.81-.24.46-.13.8.68.16.79.5-.08.4.03.74-.27.46-.16.8.55.2.67.54.03.37.14.71.08.35.19.69-.12.42-.01.76.33.27.44.61.24.3.35.64-.1.41.01.75.35.26.46.61.29.28.4.62-.5.54-.39.87.14.33.25.67.32.27.43.61.11.34.22.68,0,.38.11.71.54.2.65.54-.21.44-.1.78-.05.39.06.73.6.18.71.52.09.35.2.69-.44.52-.33.86.32.28.43.62.26.29.38.63-.12.42,0,.76.63.17.74.52-.38.5-.26.84.25.3.36.64.05.36.16.7-.15.42-.04.76.72.14.83.48-.12.42-.01.76-.19.44-.08.78.2.31.31.65.35.26.47.6-.19.44-.08.78.42.24.53.58.08.35.19.69.3.28.41.62.27.29.38.63-.37.5-.26.84.27.29.38.63-.33.49-.22.83.9.08,1.01.43-.66.59-.55.93.31.28.42.62.59.19.7.53-.55.56-.44.9.61.18.72.52.08.35.19.7-.35.49-.24.84.77.13.88.47-.57.56-.46.91.36.26.47.6-.15.43-.04.77.14.33.25.68.43.24.54.58.33.27.44.62.05.36.16.71.21.31.33.65-.4.51-.29.85.29.28.4.62.55.2.66.54-.34.49-.23.83.12.34.23.68.29.29.4.63-.1.41,0,.76.6.18.71.53-.6.57-.49.92.58.19.69.54.21.31.32.65-.28.47-.17.81.13.34.24.68.16.33.27.67.32.28.43.62.44.24.55.58-.31.48-.2.83.22.31.33.66-.29.48-.18.82.22.43.52.65.4.14.76.14.36-.51.72-.51.36.46.72.46.36-.43.72-.43.36.45.72.45.36,0,.72,0,.36-.55.72-.55.36.06.72.06.36.09.72.09.36-.13.72-.13.36.54.72.54.36-.38.72-.38.36-.03.72-.03.36.61.72.61.36-.53.72-.53.36.07.72.07.36-.12.72-.12.36.04.72.04.36-.02.72-.02.36.3.72.3.36-.23.72-.23.36-.27.71-.27.36.53.71.53.36-.43.71-.43.36.59.71.59.36-.05.72-.05.36-.04.72-.04.36-.17.72-.17.36-.31.72-.31.36.63.72.63.36-.76.72-.76.36,0,.72,0,.36.51.72.51.36.18.72.18.36-.45.72-.45.36-.17.72-.17.36.05.71.05.36.57.71.57.36,0,.71,0,.36.05.72.05.36-.72.72-.72.36.29.72.29.36.37.72.37.36-.41.72-.41.36.09.72.09.36-.36.72-.36.36.36.72.36.36.37.72.37.36-.1.72-.1.36-.65.72-.65.36.64.72.64.36.03.72.03.36-.66.72-.66.36.58.72.58.36-.23.72-.23.36.09.72.09.36.15.72.15.36.21.72.21.36-.09.72-.09.36-.36.72-.36.36.29.72.29.36-.32.72-.32.36.2.72.2.36-.26.72-.26.36-.25.72-.25.36.69.72.69.36-.11.72-.11.36.18.72.18.36-.39.72-.39.36.31.72.31.36-.41.72-.41.36.42.72.42.36-.66.72-.66.36.4.72.4.36-.22.72-.22.36.02.72.02.36.15.72.15.36.39.72.39.36-.72.72-.72.36.72.72.72.36-.78.72-.78.36.42.72.42.36-.28.73-.28.36-.12.73-.12.36.43.73.43.42.13.72-.09.11-.33.22-.67.24-.3.35-.64.11-.34.22-.68.05-.36.16-.7.45-.23.56-.57-.28-.47-.17-.81-.02-.38.09-.72.45-.23.56-.57.1-.34.21-.69-.47-.53-.36-.87.55-.2.66-.54.25-.3.36-.64-.41-.51-.3-.85.48-.22.59-.56.28-.29.39-.63-.38-.5-.27-.84.35-.26.46-.61-.25-.46-.14-.79.89-.09,1-.42-.61-.57-.5-.91.09-.35.2-.68.07-.35.18-.69.47-.22.58-.56.16-.32.27-.66.3-.28.41-.62.24-.3.35-.64-.21-.44-.09-.78-.2-.44-.09-.79.05-.36.16-.71.81-.11.92-.46.01-.37.13-.71-.33-.48-.22-.83.45-.23.56-.57.25-.3.36-.64-.03-.39.08-.73-.17-.43-.06-.77.51-.21.62-.55-.04-.39.07-.73-.32-.48-.21-.82.64-.17.75-.51-.22-.45-.11-.79.05-.36.16-.7.37-.26.49-.6.03-.37.14-.71-.14-.42-.03-.77.02-.37.13-.71.43-.24.55-.58-.16-.43-.05-.77,0-.38.11-.72.15-.33.26-.67.18-.32.29-.66.73-.14.84-.48-.16-.43-.05-.77-.04-.39.08-.73.34-.27.45-.61-.12-.42,0-.76.48-.22.6-.57-.03-.39.09-.73-.1-.41.01-.75.11-.34.22-.68-.05-.39.07-.74.7-.15.81-.49-.08-.41.03-.75.19-.32.3-.66.15-.33.26-.67-.49-.54-.38-.88.49-.22.6-.56-.08-.4.03-.74.29-.28.4-.62.35-.26.46-.61-.17-.43-.06-.78.49-.22.61-.56-.36-.49-.24-.84.43-.24.55-.58-.38-.5-.26-.84.29-.29.4-.63-.1-.41.01-.76.51-.21.63-.56-.21-.45-.1-.79-.09-.41.03-.75.8-.12.91-.47-.36-.5-.25-.84.5-.22.61-.57-.23-.46-.12-.8.49-.22.6-.57.15-.43.04-.78-.2-.38-.49-.59-.6.21-.89,0,.09-.74-.2-.95-.31-.18-.6-.39-.36-.12-.65-.33-.44,0-.72-.22-.4-.05-.69-.26.08-.71-.21-.92-.45,0-.73-.2-.2-.33-.49-.54-.25-.27-.53-.48-.71.37-.99.16.14-.8-.15-1.01-.69.34-.97.13.11-.76-.18-.97-.58.2-.87-.01-.3-.19-.59-.4.03-.65-.26-.86-.31-.18-.6-.39-.24-.28-.53-.49-.68.33-.97.12-.3-.19-.59-.4-.03-.56-.32-.77-.35-.13-.64-.34-.08-.49-.37-.7-.38-.09-.67-.3-.28-.23-.57-.44-.44,0-.73-.22-.23-.3-.52-.51-.15-.41-.44-.62-.71.36-1,.15-.01-.6-.3-.81-.36-.11-.65-.32-.47.03-.76-.18-.2-.34-.49-.55-.17-.38-.46-.59-.53.12-.82-.09-.1-.47-.39-.68-.1-.47-.39-.68-.38-.08-.67-.29-.13-.43-.42-.64-.45,0-.74-.2-.36-.12-.65-.33-.16-.4-.45-.61-.27-.24-.56-.45-.53.11-.82-.1,0-.62-.29-.83-.68.32-.97.11-.23-.3-.52-.51-.02-.59-.31-.8-.39-.08-.68-.29-.26-.26-.55-.47-.61.22-.9.01.02-.65-.27-.86-.23-.3-.52-.51-.65.28-.94.07-.01-.6-.3-.81-.45,0-.74-.21-.15-.4-.44-.62-.48.05-.77-.16-.22-.31-.51-.52-.16-.4-.45-.61-.46.01-.75-.2,0-.61-.3-.82-.3-.19-.6-.41-.43-.01-.73-.22-.34-.14-.63-.35-.27-.24-.56-.45-.11-.45-.4-.66-.64.27-.93.06-.13-.43-.43-.64-.54.13-.84-.08-.07-.52-.36-.73-.17-.38-.46-.59-.37-.11-.66-.32-.51.09-.81-.13-.19-.36-.48-.57-.33-.17-.62-.38-.26-.26-.56-.47-.07-.52-.36-.73-.32-.17-.62-.38-.68.32-.97.11.06-.7-.24-.91-.32-.18-.62-.39-.62.11-.85-.18c-.28-.35-.06-.74-.42-.74Z"/>
        <path class="cls-2" d="M100.3,25.23c-.36,0-.44.19-.73.4s-.2.34-.49.55-.33.15-.62.36.01.63-.28.84-.43.02-.72.23-.22.3-.51.51-.24.27-.53.48-.24.27-.53.48-.73-.4-1.02-.19.1.74-.19.95-.3.19-.59.4-.21.32-.49.53-.46-.03-.75.18-.25.27-.53.47-.15.4-.43.61-.62-.25-.91-.04-.24.27-.53.48-.43.01-.72.22.07.7-.22.91-.32.17-.6.38-.56-.16-.85.05-.2.33-.49.54-.25.26-.54.47-.06.53-.35.74-.27.24-.56.45-.57-.17-.86.04-.04.56-.33.77-.51-.09-.8.13-.26.26-.55.47-.54-.13-.83.08.06.69-.23.91-.44.01-.73.22-.23.3-.52.51-.22.31-.51.52-.37.1-.66.31-.14.42-.43.63-.34.15-.63.36-.54-.13-.83.08-.16.39-.45.6-.27.24-.56.45-.57-.18-.86.03-.07.52-.36.73-.47-.03-.76.18.03.65-.27.86-.53-.12-.82.09-.04.56-.33.77-.46-.02-.75.2-.07.52-.36.73-.65-.29-.94-.07-.02.58-.31.79-.32.17-.61.38-.15.4-.44.61-.44,0-.73.21-.53-.12-.82.1-.23.3-.52.51-.41.05-.7.26-.26.25-.56.47-.34.14-.63.35-.23.3-.52.51.08.72-.21.94-.26.26-.55.47-.4.06-.7.27-.21.32-.5.54-.32.18-.61.39-.46-.02-.75.19-.07.52-.36.73-.44,0-.73.22-.59-.2-.88.01-.18.36-.47.58-.02.58-.31.8-.27.25-.56.46-.34.15-.63.36-.66-.29-.95-.08-.19.35-.48.56-.05.55-.34.76-.29.21-.59.43-.64-.27-.94-.06.02.64-.27.86-.37.1-.67.32-.42.03-.71.25-.41.06-.7.27-.06.53-.35.75-.11.47-.4.69-.44.01-.74.23-.24.29-.53.51-.2.07-.32.42-.02.14.09.48-.22.45-.11.79.57.19.68.53-.29.47-.18.81-.24.46-.13.8.68.16.79.5-.08.4.03.74-.27.46-.16.8.55.2.67.54.03.37.14.71.08.35.19.69-.12.42-.01.76.33.27.44.61.24.3.35.64-.1.41.01.75.35.26.46.61.29.28.4.62-.5.54-.39.87.14.33.25.67.32.27.43.61.11.34.22.68,0,.38.11.71.54.2.65.54-.21.44-.1.78-.05.39.06.73.6.18.71.52.09.35.2.69-.44.52-.33.86.32.28.43.62.26.29.38.63-.12.42,0,.76.63.17.74.52-.38.5-.26.84.25.3.36.64.05.36.16.7-.15.42-.04.76.72.14.83.48-.12.42-.01.76-.19.44-.08.78.2.31.31.65.35.26.47.6-.19.44-.08.78.42.24.53.58.08.35.19.69.3.28.41.62.27.29.38.63-.37.5-.26.84.27.29.38.63-.33.49-.22.83.9.08,1.01.43-.66.59-.55.93.31.28.42.62.59.19.7.53-.55.56-.44.9.61.18.72.52.08.35.19.7-.35.49-.24.84.77.13.88.47-.57.56-.46.91.36.26.47.6-.15.43-.04.77.14.33.25.68.43.24.54.58.33.27.44.62.05.36.16.71.21.31.33.65-.4.51-.29.85.29.28.4.62.55.2.66.54-.34.49-.23.83.12.34.23.68.29.29.4.63-.1.41,0,.76.6.18.71.53-.6.57-.49.92.58.19.69.54.21.31.32.65-.28.47-.17.81.13.34.24.68.16.33.27.67.32.28.43.62.44.24.55.58-.31.48-.2.83.22.31.33.66-.29.48-.18.82.22.43.52.65.4.14.76.14.36-.51.72-.51.36.46.72.46.36-.43.72-.43.36.45.72.45.36,0,.72,0,.36-.55.72-.55.36.06.72.06.36.09.72.09.36-.13.72-.13.36.54.72.54.36-.38.72-.38.36-.03.72-.03.36.61.72.61.36-.53.72-.53.36.07.72.07.36-.12.72-.12.36.04.72.04.36-.02.72-.02.36.3.72.3.36-.23.72-.23.36-.27.71-.27.36.53.71.53.36-.43.71-.43.36.59.71.59.36-.05.72-.05.36-.04.72-.04.36-.17.72-.17.36-.31.72-.31.36.63.72.63.36-.76.72-.76.36,0,.72,0,.36.51.72.51.36.18.72.18.36-.45.72-.45.36-.17.72-.17.36.05.71.05.36.57.71.57.36,0,.71,0,.36.05.72.05.36-.72.72-.72.36.29.72.29.36.37.72.37.36-.41.72-.41.36.09.72.09.36-.36.72-.36.36.36.72.36.36.37.72.37.36-.1.72-.1.36-.65.72-.65.36.64.72.64.36.03.72.03.36-.66.72-.66.36.58.72.58.36-.23.72-.23.36.09.72.09.36.15.72.15.36.21.72.21.36-.09.72-.09.36-.36.72-.36.36.29.72.29.36-.32.72-.32.36.2.72.2.36-.26.72-.26.36-.25.72-.25.36.69.72.69.36-.11.72-.11.36.18.72.18.36-.39.72-.39.36.31.72.31.36-.41.72-.41.36.42.72.42.36-.66.72-.66.36.4.72.4.36-.22.72-.22.36.02.72.02.36.15.72.15.36.39.72.39.36-.72.72-.72.36.72.72.72.36-.78.72-.78.36.42.72.42.36-.28.73-.28.36-.12.73-.12.36.43.73.43.42.13.72-.09.11-.33.22-.67.24-.3.35-.64.11-.34.22-.68.05-.36.16-.7.45-.23.56-.57-.28-.47-.17-.81-.02-.38.09-.72.45-.23.56-.57.1-.34.21-.69-.47-.53-.36-.87.55-.2.66-.54.25-.3.36-.64-.41-.51-.3-.85.48-.22.59-.56.28-.29.39-.63-.38-.5-.27-.84.35-.26.46-.61-.25-.46-.14-.79.89-.09,1-.42-.61-.57-.5-.91.09-.35.2-.68.07-.35.18-.69.47-.22.58-.56.16-.32.27-.66.3-.28.41-.62.24-.3.35-.64-.21-.44-.09-.78-.2-.44-.09-.79.05-.36.16-.71.81-.11.92-.46.01-.37.13-.71-.33-.48-.22-.83.45-.23.56-.57.25-.3.36-.64-.03-.39.08-.73-.17-.43-.06-.77.51-.21.62-.55-.04-.39.07-.73-.32-.48-.21-.82.64-.17.75-.51-.22-.45-.11-.79.05-.36.16-.7.37-.26.49-.6.03-.37.14-.71-.14-.42-.03-.77.02-.37.13-.71.43-.24.55-.58-.16-.43-.05-.77,0-.38.11-.72.15-.33.26-.67.18-.32.29-.66.73-.14.84-.48-.16-.43-.05-.77-.04-.39.08-.73.34-.27.45-.61-.12-.42,0-.76.48-.22.6-.57-.03-.39.09-.73-.1-.41.01-.75.11-.34.22-.68-.05-.39.07-.74.7-.15.81-.49-.08-.41.03-.75.19-.32.3-.66.15-.33.26-.67-.49-.54-.38-.88.49-.22.6-.56-.08-.4.03-.74.29-.28.4-.62.35-.26.46-.61-.17-.43-.06-.78.49-.22.61-.56-.36-.49-.24-.84.43-.24.55-.58-.38-.5-.26-.84.29-.29.4-.63-.1-.41.01-.76.51-.21.63-.56-.21-.45-.1-.79-.09-.41.03-.75.8-.12.91-.47-.36-.5-.25-.84.5-.22.61-.57-.23-.46-.12-.8.49-.22.6-.57.15-.43.04-.78-.2-.38-.49-.59-.6.21-.89,0,.09-.74-.2-.95-.31-.18-.6-.39-.36-.12-.65-.33-.44,0-.72-.22-.4-.05-.69-.26.08-.71-.21-.92-.45,0-.73-.2-.2-.33-.49-.54-.25-.27-.53-.48-.71.37-.99.16.14-.8-.15-1.01-.69.34-.97.13.11-.76-.18-.97-.58.2-.87-.01-.3-.19-.59-.4.03-.65-.26-.86-.31-.18-.6-.39-.24-.28-.53-.49-.68.33-.97.12-.3-.19-.59-.4-.03-.56-.32-.77-.35-.13-.64-.34-.08-.49-.37-.7-.38-.09-.67-.3-.28-.23-.57-.44-.44,0-.73-.22-.23-.3-.52-.51-.15-.41-.44-.62-.71.36-1,.15-.01-.6-.3-.81-.36-.11-.65-.32-.47.03-.76-.18-.2-.34-.49-.55-.17-.38-.46-.59-.53.12-.82-.09-.1-.47-.39-.68-.1-.47-.39-.68-.38-.08-.67-.29-.13-.43-.42-.64-.45,0-.74-.2-.36-.12-.65-.33-.16-.4-.45-.61-.27-.24-.56-.45-.53.11-.82-.1,0-.62-.29-.83-.68.32-.97.11-.23-.3-.52-.51-.02-.59-.31-.8-.39-.08-.68-.29-.26-.26-.55-.47-.61.22-.9.01.02-.65-.27-.86-.23-.3-.52-.51-.65.28-.94.07-.01-.6-.3-.81-.45,0-.74-.21-.15-.4-.44-.62-.48.05-.77-.16-.22-.31-.51-.52-.16-.4-.45-.61-.46.01-.75-.2,0-.61-.3-.82-.3-.19-.6-.41-.43-.01-.73-.22-.34-.14-.63-.35-.27-.24-.56-.45-.11-.45-.4-.66-.64.27-.93.06-.13-.43-.43-.64-.54.13-.84-.08-.07-.52-.36-.73-.17-.38-.46-.59-.37-.11-.66-.32-.51.09-.81-.13-.19-.36-.48-.57-.33-.17-.62-.38-.26-.26-.56-.47-.07-.52-.36-.73-.32-.17-.62-.38-.68.32-.97.11.06-.7-.24-.91-.32-.18-.62-.39-.62.11-.85-.18c-.28-.35-.06-.74-.42-.74Z"/>
      </g>
      <g>
        <path class="cls-9" d="M77.68,70c.07.33,0,.34.35.34s.34-.16.68-.16.34-.22.68-.22.34.23.68.23.34.22.69.22.44-.09.67-.35c.25-.28-.39-.36-.39-.74s.41-.37.41-.75.36-.38.36-.75-.33-.38-.33-.75-.32-.38-.32-.76-.18-.45-.12-.82c.02-.12.49.09.61.06.35-.08.32.08.68.08s.36-.23.72-.23.36.29.72.29.36-.31.72-.31.36-.38.72-.38.35.37.71.44c.13.03.02.02.05.15.07.37.17.34.17.72s-.31.37-.31.75.7.38.7.75-.67.38-.67.75.01.38.01.76-.2.69.08.95c.29.27.58.02.98.02s.4-.63.8-.63.4.3.8.3.59.53.59.13c0-.44-.1-.39-.5-.57s-.74.35-1.07.07c.14-.21.15-.81.28-1,.14-.21.48-.27.6-.47.13-.21.02-.55.14-.75s.64-.19.75-.4.49-.29.61-.5.04-.36.15-.59c.13-.1-.05-.15.11-.12.34.05.25.2.57.33s.48-.3.8-.17.39-.04.71.08.2.47.52.59.21.43.54.55.75-.63,1.02-.41c.13.1-.22.44-.24.6-.13.2-.08.46-.2.64-.13.19-.63.12-.76.3-.13.19-.16.44-.29.61-.13.19.09.62-.04.79s-.63.59-.77.77c.2.11.42-.71.64-.71.38,0,.39.71.78.7s.38-.14.76-.14.38.1.77.1.38,0,.77-.01.37-.71.76-.71.39.05.77.04.38.29.76.37c.16.03.02.03.05.18.07.4.08.36.06.77s-.08.4-.1.81-.28.4-.28.81c0,.38.03.38.03.76s.11.38.11.76c0,.36.47.34.49.7s.06.36.08.71-.6.39-.58.74.61.33.62.69-.04.36-.28.63c-.22.25-.23-.22-.56-.22s-.33,0-.67,0-.33.32-.67.32-.34.01-.67.01-.34-.35-.67-.35-.34-.1-.67-.1-.14.35-.38.12-.39-.03-.39-.37.09-.33.09-.67.17-.34.17-.67-.21-.34-.21-.67-.11-.34-.11-.67.3-.33.05-.56c-.26-.25-.25-.18-.61-.18s-.36.49-.72.49-.36-.61-.72-.61-.36.08-.72.08-.36-.16-.72-.16-.36-.08-.72-.08-.36.57-.72.57-.36-.25-.72-.25-.36-.05-.72-.05-.36.3-.72.3-.36-.47-.72-.47-.36.09-.72.09-.36.39-.72.39-.36-.33-.72-.33-.36-.19-.72-.19-.36.56-.72.56-.36.01-.72.01-.36-.02-.72-.02-.36-.33-.72-.33-.36,0-.72,0-.36.23-.72.23-.36-.14-.72-.14-.36,0-.72,0-.36-.13-.73-.13-.36.53-.73.53-.36-.32-.73-.32-.59-.49-.86-.25c-.25.23.3.48.3.81s-.5.33-.5.67.74.34.74.67-.33.34-.33.67.22.34.22.67.12.62-.14.85c-.29.25-.53-.41-.92-.41s-.38-.02-.76-.02-.38.29-.77.29-.38-.24-.77-.24-.39-.1-.77-.1-.61.7-.88.43c-.26-.25.49-.46.5-.81s-.28-.37-.27-.73-.29-.37-.28-.73-.15-.37-.13-.73.66-.34.66-.7-.23-.38-.23-.76.32-.38.31-.76c0-.4.07-.41.05-.82s-.19-.4-.2-.8-.01-.35.06-.75c.03-.16-.25-.3-.09-.34.37-.08.4-.25.78-.25s.38.03.77.03.37.49.76.5.39-.39.78-.39.38.23.77.24.38.32.77.33.39.11.77.11c.24,0,.18-.48.39-.6-.13-.19.12-.41,0-.59s-.83.06-.96-.11.12-.7-.02-.86c-.15-.18-.33-.33-.48-.49-.16-.17-.77-.15-.92-.3-.03-.16.29-.23.41-.34.27-.24.17-.44.5-.6s.44.06.77-.1.5.18.82.01.2-.42.52-.59.26-.33.6-.45c.15-.05.25-.27.41-.23.16.12.08.74.26.92.16.15.5.11.67.28.16.16.2.43.36.6s.31.33.45.51.35.3.49.48-.06.34.06.52c0,.16.27.07.15.16-.27.21-.21.26-.52.41s-.41-.05-.71.1-.12.72-.45.79c-.23.05-.41-.37-.34-.03ZM81.19,84.43c.26-.3.53-.18.53-.58s.08-.59-.19-.88-.46.19-.85.19-.39-.23-.77-.23-.38-.21-.75-.2-.36.36-.73.37-.36.39-.74.4-.38-.4-.76-.39-.38-.35-.76-.34-.37.42-.73.34c-.15-.03-.49.02-.52-.14-.08-.4-.12-.47-.11-.87s.61-.39.63-.79.09-.4.1-.81-.21-.41-.21-.82c0-.31.29-.31.29-.62s-.31-.31-.31-.62-.37-.3-.38-.61.43-.33.42-.66.08-.33.06-.65-.18-.32-.2-.64.21-.27.28-.58c.04-.15-.31-.64-.15-.68.38-.08.46.66.85.67s.38,0,.77,0,.39.01.77.02.39-.05.78-.04.4-.62.79-.62.38.31.77.31c.35,0,.35-.08.7-.08s.35.44.7.44.35-.5.7-.5.35-.08.7-.08.35.25.7.25.35-.27.7-.27.35.46.7.46.35.3.7.3.35-.09.7-.09.35-.08.7-.08.35.1.71.1c.39,0,.38-.45.76-.46s.38-.18.77-.19.39.36.78.35.39.31.78.31.37-.77.76-.78.39.35.77.43c.16.03.32-.03.36.13.07.35-.47.37-.48.72s.1.36.09.72.42.37.41.73-.63.34-.64.7c0,.4.76.41.76.81s-.72.41-.71.81.14.4.15.81-.1.41-.08.81.01.4.02.81.79.47.72.87c-.03.16-.36.42-.52.46-.35.08-.42-.39-.78-.4s-.36-.12-.71-.13-.36.09-.72.08-.36-.07-.72-.08-.36-.26-.72-.27-.37.02-.73.02c-.32,0-.32.11-.64.11s-.32.46-.64.46-.26-.29-.46-.04c-.25.31-.56.26-.56.66s.28.36.54.67c.22.26.18.28.53.28s.34.17.68.17.34,0,.68,0,.34-.32.68-.32.34-.01.68-.01.34.35.69.35.34.1.69.1.35.01.69,0,.33-.52.67-.53.34.08.68.07.34.16.68.15.34-.22.68-.22.34-.12.68-.13.34,0,.68-.01.34.13.67.21c.15.04.62-.08.65.08.08.38-.62.47-.63.86s.07.39.05.79-.17.39-.18.78-.1.4-.11.79c0,.34.56.34.57.67s-.24.33-.23.65-.04.33-.03.65.31.32.32.64-.46.34-.45.67.1.32.11.65c0,.26.4.51.38.73-.02.26-.38.45-.45.66-.07.24-.3.3-.45.48-.14.18.05.74-.18.87-.19.11-.45.24-.71.32-.21.07-.48.11-.73.16-.22.04-.51-.25-.77-.22-.22.03-.46.05-.71.07-.23.02-.45.26-.7.27-.23,0-.48-.12-.73-.12-.23,0-.47.01-.73.01-.38,0-.44-.19-.57-.51-.12-.34-.62-.16-.74-.49s.18-.45.06-.78.16-.44.04-.78-.46-.22-.58-.56.21-.35.25-.71c.31,0,.23-.43.46-.43.29,0,.54.32.8.31s.49-.24.78-.27c.26-.02.3.06.41-.04s.55-.1.55-.38c0-.36.02-.36.02-.71s-.29-.36-.29-.72.43-.61.18-.87-.51-.16-.87-.16-.36.47-.71.47-.36-.52-.71-.52-.36.3-.71.3-.36.31-.72.31-.36.17-.72.17-.36-.63-.72-.63-.47-.05-.71.23c-.27.31-.31.41-.31.83,0,.34-.08.35-.07.69s.18.34.19.68-.09.35-.08.69.38.33.38.68.27.34.27.68-.01.34,0,.69-.48.36-.47.7.41.34.42.68-.22.35-.21.7.05.22-.2.46-.13-.19-.49-.19-.36.62-.72.62-.36-.56-.71-.56-.36.69-.72.69-.36-.53-.72-.53-.36.02-.72.02-.68.66-.94.41.28-.57.29-.91-.31-.35-.3-.69.26-.34.27-.68.39-.33.4-.68-.28-.35-.28-.69-.12-.35-.12-.69-.23-.35-.22-.69.56-.33.56-.68-.26-.35-.25-.7.17-.34.17-.69c0-.42.23-.62-.05-.93-.25-.28-.48.04-.86.04s-.38-.33-.76-.33-.38.22-.76.22-.38.14-.76.14-.38-.22-.76-.22-.38.52-.76.52-.6-.66-.88-.41c-.25.22-.13.47-.13.81s.16.34.16.67-.08.34-.08.68c0,.36.53.34.54.7s-.22.37-.21.72.13.36.14.72.09.36.11.72.09.36.1.72-.39.21-.63.48c-.23.25-.06.54-.4.54s-.34-.03-.68-.03-.34.14-.68.14-.34-.3-.69-.3-.34.07-.69.07-.34.24-.69.24-.33-.27-.57-.52-.02-.24-.01-.6.25-.35.27-.71-.6-.38-.58-.74.06-.36.07-.72.47-.34.48-.71-.13-.37-.13-.73c0-.4-.06-.41-.06-.81s-.39-.41-.39-.81-.03-.4-.03-.81.46-.4.45-.79-.44-.38-.45-.77.36-.4.34-.8-.16-.41-.08-.8c.03-.16.22.18.37.14.33-.08.26-.58.6-.57s.33.25.67.26.34-.1.68-.1.34-.12.68-.11.34.14.68.15.35-.25.69-.25.34.09.68.09.35.42.69.42.35-.23.7-.23.35-.03.7-.03.35.48.7.48.35-.38.7-.38.34.29.69.3c.26.01.23-.24.46-.51ZM79.75,78.45c-.23.2-.49.04-.49.35s.16.3.16.61-.05.33.18.52c.27.23.28.2.64.2s.36.22.72.22.36-.35.72-.35.36-.38.72-.38.36.41.72.41.36.36.72.36.36-.33.72-.33.36-.32.71-.32.36-.13.72-.13.36.6.72.6.36.08.72.08.47,0,.74-.24c.23-.2.3-.33.3-.63s-.31-.3-.31-.61-.02-.13-.25-.33c-.27-.23-.12-.36-.48-.36s-.36-.09-.72-.09-.36.17-.72.17-.36-.31-.72-.31-.36.7-.72.7-.36-.67-.72-.67-.36.01-.72.01-.36,0-.71,0-.36.05-.72.05-.36.63-.72.63-.36-.31-.72-.3c-.29,0-.23-.1-.51.13Z"/>
        <path class="cls-9" d="M113.36,66.72c.33-.07.31.35.65.36s.34.01.67.02.36-.54.69-.53.33.34.67.36.35-.23.69-.22.33.22.67.23.35-.19.68-.1c.15.04.48-.08.55.07,0,.25-.72.64-.73.88s.07.5.06.74.3.5.29.75-.07.49-.07.74.27.5.27.75-.38.48-.39.72-.26.48-.27.73.18.5.17.74.19.5.18.75-.32.47-.34.71.39.53.37.77-.37.48-.4.72c.07.23.43.39.51.61s.38.37.46.59-.08.54,0,.75.33.38.42.59-.23.62-.14.84.67.21.78.42-.45.76-.34.97.67.18.79.39-.04.58.08.78.27.4.4.6.25.42.38.61.47.25.61.44.09.53.24.72.17.48.33.67.48.22.64.4.6.08.77.25-.05.73.12.89.78-.14.96.02-.07.8.11.95.7-.1.88.05.14.59.33.73.65-.08.84.06.3.38.5.51.52.06.72.19.07.76.27.89.59-.06.8.07.2.59.4.71.46.16.67.27.62-.14.83-.03.24.46.46.58c-.11.34-.21.26-.43.55s-.19.3-.41.59-.29.22-.51.51-.39.15-.61.43-.09.38-.31.66.12.54-.1.83-.31.22-.53.5c-.1.13-.33,0-.46,0s-.14-.24-.33-.34c-.21-.11-.58.08-.79-.04s-.42-.24-.62-.36-.6.05-.8-.08-.19-.59-.39-.72-.39-.28-.58-.42-.55-.06-.74-.2-.11-.64-.3-.79-.6-.02-.78-.18-.45-.22-.63-.38-.38-.31-.56-.47-.26-.43-.43-.6-.24-.44-.41-.61-.56-.14-.72-.32-.14-.52-.29-.7-.26-.41-.41-.6-.56-.18-.7-.37-.28-.4-.42-.6-.04-.56-.17-.76.16-.66.03-.87-.9-.02-1.02-.22.03-.57-.08-.78.12-.6.01-.81-.57-.25-.67-.46-.15-.13-.24-.35c-.08.23.05.23-.04.46s-.25.44-.35.66-.05.53-.16.75-.22.45-.33.67-.22.46-.34.67-.37.36-.5.57-.69.13-.83.33-.17.47-.32.67-.18.47-.34.67-.32.37-.48.56-.19.49-.35.67-.54.17-.71.34-.48.2-.66.37.03.74-.15.91-.46.23-.64.39-.32.39-.51.55-.7-.1-.9.04-.28.43-.48.57-.37.32-.57.46-.21.59-.41.72-.42.27-.63.39-.48.17-.69.29-.72-.3-.94-.19-.15.81-.37.92c-.16.06-.38-.11-.51-.11-.1,0-.13-.11-.25-.2-.24-.25-.43-.07-.65-.32s0-.45-.24-.71-.6.08-.83-.17-.1-.37-.33-.62.08-.53-.15-.79-.36-.15-.58-.4-.27-.21-.39-.53c.22-.1.2-.5.42-.61s.76.42.98.31.3-.49.51-.61.4-.29.61-.41.48-.16.68-.29.35-.37.55-.5.5-.14.7-.28.16-.61.35-.76.79.22.98.07.05-.72.23-.88.44-.24.62-.41.16-.53.33-.7.78.07.95-.11-.04-.69.11-.88.55-.19.69-.38.46-.28.6-.48.2-.47.33-.67.02-.56.14-.77.3-.39.41-.61.44-.34.54-.56-.4-.7-.3-.92.57-.3.65-.53.02-.5.09-.74.14-.46.2-.7c.06-.23.18-.44.23-.68s.3-.42.35-.67.05-.48.1-.72.37-.43.4-.67.03-.48.06-.73-.65-.56-.63-.81.4-.43.43-.68.43-.44.45-.69-.1-.49-.08-.74.07-.48.08-.72-.63-.51-.62-.75.25-.47.26-.71.14-.47.15-.72-.24-.48-.24-.73.35-.48.35-.73c0-.21.12-.43.12-.65s.16-.43.16-.65-.62-.48-.62-.7c.03-.15.34-.08.49-.12Z"/>
      </g>
      <g>
        <g>
          <g>
            <path class="cls-8" d="M128.63,54.06c-.11-.41-.39-.69-.59-.96-.29-.41-.59-.88-.88-.8s-.65.62-.68,1.12c-.02.33.08.79.19,1.2s.5.68.69.96c.29.41.61.76.9.68s.29-.56.33-1.05c.02-.33.15-.72.04-1.13Z"/>
            <path class="cls-5" d="M128.63,54.06c-.11-.41-.39-.69-.59-.96-.29-.41-.59-.88-.88-.8s-.65.62-.68,1.12c-.02.33.08.79.19,1.2s.5.68.69.96c.29.41.61.76.9.68s.29-.56.33-1.05c.02-.33.15-.72.04-1.13Z"/>
          </g>
          <g>
            <path class="cls-8" d="M131.95,35.78c.11.39.22.78.31,1.17s.03.82.09,1.21.24.79.27,1.18-.06.82-.05,1.21-.21.8-.21,1.2.06.8.02,1.2.22.84.16,1.23-.32.77-.4,1.15-.14.79-.25,1.18-.28.76-.41,1.13-.19.79-.35,1.16-.53.63-.72.98-.16.84-.37,1.18-.52.63-.76.94-.61.53-.88.83-.51.57-.81.84c-.39-.08-.75-.14-1.14-.26s-.78-.19-1.16-.33-.71-.38-1.07-.55-.82-.17-1.17-.37-.49-.71-.82-.94-.81-.25-1.13-.5-.62-.51-.92-.79-.54-.6-.82-.89-.44-.68-.7-.99-.66-.5-.9-.83-.32-.75-.53-1.09-.43-.67-.63-1.03-.28-.75-.45-1.12-.43-.68-.58-1.06-.12-.8-.25-1.19-.44-.7-.54-1.09c-.12-.42-.26-.82-.32-1.21-.06-.43,0-.85-.01-1.25,0-.43-.24-.87-.19-1.27s.31-.81.41-1.21.24-.8.38-1.19.23-.81.39-1.19.51-.68.69-1.06.43-.71.61-1.08.2-.83.38-1.2.38-.74.55-1.12.28-.78.42-1.17.25-.78.36-1.19.15-.8.22-1.22.19-.79.22-1.22-.01-.94-.03-1.37c.39.08.9.29,1.29.4s.8.14,1.18.29.61.59.97.76.77.24,1.11.45.6.52.94.75.64.45.96.71.55.56.84.84.63.49.9.78.71.43.97.75.36.73.6,1.06.5.62.72.96.27.76.47,1.11.39.69.57,1.05.56.62.71,1,.28.75.41,1.14.32.75.42,1.14Z"/>
            <path class="cls-5" d="M131.95,35.78c.11.39.22.78.31,1.17s.03.82.09,1.21.24.79.27,1.18-.06.82-.05,1.21-.21.8-.21,1.2.06.8.02,1.2.22.84.16,1.23-.32.77-.4,1.15-.14.79-.25,1.18-.28.76-.41,1.13-.19.79-.35,1.16-.53.63-.72.98-.16.84-.37,1.18-.52.63-.76.94-.61.53-.88.83-.51.57-.81.84c-.39-.08-.75-.14-1.14-.26s-.78-.19-1.16-.33-.71-.38-1.07-.55-.82-.17-1.17-.37-.49-.71-.82-.94-.81-.25-1.13-.5-.62-.51-.92-.79-.54-.6-.82-.89-.44-.68-.7-.99-.66-.5-.9-.83-.32-.75-.53-1.09-.43-.67-.63-1.03-.28-.75-.45-1.12-.43-.68-.58-1.06-.12-.8-.25-1.19-.44-.7-.54-1.09c-.12-.42-.26-.82-.32-1.21-.06-.43,0-.85-.01-1.25,0-.43-.24-.87-.19-1.27s.31-.81.41-1.21.24-.8.38-1.19.23-.81.39-1.19.51-.68.69-1.06.43-.71.61-1.08.2-.83.38-1.2.38-.74.55-1.12.28-.78.42-1.17.25-.78.36-1.19.15-.8.22-1.22.19-.79.22-1.22-.01-.94-.03-1.37c.39.08.9.29,1.29.4s.8.14,1.18.29.61.59.97.76.77.24,1.11.45.6.52.94.75.64.45.96.71.55.56.84.84.63.49.9.78.71.43.97.75.36.73.6,1.06.5.62.72.96.27.76.47,1.11.39.69.57,1.05.56.62.71,1,.28.75.41,1.14.32.75.42,1.14Z"/>
          </g>
          <g>
            <path class="cls-8" d="M126.69,50.62c-.02-.62.01-.45-.03-1.24-.02-.35-.31-.74-.35-1.21-.03-.37-.11-.78-.15-1.22-.03-.39-.14-.79-.19-1.22-.04-.39.24-.84.2-1.26-.05-.4-.23-.79-.28-1.21s-.11-.81-.17-1.22-.29-.78-.35-1.19-.19-.8-.26-1.21.1-.85.02-1.26-.32-.77-.41-1.18-.21-.79-.31-1.2-.11-.82-.21-1.22-.22-.79-.33-1.19.03-.87-.09-1.27-.3-.78-.43-1.17-.43-.73-.58-1.11-.14-.84-.3-1.21-.59-.64-.77-1.01-.09-.88-.29-1.24"/>
            <path class="cls-4" d="M126.69,50.62c-.02-.62.01-.45-.03-1.24-.02-.35-.31-.74-.35-1.21-.03-.37-.11-.78-.15-1.22-.03-.39-.14-.79-.19-1.22-.04-.39.24-.84.2-1.26-.05-.4-.23-.79-.28-1.21s-.11-.81-.17-1.22-.29-.78-.35-1.19-.19-.8-.26-1.21.1-.85.02-1.26-.32-.77-.41-1.18-.21-.79-.31-1.2-.11-.82-.21-1.22-.22-.79-.33-1.19.03-.87-.09-1.27-.3-.78-.43-1.17-.43-.73-.58-1.11-.14-.84-.3-1.21-.59-.64-.77-1.01-.09-.88-.29-1.24"/>
          </g>
          <path class="cls-4" d="M120.61,45.14c.56.16.54.23,1.1.39s.62-.05,1.18.11.52.31,1.08.46.62-.04,1.18.11.45.49,1.01.31c.66-.21.49-.36.98-.85s.59-.39,1.08-.88.36-.62.85-1.11"/>
          <path class="cls-4" d="M118.82,39.25c.54.15.59-.04,1.13.11s.53.18,1.06.33.58,0,1.12.15.54.16,1.07.31.53.2,1.07.35.46.46,1,.29c.58-.19.39-.36.78-.82s.41-.45.8-.91.39-.46.79-.93"/>
          <path class="cls-4" d="M120.3,33.73c.65.19.63.25,1.28.44s.64.21,1.29.4.74.71,1.35.43c.68-.31.35-.73.72-1.38s.19-.75.56-1.4"/>
        </g>
        <g>
          <g>
            <path class="cls-8" d="M124.29,61.94c.36-.34.68-.74,1.05-.9.54-.24.92.03,1.16.29s.13.46-.14.99c-.18.35-.37.7-.73,1.04s-.58.82-.95.98c-.54.24-.97.11-1.22-.15s-.45-.75-.18-1.27c.18-.35.64-.63,1-.97Z"/>
            <path class="cls-1" d="M124.29,61.94c.36-.34.68-.74,1.05-.9.54-.24.92.03,1.16.29s.13.46-.14.99c-.18.35-.37.7-.73,1.04s-.58.82-.95.98c-.54.24-.97.11-1.22-.15s-.45-.75-.18-1.27c.18-.35.64-.63,1-.97Z"/>
          </g>
          <g>
            <path class="cls-8" d="M132.36,41.53c-.35.33-.67.67-.99,1.01s-.76.59-1.07.95-.49.82-.77,1.2-.69.68-.95,1.07-.75.67-.98,1.08-.38.89-.59,1.32-.09,1.01-.28,1.44-.57.8-.72,1.25-.25.92-.37,1.38-.29.91-.39,1.38-.05.96-.11,1.43-.36.93-.38,1.4.3.96.31,1.43-.05.95,0,1.42-.04.97.05,1.44.24.97.37,1.43c.45.16.95.28,1.42.4s.94.15,1.41.23.93.23,1.41.27.95-.21,1.43-.21.96.4,1.44.37.91-.41,1.39-.47.93-.16,1.39-.25.93-.14,1.4-.27.95-.13,1.41-.29.8-.56,1.24-.74.95-.2,1.38-.41.83-.46,1.25-.69.89-.38,1.29-.64.72-.64,1.1-.92.89-.41,1.26-.72.57-.8.92-1.13c.37-.35.66-.75.96-1.12.33-.39.7-.73.95-1.13.27-.43.22-.99.42-1.43s.58-.82.73-1.29.29-.94.39-1.42.1-.98.17-1.47.34-.95.38-1.45.17-.97.22-1.46-.14-1-.1-1.49.13-.98.2-1.47.08-.99.18-1.47.17-.98.31-1.46.22-.97.4-1.44.45-.88.68-1.33.34-.76.62-1.19c-.45-.16-.71-.33-1.17-.45s-.94-.09-1.42-.17-.9-.5-1.37-.54-.96.1-1.44.1-.96-.14-1.44-.11-.96.09-1.43.16-.97.06-1.44.16-.92.31-1.38.44-.83.54-1.28.7-.96.14-1.4.33-.84.44-1.27.66-.94.27-1.36.51-.81.52-1.21.78-.62.78-1,1.06-.76.57-1.12.88-.66.68-1.01,1.01Z"/>
            <path class="cls-1" d="M132.36,41.53c-.35.33-.67.67-.99,1.01s-.76.59-1.07.95-.49.82-.77,1.2-.69.68-.95,1.07-.75.67-.98,1.08-.38.89-.59,1.32-.09,1.01-.28,1.44-.57.8-.72,1.25-.25.92-.37,1.38-.29.91-.39,1.38-.05.96-.11,1.43-.36.93-.38,1.4.3.96.31,1.43-.05.95,0,1.42-.04.97.05,1.44.24.97.37,1.43c.45.16.95.28,1.42.4s.94.15,1.41.23.93.23,1.41.27.95-.21,1.43-.21.96.4,1.44.37.91-.41,1.39-.47.93-.16,1.39-.25.93-.14,1.4-.27.95-.13,1.41-.29.8-.56,1.24-.74.95-.2,1.38-.41.83-.46,1.25-.69.89-.38,1.29-.64.72-.64,1.1-.92.89-.41,1.26-.72.57-.8.92-1.13c.37-.35.66-.75.96-1.12.33-.39.7-.73.95-1.13.27-.43.22-.99.42-1.43s.58-.82.73-1.29.29-.94.39-1.42.1-.98.17-1.47.34-.95.38-1.45.17-.97.22-1.46-.14-1-.1-1.49.13-.98.2-1.47.08-.99.18-1.47.17-.98.31-1.46.22-.97.4-1.44.45-.88.68-1.33.34-.76.62-1.19c-.45-.16-.71-.33-1.17-.45s-.94-.09-1.42-.17-.9-.5-1.37-.54-.96.1-1.44.1-.96-.14-1.44-.11-.96.09-1.43.16-.97.06-1.44.16-.92.31-1.38.44-.83.54-1.28.7-.96.14-1.4.33-.84.44-1.27.66-.94.27-1.36.51-.81.52-1.21.78-.62.78-1,1.06-.76.57-1.12.88-.66.68-1.01,1.01Z"/>
          </g>
          <g>
            <path class="cls-8" d="M128.7,59.82c.4-.62.32-.42.85-1.19.23-.34.26-.92.58-1.38.26-.36.5-.79.81-1.22.27-.37.5-.82.81-1.23.28-.37.89-.52,1.2-.92.29-.37.46-.86.78-1.25s.6-.75.92-1.14.46-.88.78-1.26.58-.79.9-1.16.86-.54,1.19-.91.51-.86.84-1.22.64-.75.98-1.1.75-.64,1.1-.98.69-.7,1.05-1.03.94-.43,1.3-.76.7-.69,1.07-1,.63-.78,1.01-1.08.9-.44,1.3-.72.61-.85,1.02-1.11,1.03-.22,1.44-.46"/>
            <path class="cls-6" d="M128.7,59.82c.4-.62.32-.42.85-1.19.23-.34.26-.92.58-1.38.26-.36.5-.79.81-1.22.27-.37.5-.82.81-1.23.28-.37.89-.52,1.2-.92.29-.37.46-.86.78-1.25s.6-.75.92-1.14.46-.88.78-1.26.58-.79.9-1.16.86-.54,1.19-.91.51-.86.84-1.22.64-.75.98-1.1.75-.64,1.1-.98.69-.7,1.05-1.03.94-.43,1.3-.76.7-.69,1.07-1,.63-.78,1.01-1.08.9-.44,1.3-.72.61-.85,1.02-1.11,1.03-.22,1.44-.46"/>
          </g>
          <path class="cls-6" d="M137.89,57.78c-.67-.18-.64-.28-1.31-.46s-.73.06-1.4-.12-.62-.36-1.28-.55-.73.06-1.4-.13-1,.08-1.45-.44c-.54-.62-.12-.93-.32-1.73s-.03-.84-.23-1.64-.42-.75-.61-1.55"/>
          <path class="cls-6" d="M143.41,52.59c-.64-.18-.7.04-1.34-.13s-.63-.21-1.27-.39-.69,0-1.33-.17-.64-.19-1.28-.37-.63-.23-1.27-.41-.95.11-1.38-.39c-.47-.55-.06-.82-.18-1.53s-.09-.72-.21-1.43-.12-.71-.24-1.42"/>
          <path class="cls-6" d="M145.2,46.46c-.78-.21-.76-.28-1.53-.49s-.77-.23-1.55-.44-1.01.23-1.47-.44c-.5-.73-.04-.82-.01-1.71s-.21-.89-.18-1.78"/>
        </g>
      </g>
    </g>
  </g>
</svg>