<?xml version="1.0" encoding="UTF-8"?>
<svg id="_レイヤー_2" data-name="レイヤー 2" xmlns="http://www.w3.org/2000/svg" viewBox="0 0 200 150">
  <defs>
    <style>
      .cls-1 {
        stroke-width: 3px;
      }

      .cls-1, .cls-2 {
        stroke: #a6519b;
        stroke-miterlimit: 10;
      }

      .cls-1, .cls-2, .cls-3 {
        fill: none;
      }

      .cls-2 {
        stroke-width: 6px;
      }

      .cls-3, .cls-4, .cls-5 {
        stroke-width: 0px;
      }

      .cls-4 {
        fill: #582459;
      }

      .cls-5 {
        fill: #fff;
      }
    </style>
  </defs>
  <g id="_超人" data-name="超人">
    <rect class="cls-3" width="200" height="150"/>
    <g>
      <g>
        <path class="cls-4" d="M100.04,25c-.36,0-.18.73-.47.94s-.36.12-.65.33-.09.48-.38.7-.72-.38-1.01-.17-.07.51-.36.72-.09.48-.38.69-.38.09-.67.3-.47-.04-.76.17-.41.04-.7.25-.23.28-.52.49-.41.04-.7.25.05.68-.23.89-.5-.09-.79.12-.3.19-.59.4-.22.3-.51.51-.2.33-.49.54-.23.29-.52.5-.17.37-.46.58-.43,0-.72.22-.36.1-.65.31-.2.33-.49.54-.35.12-.64.33-.24.28-.53.49-.22.31-.51.52-.65-.29-.94-.08-.05.54-.34.75-.12.44-.41.65-.56-.15-.85.06-.12.45-.41.66-.43.02-.72.24-.2.34-.49.55-.55-.15-.84.06-.24.29-.53.5-.3.2-.59.41.07.71-.22.92-.61-.23-.9-.02.04.67-.25.88-.68-.33-.97-.12-.05.54-.34.75-.29.21-.58.42-.52-.11-.81.1-.31.18-.6.39-.03.57-.32.78-.33.16-.62.37-.46-.02-.75.19-.26.26-.55.47-.33.17-.62.38.08.72-.21.93-.47-.04-.76.18-.55-.14-.84.07-.32.17-.61.38-.16.39-.45.6.04.66-.25.88-.53-.12-.82.09-.2.34-.49.55-.4.06-.69.27-.1.47-.4.68-.42.03-.72.24-.11.46-.4.67-.4.07-.69.28-.15.4-.45.61-.63-.25-.92-.04-.38.09-.67.31.03.66-.26.87-.42.03-.72.24-.45,0-.74.21-.13.43-.42.64-.11.46-.4.67-.65-.28-.94-.07-.16.39-.45.6-.17.38-.46.6-.22.32-.51.53-.59-.2-.88.01-.11.46-.4.68-.25.27-.54.48-.38.1-.67.31-.24.28-.54.49-.27.24-.57.45-.35.14-.64.36-.42.04-.71.25-.32.17-.62.39,0,.62-.29.83-.43.03-.72.25-.18.37-.48.58-.49-.06-.79.16-.63.12-.75.47.17.48.28.82.43.24.54.58-.31.48-.2.82.25.29.37.64.64.17.75.51-.47.53-.35.87.66.16.77.5-.36.5-.25.84.32.27.43.61.07.36.18.7-.02.38.1.72-.11.41,0,.75.59.18.7.53-.17.43-.06.77.15.33.26.67.3.28.41.62,0,.38.12.72.06.35.17.69.32.27.43.61-.05.39.06.73.3.28.41.62-.38.5-.27.84.7.15.81.49-.03.38.08.72-.21.44-.1.78.13.33.24.67.54.2.65.54-.12.42-.01.76.29.29.4.63-.55.56-.44.9.88.09.99.43-.61.57-.5.92.27.29.38.63-.05.39.06.73.66.16.77.5-.13.42-.02.76-.13.42-.02.76.01.37.12.71.58.19.7.53.4.25.51.59-.1.41.01.75.23.3.34.64.22.3.34.65-.13.42-.02.76-.38.5-.27.84.61.18.72.52.16.33.27.67-.1.41,0,.75.48.22.59.56-.6.57-.49.92.46.23.57.57-.21.45-.1.79.22.31.33.65.48.22.59.56-.08.41.03.75.31.28.42.62.13.34.24.68-.45.53-.34.87.36.26.47.6.04.37.15.71.02.37.13.72.49.22.6.56.11.34.22.69.31.28.43.62-.4.51-.29.85.64.17.75.51-.32.48-.21.82.16.32.27.66.38.25.49.6-.42.51-.31.85.43.24.54.58.45.23.56.58.05.36.16.71.02.37.13.71-.13.42-.02.77.19.32.31.66.03.37.14.72.53.21.64.55-.04.39.07.74.3.28.41.63-.3.48-.19.82.35.27.46.61-.25.46-.14.81.07.36.18.71.36.27.47.61-.2.65.1.86.48.22.84.22.36.02.72.02.36-.41.72-.41.36-.12.72-.12.36.42.72.42.36-.08.72-.08.36-.52.72-.52.36.62.72.62.36-.37.72-.37.36-.17.72-.17.36.23.72.23.36.4.72.4.36-.58.72-.58.36.08.72.08.36.19.72.19.36-.3.72-.3.36.1.72.1.36.25.72.25.36.15.72.15.36-.59.72-.59.36.03.72.03.36.61.71.61.36-.57.71-.57.36.44.71.44.36-.16.71-.16.36-.06.72-.06.36.14.72.14.36.03.72.03.36-.57.72-.57.36.07.72.07.36.29.72.29.36.11.72.11.36.2.72.2.36-.49.72-.49.36.28.72.28.36-.02.72-.02.36.18.71.18.36-.06.71-.06.36.29.71.29.36-.55.72-.55.36-.26.72-.26.36.23.72.23.36.12.72.12.36.14.72.14.36-.49.72-.49.36.21.72.21.36.32.72.32.36-.38.72-.38.36.68.72.68.36-.2.72-.2.36.14.72.14.36.02.72.02.36-.64.72-.64.36.45.72.45.36-.55.72-.55.36.41.72.41.36-.36.72-.36.36.45.72.45.36.23.72.23.36-.42.72-.42.36-.19.72-.19.36.44.72.44.36-.42.72-.42.36.61.72.61.36-.04.72-.04.36-.42.72-.42.36.26.72.26.36-.24.72-.24.36-.13.72-.13.36.42.72.42.36-.56.72-.56.36.38.72.38.36-.06.72-.06.36.41.72.41.36-.58.72-.58.36.08.72.08.36.23.72.23.36.01.72.01.36.12.72.12.36-.03.72-.03.36.11.72.11.36-.74.72-.74.36.23.73.23.36,0,.73,0,.36-.24.73-.24.32.43.62.22-.08-.29.03-.63.52-.21.63-.55-.01-.38.1-.72.5-.21.61-.55-.53-.55-.41-.89,0-.37.12-.72.13-.33.24-.68.55-.2.66-.54-.27-.46-.15-.8.63-.17.74-.51-.16-.43-.05-.77.09-.35.2-.69.12-.34.23-.68.03-.37.14-.71.13-.34.24-.68.15-.33.26-.67.44-.24.55-.58.26-.29.37-.63-.3-.47-.19-.81.06-.36.17-.69.54-.2.65-.54-.6-.57-.49-.91.82-.11.93-.45-.6-.57-.48-.91.26-.29.37-.63.59-.18.7-.52-.53-.55-.42-.89.63-.17.74-.51-.41-.51-.3-.85.18-.32.3-.66.03-.37.14-.71.75-.13.87-.47.21-.31.32-.65-.05-.39.06-.73-.17-.43-.06-.77-.04-.39.07-.73.12-.34.23-.68.13-.33.24-.67.02-.37.13-.71.48-.22.6-.56-.37-.5-.26-.84.67-.16.78-.5.33-.27.44-.61-.19-.44-.08-.78-.21-.45-.1-.79.44-.24.55-.58.08-.35.19-.7.26-.29.37-.64.22-.31.33-.65.03-.37.14-.71.26-.29.38-.63-.54-.55-.43-.89.17-.32.28-.66.24-.3.35-.64,0-.38.11-.72.48-.22.59-.57-.07-.4.04-.74.34-.27.45-.61-.1-.41.01-.75-.15-.43-.04-.77.03-.37.14-.71.33-.27.44-.61-.04-.39.08-.73.45-.23.56-.58.21-.31.32-.65-.08-.4.04-.75-.21-.45-.1-.79.67-.16.78-.5-.46-.53-.35-.87.08-.35.19-.69.78-.13.89-.47-.14-.43-.03-.77-.13-.42-.02-.77.72-.14.83-.49-.43-.52-.32-.86.44-.24.55-.58,0-.38.12-.72.34-.27.45-.61-.26-.47-.15-.81-.21-.45-.1-.79.75-.14.86-.48.1-.35.22-.69-.32-.49-.21-.83.12-.34.23-.69.04-.37.15-.72.57-.24.46-.59-.01-.55-.3-.76-.31-.19-.6-.4-.38-.09-.67-.3-.3-.2-.59-.41-.24-.28-.53-.49-.42-.02-.71-.23-.28-.22-.57-.43-.46.03-.75-.18-.2-.32-.49-.53-.12-.44-.41-.65-.59.21-.88,0-.35-.13-.63-.34.19-.87-.1-1.08-.59.21-.88,0-.12-.43-.41-.64-.37-.09-.66-.3-.32-.16-.61-.37-.4-.05-.69-.26.03-.64-.26-.85-.36-.12-.64-.33-.3-.19-.59-.4-.6.21-.89,0-.17-.38-.45-.59-.44,0-.72-.22-.17-.37-.46-.58-.23-.3-.52-.51-.18-.37-.47-.58-.28-.23-.57-.44-.6.22-.9,0-.19-.35-.49-.56.02-.63-.28-.85-.44,0-.73-.22-.42-.04-.71-.25-.4-.06-.69-.28.14-.8-.15-1.01-.39-.07-.68-.28-.17-.37-.46-.58-.58.18-.87-.03-.08-.5-.37-.71-.57.17-.86-.04-.17-.38-.46-.59-.32-.18-.61-.39-.23-.3-.52-.51-.41-.05-.7-.26,0-.62-.28-.83-.63.26-.92.05-.29-.21-.58-.43-.35-.13-.64-.34-.34-.15-.63-.36-.1-.48-.39-.69-.27-.24-.56-.45-.2-.33-.5-.54-.29-.22-.58-.43-.42-.03-.71-.25-.41-.05-.7-.27-.31-.19-.6-.4-.21-.33-.5-.54-.44-.02-.73-.23.19-.87-.1-1.09-.44,0-.73-.22-.48.05-.77-.16-.42-.03-.71-.24-.1-.48-.39-.69-.42-.03-.72-.24-.26-.25-.55-.46-.22-.31-.51-.52-.28-.23-.57-.44-.33-.15-.62-.36-.41-.05-.7-.26-.03-.57-.32-.78-.56.15-.85-.06-.29-.22-.58-.43-.3-.2-.6-.41.1-.75-.2-.96-.22-.31-.52-.52-.71.36-1,.15-.28-.23-.57-.45-.29-.22-.58-.43-.38-.09-.67-.31-.04-.56-.33-.77-.25-.27-.55-.48-.13-.44-.42-.65-.59.19-.88-.02-.32-.18-.62-.39-.54-.1-.75-.4c-.29-.43.04-.96-.32-.96Z"/>
        <path class="cls-2" d="M100.04,25c-.36,0-.18.73-.47.94s-.36.12-.65.33-.09.48-.38.7-.72-.38-1.01-.17-.07.51-.36.72-.09.48-.38.69-.38.09-.67.3-.47-.04-.76.17-.41.04-.7.25-.23.28-.52.49-.41.04-.7.25.05.68-.23.89-.5-.09-.79.12-.3.19-.59.4-.22.3-.51.51-.2.33-.49.54-.23.29-.52.5-.17.37-.46.58-.43,0-.72.22-.36.1-.65.31-.2.33-.49.54-.35.12-.64.33-.24.28-.53.49-.22.31-.51.52-.65-.29-.94-.08-.05.54-.34.75-.12.44-.41.65-.56-.15-.85.06-.12.45-.41.66-.43.02-.72.24-.2.34-.49.55-.55-.15-.84.06-.24.29-.53.5-.3.2-.59.41.07.71-.22.92-.61-.23-.9-.02.04.67-.25.88-.68-.33-.97-.12-.05.54-.34.75-.29.21-.58.42-.52-.11-.81.1-.31.18-.6.39-.03.57-.32.78-.33.16-.62.37-.46-.02-.75.19-.26.26-.55.47-.33.17-.62.38.08.72-.21.93-.47-.04-.76.18-.55-.14-.84.07-.32.17-.61.38-.16.39-.45.6.04.66-.25.88-.53-.12-.82.09-.2.34-.49.55-.4.06-.69.27-.1.47-.4.68-.42.03-.72.24-.11.46-.4.67-.4.07-.69.28-.15.4-.45.61-.63-.25-.92-.04-.38.09-.67.31.03.66-.26.87-.42.03-.72.24-.45,0-.74.21-.13.43-.42.64-.11.46-.4.67-.65-.28-.94-.07-.16.39-.45.6-.17.38-.46.6-.22.32-.51.53-.59-.2-.88.01-.11.46-.4.68-.25.27-.54.48-.38.1-.67.31-.24.28-.54.49-.27.24-.57.45-.35.14-.64.36-.42.04-.71.25-.32.17-.62.39,0,.62-.29.83-.43.03-.72.25-.18.37-.48.58-.49-.06-.79.16-.63.12-.75.47.17.48.28.82.43.24.54.58-.31.48-.2.82.25.29.37.64.64.17.75.51-.47.53-.35.87.66.16.77.5-.36.5-.25.84.32.27.43.61.07.36.18.7-.02.38.1.72-.11.41,0,.75.59.18.7.53-.17.43-.06.77.15.33.26.67.3.28.41.62,0,.38.12.72.06.35.17.69.32.27.43.61-.05.39.06.73.3.28.41.62-.38.5-.27.84.7.15.81.49-.03.38.08.72-.21.44-.1.78.13.33.24.67.54.2.65.54-.12.42-.01.76.29.29.4.63-.55.56-.44.9.88.09.99.43-.61.57-.5.92.27.29.38.63-.05.39.06.73.66.16.77.5-.13.42-.02.76-.13.42-.02.76.01.37.12.71.58.19.7.53.4.25.51.59-.1.41.01.75.23.3.34.64.22.3.34.65-.13.42-.02.76-.38.5-.27.84.61.18.72.52.16.33.27.67-.1.41,0,.75.48.22.59.56-.6.57-.49.92.46.23.57.57-.21.45-.1.79.22.31.33.65.48.22.59.56-.08.41.03.75.31.28.42.62.13.34.24.68-.45.53-.34.87.36.26.47.6.04.37.15.71.02.37.13.72.49.22.6.56.11.34.22.69.31.28.43.62-.4.51-.29.85.64.17.75.51-.32.48-.21.82.16.32.27.66.38.25.49.6-.42.51-.31.85.43.24.54.58.45.23.56.58.05.36.16.71.02.37.13.71-.13.42-.02.77.19.32.31.66.03.37.14.72.53.21.64.55-.04.39.07.74.3.28.41.63-.3.48-.19.82.35.27.46.61-.25.46-.14.81.07.36.18.71.36.27.47.61-.2.65.1.86.48.22.84.22.36.02.72.02.36-.41.72-.41.36-.12.72-.12.36.42.72.42.36-.08.72-.08.36-.52.72-.52.36.62.72.62.36-.37.72-.37.36-.17.72-.17.36.23.72.23.36.4.72.4.36-.58.72-.58.36.08.72.08.36.19.72.19.36-.3.72-.3.36.1.72.1.36.25.72.25.36.15.72.15.36-.59.72-.59.36.03.72.03.36.61.71.61.36-.57.71-.57.36.44.71.44.36-.16.71-.16.36-.06.72-.06.36.14.72.14.36.03.72.03.36-.57.72-.57.36.07.72.07.36.29.72.29.36.11.72.11.36.2.72.2.36-.49.72-.49.36.28.72.28.36-.02.72-.02.36.18.71.18.36-.06.71-.06.36.29.71.29.36-.55.72-.55.36-.26.72-.26.36.23.72.23.36.12.72.12.36.14.72.14.36-.49.72-.49.36.21.72.21.36.32.72.32.36-.38.72-.38.36.68.72.68.36-.2.72-.2.36.14.72.14.36.02.72.02.36-.64.72-.64.36.45.72.45.36-.55.72-.55.36.41.72.41.36-.36.72-.36.36.45.72.45.36.23.72.23.36-.42.72-.42.36-.19.72-.19.36.44.72.44.36-.42.72-.42.36.61.72.61.36-.04.72-.04.36-.42.72-.42.36.26.72.26.36-.24.72-.24.36-.13.72-.13.36.42.72.42.36-.56.72-.56.36.38.72.38.36-.06.72-.06.36.41.72.41.36-.58.72-.58.36.08.72.08.36.23.72.23.36.01.72.01.36.12.72.12.36-.03.72-.03.36.11.72.11.36-.74.72-.74.36.23.73.23.36,0,.73,0,.36-.24.73-.24.32.43.62.22-.08-.29.03-.63.52-.21.63-.55-.01-.38.1-.72.5-.21.61-.55-.53-.55-.41-.89,0-.37.12-.72.13-.33.24-.68.55-.2.66-.54-.27-.46-.15-.8.63-.17.74-.51-.16-.43-.05-.77.09-.35.2-.69.12-.34.23-.68.03-.37.14-.71.13-.34.24-.68.15-.33.26-.67.44-.24.55-.58.26-.29.37-.63-.3-.47-.19-.81.06-.36.17-.69.54-.2.65-.54-.6-.57-.49-.91.82-.11.93-.45-.6-.57-.48-.91.26-.29.37-.63.59-.18.7-.52-.53-.55-.42-.89.63-.17.74-.51-.41-.51-.3-.85.18-.32.3-.66.03-.37.14-.71.75-.13.87-.47.21-.31.32-.65-.05-.39.06-.73-.17-.43-.06-.77-.04-.39.07-.73.12-.34.23-.68.13-.33.24-.67.02-.37.13-.71.48-.22.6-.56-.37-.5-.26-.84.67-.16.78-.5.33-.27.44-.61-.19-.44-.08-.78-.21-.45-.1-.79.44-.24.55-.58.08-.35.19-.7.26-.29.37-.64.22-.31.33-.65.03-.37.14-.71.26-.29.38-.63-.54-.55-.43-.89.17-.32.28-.66.24-.3.35-.64,0-.38.11-.72.48-.22.59-.57-.07-.4.04-.74.34-.27.45-.61-.1-.41.01-.75-.15-.43-.04-.77.03-.37.14-.71.33-.27.44-.61-.04-.39.08-.73.45-.23.56-.58.21-.31.32-.65-.08-.4.04-.75-.21-.45-.1-.79.67-.16.78-.5-.46-.53-.35-.87.08-.35.19-.69.78-.13.89-.47-.14-.43-.03-.77-.13-.42-.02-.77.72-.14.83-.49-.43-.52-.32-.86.44-.24.55-.58,0-.38.12-.72.34-.27.45-.61-.26-.47-.15-.81-.21-.45-.1-.79.75-.14.86-.48.1-.35.22-.69-.32-.49-.21-.83.12-.34.23-.69.04-.37.15-.72.57-.24.46-.59-.01-.55-.3-.76-.31-.19-.6-.4-.38-.09-.67-.3-.3-.2-.59-.41-.24-.28-.53-.49-.42-.02-.71-.23-.28-.22-.57-.43-.46.03-.75-.18-.2-.32-.49-.53-.12-.44-.41-.65-.59.21-.88,0-.35-.13-.63-.34.19-.87-.1-1.08-.59.21-.88,0-.12-.43-.41-.64-.37-.09-.66-.3-.32-.16-.61-.37-.4-.05-.69-.26.03-.64-.26-.85-.36-.12-.64-.33-.3-.19-.59-.4-.6.21-.89,0-.17-.38-.45-.59-.44,0-.72-.22-.17-.37-.46-.58-.23-.3-.52-.51-.18-.37-.47-.58-.28-.23-.57-.44-.6.22-.9,0-.19-.35-.49-.56.02-.63-.28-.85-.44,0-.73-.22-.42-.04-.71-.25-.4-.06-.69-.28.14-.8-.15-1.01-.39-.07-.68-.28-.17-.37-.46-.58-.58.18-.87-.03-.08-.5-.37-.71-.57.17-.86-.04-.17-.38-.46-.59-.32-.18-.61-.39-.23-.3-.52-.51-.41-.05-.7-.26,0-.62-.28-.83-.63.26-.92.05-.29-.21-.58-.43-.35-.13-.64-.34-.34-.15-.63-.36-.1-.48-.39-.69-.27-.24-.56-.45-.2-.33-.5-.54-.29-.22-.58-.43-.42-.03-.71-.25-.41-.05-.7-.27-.31-.19-.6-.4-.21-.33-.5-.54-.44-.02-.73-.23.19-.87-.1-1.09-.44,0-.73-.22-.48.05-.77-.16-.42-.03-.71-.24-.1-.48-.39-.69-.42-.03-.72-.24-.26-.25-.55-.46-.22-.31-.51-.52-.28-.23-.57-.44-.33-.15-.62-.36-.41-.05-.7-.26-.03-.57-.32-.78-.56.15-.85-.06-.29-.22-.58-.43-.3-.2-.6-.41.1-.75-.2-.96-.22-.31-.52-.52-.71.36-1,.15-.28-.23-.57-.45-.29-.22-.58-.43-.38-.09-.67-.31-.04-.56-.33-.77-.25-.27-.55-.48-.13-.44-.42-.65-.59.19-.88-.02-.32-.18-.62-.39-.54-.1-.75-.4c-.29-.43.04-.96-.32-.96Z"/>
      </g>
      <g>
        <path class="cls-5" d="M78.99,85.88c-.32,0-.3.23-.51.47-.24.26-.14.23-.14.58s.35.35.35.7-.38.35-.38.7.34.35.34.71-.29.34-.2.68c.2.09.35.13.57.2s.33.48.56.54.53-.23.75-.18c.23.05.49,0,.75.05.24.04.51-.11.76-.08s.45.37.7.4.47.31.72.33.52-.28.77-.26.47.44.72.46.51-.08.76-.07.5.07.75.08.51-.16.76-.15.51-.32.75-.31.5.45.74.45c.31,0,.31-.21.62-.21s.31.09.62.09c.24,0,.49.26.73.26s.48-.37.72-.37.48-.1.72-.1.48.13.73.12.49.34.74.33.46-.7.71-.71.48-.07.72-.08.5.3.74.29.51.42.75.41.46-.55.7-.56.51.48.76.46.46-.58.7-.59.24.16.49.14c-.01.33.24.36.11.67s.02.37-.12.68-.76.03-.9.33.35.52.21.83-.15.3-.29.61-.02.36-.16.66-.28.25-.41.55c-.13.29-.3-.03-.65-.03-.23,0-.46.35-.7.36s-.47-.34-.71-.33-.47-.06-.7-.06-.47.3-.71.3-.48-.13-.71-.13-.47.05-.71.05-.47.29-.7.29-.46-.14-.69-.14-.47.36-.69.36-.47-.36-.7-.36-.46-.1-.69-.11-.46-.23-.68-.24c-.23,0-.46-.04-.7-.05s-.48.43-.72.42-.46-.25-.7-.26-.47-.1-.7-.11-.48.13-.72.11-.46-.24-.69-.25-.5.28-.74.26-.52.33-.75.31-.4-.65-.64-.68-.49.1-.72.06-.51.16-.74.12-.36-.61-.59-.66-.63.57-.86.51c-.24-.06-.33-.61-.55-.69-.23-.07-.41-.25-.63-.34s-.46-.11-.67-.2-.62.16-.82.04-.08-.79-.28-.92-.78.3-.97.16-.4-.3-.58-.45-.44-.25-.61-.42,0-.67-.15-.85-.66-.06-.81-.24.08-.3-.06-.49c-.04.25-.23.19-.28.43s-.17.47-.22.71-.26.44-.32.68.04.52-.03.76-.09.49-.18.72-.33.39-.43.63-.03.52-.13.74c-.13.13-.2.44-.29.44s-.02-.44-.12-.5c-.28-.26-.17-.36-.45-.63s-.47-.06-.75-.32-.34-.19-.62-.46-.26-.28-.54-.55-.65-.03-.85-.36c.09-.22.24-.72.32-.95s.72-.27.79-.5-.58-.65-.52-.89.46-.37.52-.6.04-.47.08-.71-.02-.48.01-.72,0-.48.04-.72.44-.42.47-.66.34-.45.36-.69-.06-.49-.04-.73-.26-.5-.25-.74.14-.47.15-.71-.12-.49-.11-.73.06-.47.07-.72.28-.47.29-.71.11-.32.12-.56c.08-.15-.21-.3-.04-.32.39-.02.35.18.73.26s.48-.37.87-.29.27.65.66.73.5-.37.87-.24c.17.06.37.04.46.19,0,.25-.19.62-.19.86,0,.25-.36.48-.37.71-.01.25.12.49.1.73-.02.25-.16.55-.18.78.1.19.42.36.53.55s.54.16.66.34.29.6.41.77c.08-.37-.19-.45-.19-.82s0-.38,0-.76.16-.38.16-.76-.58-.38-.58-.76.56-.38.56-.75-.43-.38-.43-.76.4-.38.4-.76-.24-.38-.24-.76.25-.49-.04-.73c-.34-.29-.42-.41-.87-.41s-.45.44-.9.45c-.37,0-.36.3-.72.31s-.37-.08-.74-.07-.37-.19-.74-.18-.38-.28-.75-.27-.32.02-.68-.04c-.15-.03-.03.18-.06.04-.09-.34.13-.29.13-.64s-.68-.35-.68-.7.66-.35.66-.7-.15-.35-.15-.7.04-.3.12-.64c.03-.13-.23-.3-.1-.32.36-.07.38,0,.75,0s.37.22.74.23.37.25.74.26.37-.05.75-.04.38.05.75.05c.35,0,.36-.19.71-.19s.36,0,.62-.24c.24-.22-.15-.23-.15-.55s.18-.32.18-.65.32-.32.32-.65.16-.52,0-.8c-.1-.17-.45,0-.64,0-.37,0-.36.15-.73.16s-.36.22-.73.23-.36.23-.73.24-.38-.48-.75-.47-.37.12-.73.06c-.15-.03-.07-.05-.11-.19-.09-.34-.23-.32-.23-.66s.32-.35.32-.7-.43-.35-.43-.7.07-.35.07-.7.16-.34.23-.68c.03-.13-.1-.52.03-.55.36-.07.44.09.81.1s.36.49.73.5.38-.21.75-.2.37.28.74.29.38-.09.75-.08c.19,0,.31-.01.4-.18.17-.28.4-.34.4-.67s-.66-.33-.66-.66,0-.33,0-.66.55-.33.55-.66-.04-.33-.04-.66-.66-.42-.58-.75c.04-.15.39-.13.54-.16.38-.08.39.33.77.33s.39-.55.77-.55.39,0,.77,0,.39.55.78.55.33-.15.71-.05c.15.04.32-.18.35-.03.07.38.02.41.02.8s-.31.39-.31.79.05.39.05.79.06.39.06.79-.25.58.01.88c.23.26.44-.29.78-.3s.35.23.7.22.34-.36.69-.37.36.44.71.43.28.2.63.26c.12.02-.13-.3-.1-.18.08.34.1.27.1.63s.65.35.65.71-.14.36-.14.71-.46.36-.46.71.41.39.33.74c-.03.12-.15.44-.27.46-.34.05-.4-.26-.75-.27s-.34-.3-.69-.31-.36.34-.71.33-.36.25-.71.24-.21-.41-.47-.18c-.24.22-.08.08-.08.4s-.24.32-.24.65.24.32.24.65-.05.25.09.55c.06.13-.09.19.06.19.38,0,.38-.07.76-.08s.39.36.77.35.38-.06.76-.07.37-.55.75-.56.4.08.78.12c.1.01-.15.03-.08-.04s.36.29.4.2c.23-.09.22-.17.44-.27.23-.11.57-.01.78-.13.22-.12.32-.47.51-.61.21-.14.32-.41.5-.57s.35-.34.51-.52.43-.29.57-.49.18-.47.29-.69.04-.49.12-.73.44-.38.49-.62c.05-.23.04-.85.06-1.11-.35-.11-.49.1-.85.11s-.36.3-.73.31-.37,0-.74,0-.38-.29-.75-.28-.4.57-.76.52c-.14-.02-.01-.28-.05-.41-.09-.33.27-.3.27-.64s-.22-.34-.22-.68-.24-.34-.24-.68-.04-.34-.04-.68-.21-.4-.14-.73c.03-.14.3-.03.44-.06.34-.08.32-.06.67-.05s.36-.21.71-.2.35-.12.71-.11.34.59.69.6.37-.61.72-.6.35.03.7.03.35.1.71.1.36.42.71.42.36-.29.71-.29.36,0,.71,0,.36.44.71.44.36-.77.71-.77.36.12.71.12.36.68.72.68.36-.54.72-.54.36.57.72.56.34-.81.69-.82.36.55.71.54.35-.21.7-.22.35-.22.7-.23.36.21.7.28c.13.03.03.08.09.21,0,.24.14.43.13.66,0,.24.23.48.23.71,0,.24-.67.46-.68.69,0,.24.15.48.15.71,0,.24-.21.47-.22.7,0,.24.55.5.54.73-.01.24-.54.45-.55.67-.01.25.5.51.48.74-.02.25.02.49,0,.71-.02.25-.56.43-.59.65-.03.25.49.55.45.77-.04.25-.33.45-.38.66-.05.25-.46.37-.52.57-.08.25-.19.39-.28.57-.12.23.28.75.13.91-.19.2-.4.43-.61.57s-.59.03-.85.12c-.22.08-.52-.17-.81-.12-.23.04-.42.74-.71.75-.24.01-.52-.14-.81-.14-.28,0-.28.07-.56.07s-.28.15-.56.15c-.38,0-.51-.5-.63-.82-.13-.33-.2-.3-.32-.63s.04-.39-.09-.73-.58-.16-.71-.49.07-.41-.05-.74-.44-.35-.46-.71c.21.01.79-.31.97-.3.21,0,.4-.11.58-.11.38,0,.68.16,1.03.13.38-.03.62.07.75-.19.09-.21.46-.36.51-.66.04-.23-.29-.53-.26-.83.02-.24.02-.49.04-.78.01-.24.09-.5.1-.78,0-.25.18-.56.18-.84-.37-.13-.41.12-.8.12s-.39-.29-.79-.29-.3.48-.68.59c-.02.24-.29.08-.33.31s-.32.41-.37.64-.13.43-.2.66-.1.44-.18.66.31.63.22.85-.63.22-.74.43-.04.5-.16.71-.25.39-.39.58-.1.52-.25.7-.13.54-.3.71-.5.19-.68.34-.63-.04-.82.1-.13.64-.33.77-.44.21-.65.31-.6-.19-.82-.1c-.13.06-.12.35-.22.35-.19,0-.35,0-.48-.13-.23-.27-.28-.23-.5-.51s0-.46-.23-.74-.14-.35-.36-.63-.27-.25-.49-.53-.4-.91-.75-.8.07.73.07,1.08.42.35.42.71-.63.36-.63.71.08.36.08.71.26.37.18.71c-.03.12-.08.11-.2.12-.37.06-.37-.09-.75-.09s-.38.04-.76.03-.39.43-.77.42-.37-.64-.75-.65-.39.32-.77.31c-.03,0,.04-.11.04-.08-.03.38.31.37.31.76s-.27.38-.27.77.26.38.26.77-.92.7-.68.99c.2.25.59-.07.91-.08.4,0,.38-.47.78-.49s.41.61.81.59.39-.37.78-.38.36.26.76.32c.12.02.47-.31.5-.19.08.34-.19.41-.19.77s-.38.35-.38.71.37.36.37.71.35.36.35.71-.36.36-.44.71c-.03.12-.01.37-.14.38-.39.05-.44.19-.83.17s-.37-.76-.77-.78-.44.47-.81.34c-.42-.14-.38-.4-.78-.41ZM93.31,89.86c-.3-.41-.12-.3-.42-.71-.22-.3-.23-.12-.6-.12s-.37.35-.74.35-.37-.38-.74-.38-.37.34-.75.34-.37-.2-.75-.2-.37-.02-.75-.02-.63-.52-.92-.29c-.23.18.24.51.24.8s.26.52.04.7c-.27.22-.45.23-.8.23s-.35-.31-.69-.31-.35-.26-.7-.26-.35.32-.7.32-.35-.41-.7-.41-.32.41-.57.16.11-.22.12-.57-.16-.36-.15-.71-.32-.36-.31-.71.46-.34.47-.69-.2-.36-.19-.71.1-.35.11-.71.27-.35.28-.7-.36-.36-.35-.72-.08-.36-.07-.71c0-.3.14-.3.14-.61s.35-.31.35-.61c0-.35-.69-.33-.7-.68s-.07-.35-.08-.7.31-.36.3-.71.43-.36.42-.71-.62-.38-.54-.72c.03-.14.29.22.43.19.38-.07.33-.54.71-.53s.38.46.76.47.39-.38.78-.37.39-.16.78-.15.37.7.76.7.4-.52.79-.51c.35,0,.35.02.7.02s.35-.12.7-.12.35.15.7.15.35.39.7.39.35-.34.71-.34.36.35.71.34.37.06.74.05.36-.31.73-.32.37.12.74.11.37-.05.74-.06.36-.29.73-.3.38.04.74.13c.18.04.55-.02.59.15.08.35-.35.44-.36.79s-.11.36-.12.71-.23.35-.24.71-.04.36-.05.72.42.37.42.73c0,.46-.24.46-.23.93,0,.35-.07.36-.06.71s.16.35.17.7-.2.36-.19.71.33.34.34.7.39.34.4.69-.59.37-.58.72.17.35.18.7.25.35.26.7-.16.25-.42.49-.15.61-.53.61-.37-.51-.74-.51-.37-.11-.75-.11-.37.07-.75.07-.35.37-.73.4c-.27.03-.27-.15-.49-.45ZM87.56,85.88c.25.27.63-.41,1-.41s.37.19.74.19.37-.35.74-.35.37.38.75.38.37-.34.75-.34.37.2.75.2.44.32.7.04c.27-.3.34-.36.34-.76s-.35-.4-.35-.81-.09-.4-.09-.81.17-.27-.1-.57c-.25-.27-.11-.19-.48-.19s-.37-.26-.74-.26-.37.32-.74.32-.37-.41-.75-.41-.37.11-.75.11-.37-.05-.75-.05-.54-.08-.8.19c-.27.3.31.45.31.85s-.45.4-.45.81.34.43.21.82c-.18.54-.55.74-.28,1.04Z"/>
        <path class="cls-5" d="M113.07,66.51c.33-.07.35.45.69.46s.35-.24.68-.23.33.09.67.1.35-.26.69-.25.34,0,.68,0,.35-.24.69-.23.43-.02.76.07c.15.04-.03.47.04.61,0,.25.17.45.17.69s.28.5.28.75-.32.49-.32.74-.12.49-.13.74-.21.49-.22.73.39.51.38.75-.6.47-.61.71.1.5.08.74.02.49,0,.73.13.5.11.75.04.5.02.74-.11.49-.14.73c.07.23.27.43.34.65s-.12.55-.04.77.03.51.12.72.56.29.65.51.5.3.6.51-.06.55.04.76.04.52.15.73.17.46.28.66.23.43.35.63.76.08.89.28-.11.64.03.83.56.18.7.37.12.5.27.68-.03.64.12.82.33.35.49.53.24.44.41.61.75-.07.92.09-.07.77.1.93.51.15.69.3.5.15.68.3.13.61.32.76.6,0,.8.13.48.14.67.28.5.09.7.23.26.46.46.59.23.54.43.66.42.22.63.34.52.04.73.15.51.05.72.17.35.44.57.55c-.11.34-.08.41-.29.69s-.57.01-.79.3.16.57-.05.85-.36.17-.58.46-.33.2-.55.48-.22.28-.44.57-.06.41-.28.69c-.1.13-.33-.27-.46-.27s-.4.53-.59.43c-.21-.11-.36-.36-.57-.48s-.53-.05-.74-.17-.24-.53-.44-.66-.3-.41-.5-.54-.28-.42-.48-.56-.37-.29-.56-.44-.54-.07-.73-.22-.19-.51-.37-.67-.8.2-.98.04.01-.72-.16-.89-.26-.41-.42-.58-.61-.07-.77-.24-.34-.34-.5-.52-.13-.52-.28-.7-.8.03-.95-.15.09-.68-.06-.87-.33-.35-.47-.54-.55-.21-.68-.41-.3-.39-.43-.59-.01-.56-.13-.76-.09-.5-.21-.71-.03-.52-.14-.73-.68-.2-.79-.41-.04-.83-.14-1.05c-.08.23-.47.64-.57.87s.49.74.39.97-.38.38-.48.6-.28.41-.39.63-.15.48-.28.69-.12.51-.25.72-.52.25-.66.46-.2.47-.34.66-.78.02-.93.21.2.79.05.98-.62.11-.78.29-.19.48-.36.66-.06.64-.24.81-.86-.19-1.04-.02-.43.24-.61.4.11.89-.08,1.05-.5.16-.7.31-.62-.03-.82.12-.43.22-.63.36-.21.56-.42.69-.37.34-.58.47-.64-.14-.86-.02-.14.77-.36.88-.5.11-.73.22c-.16.06-.35.24-.48.24-.1,0-.09-.43-.22-.52-.24-.25-.57.06-.79-.2s-.29-.2-.51-.46-.02-.44-.25-.69-.26-.23-.49-.49.09-.54-.14-.8-.62.1-.85-.16.24-.51.12-.83c.22-.1.24.31.46.2s.36-.4.57-.51.47-.18.68-.3.28-.5.49-.63.23-.56.44-.69.63.08.83-.05.21-.56.41-.7.8.27.99.12.04-.75.23-.9.44-.23.62-.39.62-.05.79-.21,0-.7.18-.87.24-.43.4-.61.56-.14.72-.33.59-.16.74-.35.41-.33.55-.52-.13-.69,0-.89.44-.3.56-.52.32-.39.43-.61.05-.52.16-.74-.16-.59-.06-.82.86-.19.94-.43-.52-.68-.44-.92.55-.35.61-.58c.06-.23.37-.41.42-.65s-.07-.51-.02-.75.06-.48.1-.72-.06-.49-.02-.74-.32-.52-.29-.77.42-.43.45-.67.27-.45.3-.7-.33-.51-.31-.76.22-.46.24-.71-.05-.48-.03-.72.39-.46.4-.71-.49-.5-.48-.75,0-.47.01-.72.39-.48.39-.72.09-.48.09-.73c0-.21.08-.43.08-.66s0-.43,0-.65-.42-.43-.42-.65c.02-.2.11-.29.27-.32Z"/>
      </g>
      <ellipse class="cls-1" cx="99.72" cy="36.8" rx="33.85" ry="8.9"/>
    </g>
  </g>
</svg>