<?xml version="1.0" encoding="UTF-8"?>
<svg id="_レイヤー_2" data-name="レイヤー 2" xmlns="http://www.w3.org/2000/svg" viewBox="0 0 200 150">
  <defs>
    <style>
      .cls-1 {
        stroke-width: 3px;
      }

      .cls-1, .cls-2 {
        stroke: #e71f19;
      }

      .cls-1, .cls-2, .cls-3, .cls-4 {
        fill: none;
      }

      .cls-1, .cls-2, .cls-4 {
        stroke-miterlimit: 10;
      }

      .cls-2 {
        stroke-width: 6px;
      }

      .cls-3, .cls-5, .cls-6, .cls-7 {
        stroke-width: 0px;
      }

      .cls-5 {
        fill: #5c1818;
      }

      .cls-6 {
        fill: #885b25;
      }

      .cls-7 {
        fill: #fff;
      }

      .cls-4 {
        stroke: #040000;
        stroke-width: .25px;
      }
    </style>
  </defs>
  <g id="_仙人" data-name="仙人">
    <g>
      <rect class="cls-3" width="200" height="150"/>
      <g>
        <g>
          <path class="cls-5" d="M100.04,24.98c-.36,0-.19.73-.48.94s-.46-.02-.75.19-.33.16-.62.37-.35.13-.64.34-.33.16-.62.37-.06.52-.35.73-.27.24-.55.45-.44,0-.73.21-.21.32-.5.53-.5-.09-.79.12.04.65-.25.86-.39.06-.68.27-.36.12-.64.33-.32.16-.61.37-.22.31-.5.52-.34.13-.63.34-.36.12-.64.33-.06.52-.35.73-.37.1-.66.31-.46-.03-.75.18.14.79-.15,1-.58-.19-.87.02,0,.62-.28.83-.61-.24-.9-.03-.43.02-.72.23-.01.6-.3.81-.25.27-.54.48-.17.38-.46.59-.49-.06-.78.15-.16.4-.45.61-.63-.26-.92-.05-.33.16-.62.37-.06.52-.35.74-.19.35-.48.56-.55-.15-.84.07-.26.25-.55.46-.26.25-.55.46-.41.05-.7.26.14.8-.15,1.01-.32.17-.61.38-.63-.26-.92-.05.11.77-.18.98-.42.03-.71.24-.2.33-.49.54-.39.07-.69.28-.35.14-.64.35-.17.37-.47.59-.36.12-.65.34-.17.39-.46.6-.54-.13-.83.08-.4.06-.69.27.08.72-.21.93-.74-.4-1.03-.19.03.65-.26.86-.14.42-.43.63-.54-.13-.83.08-.43.02-.72.24-.25.27-.54.48-.36.11-.66.32-.36.12-.65.33-.09.49-.38.7-.4.07-.69.28.02.64-.28.85-.49-.06-.79.15-.35.13-.64.34.04.67-.25.88-.72-.38-1.01-.16-.29.21-.58.42-.16.39-.45.6-.16.39-.46.6-.41.05-.7.27-.25.28-.54.49-.14.43-.43.64-.48-.05-.77.16-.34.14-.64.35-.31.19-.6.41-.36.11-.66.33.11.77-.18.98-.65-.28-.94-.06.08.72-.22.93-.65-.28-.94-.07-.18.36-.48.58-.3.21-.59.42-.16.4-.45.62-.31.19-.61.41-.87-.16-.98.18.07.54.18.88.35.26.46.6.49.22.6.56-.21.44-.09.78.18.32.29.66.18.32.29.66-.32.48-.21.82.19.32.3.66.67.16.78.5-.54.55-.43.89.27.29.38.63.43.24.55.58.28.29.39.63-.19.44-.08.78.37.26.48.6.16.33.27.67.05.36.16.7-.12.41,0,.75.24.3.35.64-.13.42-.02.76,0,.37.12.71.24.3.35.64.13.33.24.67-.16.43-.05.77.44.23.55.57-.17.43-.06.77.65.17.76.51-.17.43-.06.77-.14.42-.03.77.37.26.48.6-.19.44-.08.78.62.18.73.52-.19.44-.08.78.51.21.62.55-.39.5-.28.84.52.21.63.55-.32.48-.21.82.18.32.29.66.27.29.38.63,0,.38.1.72-.2.44-.09.78.17.32.28.66.55.2.66.54.22.31.33.65-.04.39.07.73.29.29.4.63-.02.38.09.73-.13.42-.01.76.4.25.51.59-.08.4.03.74-.13.42-.02.76.19.31.3.66.35.26.46.6.21.31.32.65.22.31.33.65-.02.39.09.73-.21.45-.1.79.24.3.36.64.09.35.2.69.28.29.39.63.09.35.2.69.4.25.51.59-.59.57-.48.91.47.23.58.57.34.27.45.61.29.28.4.63-.1.41,0,.75-.27.46-.16.81.56.19.67.53-.34.49-.23.83,0,.38.12.72.21.31.32.66.35.26.47.61.07.36.18.7.05.36.16.71.08.36.19.7.13.34.24.68.44.24.55.58-.43.52-.32.87.18.32.29.67.07.36.18.7.56.2.68.54-.15.43-.04.78.33.27.45.62-.15.43-.03.78.29.13.58.34.13,0,.49,0,.36-.04.72-.04.36.23.72.23.36-.16.72-.16.36.3.72.3.36.28.72.28.36-.7.72-.7.36.67.72.67.36-.37.72-.37.36.46.72.46.36-.64.72-.64.36,0,.72,0,.36.23.72.23.36.17.72.17.36.15.72.15.36-.07.72-.07.36-.55.72-.55.36.59.72.59.36-.47.72-.47.36.06.72.06.36-.2.72-.2.36.56.71.56.36-.62.71-.62.36.66.71.66.36-.13.71-.13.36-.4.72-.4.36.44.72.44.36.17.72.17.36-.58.72-.58.36-.03.72-.03.36.51.72.51.36-.61.72-.61.36.06.72.06.36.49.72.49.36-.46.72-.46.36,0,.72,0,.36-.03.71-.03.36.68.71.68.36-.08.71-.08.36-.08.72-.08.36-.29.72-.29.36.33.72.33.36-.65.72-.65.36.24.72.24.36.52.72.52.36-.71.72-.71.36.37.72.37.36-.25.72-.25.36.39.72.39.36-.2.72-.2.36-.05.72-.05.36.42.72.42.36-.2.72-.2.36-.12.72-.12.36.23.72.23.36-.07.72-.07.36-.47.72-.47.36.43.72.43.36-.51.72-.51.36.38.72.38.36-.19.72-.19.36.37.72.37.36.24.72.24.36-.82.72-.82.36.27.72.27.36.48.72.48.36-.54.72-.54.36.6.72.6.36-.27.72-.27.36-.28.72-.28.36.43.72.43.36-.52.72-.52.36.4.72.4.36-.22.72-.22.36.11.72.11.36.32.72.32.36-.54.72-.54.36.42.72.42.36,0,.72,0,.36.18.72.18.36-.41.72-.41.36-.05.72-.05.36-.31.73-.31.36.41.73.41.36.36.73.36.38-.26.68-.47.32-.21.43-.56.31-.28.42-.62-.44-.52-.32-.86-.03-.39.08-.73.25-.3.36-.64.7-.15.81-.49-.4-.51-.29-.85.57-.19.68-.53-.51-.54-.4-.88.75-.13.86-.48-.29-.47-.18-.81.14-.33.25-.67.51-.21.62-.55.03-.37.14-.71-.37-.5-.26-.84.14-.33.25-.67.4-.25.51-.59.33-.27.44-.6-.36-.49-.25-.83.04-.36.15-.7.46-.22.57-.56-.18-.43-.07-.77-.11-.41,0-.75.06-.36.17-.7.79-.12.9-.46-.38-.5-.27-.84-.08-.4.03-.74.64-.17.75-.51.19-.32.3-.66-.06-.4.05-.74.3-.28.41-.62-.08-.4.03-.74-.01-.38.1-.72-.2-.44-.09-.78.51-.21.62-.55.17-.32.29-.66-.34-.49-.23-.83.29-.28.4-.62-.03-.38.09-.72.45-.23.56-.57.48-.22.59-.56-.46-.53-.35-.87.43-.24.54-.58-.08-.4.03-.74.49-.22.6-.56-.56-.56-.45-.9.27-.29.38-.63.61-.18.72-.52.1-.34.22-.69-.5-.54-.39-.88.19-.32.3-.66.77-.13.88-.47-.02-.38.09-.73.16-.33.27-.67.13-.34.24-.68,0-.38.11-.72.09-.35.2-.69-.03-.39.08-.73-.26-.46-.15-.8.11-.34.22-.68.13-.34.24-.68.77-.13.88-.47-.05-.4.06-.74.03-.37.14-.71-.3-.48-.19-.82.51-.21.62-.56.18-.32.29-.66-.28-.47-.17-.81.05-.36.16-.7.7-.15.81-.49.17-.32.29-.67-.16-.43-.05-.78.16-.33.27-.67.06-.36.17-.7.05-.36.16-.71.23-.31.34-.65.15-.33.27-.67-.12-.42,0-.76.3-.28.41-.63-.11-.41,0-.76.16-.33.27-.67-.24-.46-.13-.8.24-.3.36-.65.1-.35.22-.69.21-.31.33-.66.54-.31.43-.66-.45-.04-.74-.25-.16-.39-.45-.61-.49.06-.78-.15.05-.68-.24-.89-.63.26-.92.05.04-.66-.25-.87-.67.32-.96.11,0-.62-.28-.83-.36-.12-.64-.33-.04-.55-.33-.76-.32-.16-.61-.37-.29-.2-.58-.41-.62.25-.91.04-.3-.19-.59-.4-.04-.54-.33-.75-.45.02-.74-.19-.23-.29-.52-.5-.47.04-.76-.17-.14-.41-.43-.62-.43-.01-.72-.22-.24-.28-.53-.49-.2-.33-.49-.54-.22-.3-.51-.51-.1-.47-.39-.68-.39-.07-.68-.28-.61.23-.9.02-.12-.44-.41-.65-.21-.32-.5-.53-.07-.52-.36-.73-.49.06-.78-.16-.19-.35-.48-.56-.56.16-.85-.05-.1-.48-.39-.69-.4-.06-.69-.27-.28-.23-.57-.44-.4-.06-.69-.27.06-.69-.23-.9-.31-.19-.6-.4-.45,0-.74-.2-.41-.04-.7-.25-.15-.41-.44-.62-.38-.08-.67-.3-.28-.22-.57-.43-.39-.08-.68-.29.03-.65-.26-.86-.32-.18-.61-.39-.24-.28-.53-.49-.74.41-1.03.19-.25-.27-.54-.48-.17-.38-.46-.59-.04-.56-.33-.77-.66.3-.95.09-.25-.27-.54-.49-.04-.55-.33-.76-.44-.01-.73-.22-.48.05-.78-.16-.13-.43-.43-.64-.24-.28-.53-.5-.43-.02-.73-.23-.02-.59-.31-.8-.35-.13-.64-.34-.56.15-.85-.06-.23-.3-.52-.51-.02-.59-.31-.8-.43-.03-.72-.24-.47.04-.76-.17.05-.68-.24-.89-.5.07-.79-.14-.1-.47-.39-.68-.35-.12-.65-.34-.58.18-.87-.03,0-.61-.3-.83-.27-.25-.56-.46-.4-.06-.7-.27-.44,0-.74-.22-.13-.43-.43-.65-.05-.54-.35-.75-.52.1-.81-.11-.36-.12-.66-.33-.44,0-.73-.22-.16-.39-.46-.61-.26-.26-.55-.47-.18-.37-.48-.58-.38-.1-.68-.31-.27-.21-.47-.52c-.29-.44-.34-.72-.7-.72Z"/>
          <path class="cls-2" d="M100.04,24.98c-.36,0-.19.73-.48.94s-.46-.02-.75.19-.33.16-.62.37-.35.13-.64.34-.33.16-.62.37-.06.52-.35.73-.27.24-.55.45-.44,0-.73.21-.21.32-.5.53-.5-.09-.79.12.04.65-.25.86-.39.06-.68.27-.36.12-.64.33-.32.16-.61.37-.22.31-.5.52-.34.13-.63.34-.36.12-.64.33-.06.52-.35.73-.37.1-.66.31-.46-.03-.75.18.14.79-.15,1-.58-.19-.87.02,0,.62-.28.83-.61-.24-.9-.03-.43.02-.72.23-.01.6-.3.81-.25.27-.54.48-.17.38-.46.59-.49-.06-.78.15-.16.4-.45.61-.63-.26-.92-.05-.33.16-.62.37-.06.52-.35.74-.19.35-.48.56-.55-.15-.84.07-.26.25-.55.46-.26.25-.55.46-.41.05-.7.26.14.8-.15,1.01-.32.17-.61.38-.63-.26-.92-.05.11.77-.18.98-.42.03-.71.24-.2.33-.49.54-.39.07-.69.28-.35.14-.64.35-.17.37-.47.59-.36.12-.65.34-.17.39-.46.6-.54-.13-.83.08-.4.06-.69.27.08.72-.21.93-.74-.4-1.03-.19.03.65-.26.86-.14.42-.43.63-.54-.13-.83.08-.43.02-.72.24-.25.27-.54.48-.36.11-.66.32-.36.12-.65.33-.09.49-.38.7-.4.07-.69.28.02.64-.28.85-.49-.06-.79.15-.35.13-.64.34.04.67-.25.88-.72-.38-1.01-.16-.29.21-.58.42-.16.39-.45.6-.16.39-.46.6-.41.05-.7.27-.25.28-.54.49-.14.43-.43.64-.48-.05-.77.16-.34.14-.64.35-.31.19-.6.41-.36.11-.66.33.11.77-.18.98-.65-.28-.94-.06.08.72-.22.93-.65-.28-.94-.07-.18.36-.48.58-.3.21-.59.42-.16.4-.45.62-.31.19-.61.41-.87-.16-.98.18.07.54.18.88.35.26.46.6.49.22.6.56-.21.44-.09.78.18.32.29.66.18.32.29.66-.32.48-.21.82.19.32.3.66.67.16.78.5-.54.55-.43.89.27.29.38.63.43.24.55.58.28.29.39.63-.19.44-.08.78.37.26.48.6.16.33.27.67.05.36.16.7-.12.41,0,.75.24.3.35.64-.13.42-.02.76,0,.37.12.71.24.3.35.64.13.33.24.67-.16.43-.05.77.44.23.55.57-.17.43-.06.77.65.17.76.51-.17.43-.06.77-.14.42-.03.77.37.26.48.6-.19.44-.08.78.62.18.73.52-.19.44-.08.78.51.21.62.55-.39.5-.28.84.52.21.63.55-.32.48-.21.82.18.32.29.66.27.29.38.63,0,.38.1.72-.2.44-.09.78.17.32.28.66.55.2.66.54.22.31.33.65-.04.39.07.73.29.29.4.63-.02.38.09.73-.13.42-.01.76.4.25.51.59-.08.4.03.74-.13.42-.02.76.19.31.3.66.35.26.46.6.21.31.32.65.22.31.33.65-.02.39.09.73-.21.45-.1.79.24.3.36.64.09.35.2.69.28.29.39.63.09.35.2.69.4.25.51.59-.59.57-.48.91.47.23.58.57.34.27.45.61.29.28.4.63-.1.41,0,.75-.27.46-.16.81.56.19.67.53-.34.49-.23.83,0,.38.12.72.21.31.32.66.35.26.47.61.07.36.18.7.05.36.16.71.08.36.19.7.13.34.24.68.44.24.55.58-.43.52-.32.87.18.32.29.67.07.36.18.7.56.2.68.54-.15.43-.04.78.33.27.45.62-.15.43-.03.78.29.13.58.34.13,0,.49,0,.36-.04.72-.04.36.23.72.23.36-.16.72-.16.36.3.72.3.36.28.72.28.36-.7.72-.7.36.67.72.67.36-.37.72-.37.36.46.72.46.36-.64.72-.64.36,0,.72,0,.36.23.72.23.36.17.72.17.36.15.72.15.36-.07.72-.07.36-.55.72-.55.36.59.72.59.36-.47.72-.47.36.06.72.06.36-.2.72-.2.36.56.71.56.36-.62.71-.62.36.66.71.66.36-.13.71-.13.36-.4.72-.4.36.44.72.44.36.17.72.17.36-.58.72-.58.36-.03.72-.03.36.51.72.51.36-.61.72-.61.36.06.72.06.36.49.72.49.36-.46.72-.46.36,0,.72,0,.36-.03.71-.03.36.68.71.68.36-.08.71-.08.36-.08.72-.08.36-.29.72-.29.36.33.72.33.36-.65.72-.65.36.24.72.24.36.52.72.52.36-.71.72-.71.36.37.72.37.36-.25.72-.25.36.39.72.39.36-.2.72-.2.36-.05.72-.05.36.42.72.42.36-.2.72-.2.36-.12.72-.12.36.23.72.23.36-.07.72-.07.36-.47.72-.47.36.43.72.43.36-.51.72-.51.36.38.72.38.36-.19.72-.19.36.37.72.37.36.24.72.24.36-.82.72-.82.36.27.72.27.36.48.72.48.36-.54.72-.54.36.6.72.6.36-.27.72-.27.36-.28.72-.28.36.43.72.43.36-.52.72-.52.36.4.72.4.36-.22.72-.22.36.11.72.11.36.32.72.32.36-.54.72-.54.36.42.72.42.36,0,.72,0,.36.18.72.18.36-.41.72-.41.36-.05.72-.05.36-.31.73-.31.36.41.73.41.36.36.73.36.38-.26.68-.47.32-.21.43-.56.31-.28.42-.62-.44-.52-.32-.86-.03-.39.08-.73.25-.3.36-.64.7-.15.81-.49-.4-.51-.29-.85.57-.19.68-.53-.51-.54-.4-.88.75-.13.86-.48-.29-.47-.18-.81.14-.33.25-.67.51-.21.62-.55.03-.37.14-.71-.37-.5-.26-.84.14-.33.25-.67.4-.25.51-.59.33-.27.44-.6-.36-.49-.25-.83.04-.36.15-.7.46-.22.57-.56-.18-.43-.07-.77-.11-.41,0-.75.06-.36.17-.7.79-.12.9-.46-.38-.5-.27-.84-.08-.4.03-.74.64-.17.75-.51.19-.32.3-.66-.06-.4.05-.74.3-.28.41-.62-.08-.4.03-.74-.01-.38.1-.72-.2-.44-.09-.78.51-.21.62-.55.17-.32.29-.66-.34-.49-.23-.83.29-.28.4-.62-.03-.38.09-.72.45-.23.56-.57.48-.22.59-.56-.46-.53-.35-.87.43-.24.54-.58-.08-.4.03-.74.49-.22.6-.56-.56-.56-.45-.9.27-.29.38-.63.61-.18.72-.52.1-.34.22-.69-.5-.54-.39-.88.19-.32.3-.66.77-.13.88-.47-.02-.38.09-.73.16-.33.27-.67.13-.34.24-.68,0-.38.11-.72.09-.35.2-.69-.03-.39.08-.73-.26-.46-.15-.8.11-.34.22-.68.13-.34.24-.68.77-.13.88-.47-.05-.4.06-.74.03-.37.14-.71-.3-.48-.19-.82.51-.21.62-.56.18-.32.29-.66-.28-.47-.17-.81.05-.36.16-.7.7-.15.81-.49.17-.32.29-.67-.16-.43-.05-.78.16-.33.27-.67.06-.36.17-.7.05-.36.16-.71.23-.31.34-.65.15-.33.27-.67-.12-.42,0-.76.3-.28.41-.63-.11-.41,0-.76.16-.33.27-.67-.24-.46-.13-.8.24-.3.36-.65.1-.35.22-.69.21-.31.33-.66.54-.31.43-.66-.45-.04-.74-.25-.16-.39-.45-.61-.49.06-.78-.15.05-.68-.24-.89-.63.26-.92.05.04-.66-.25-.87-.67.32-.96.11,0-.62-.28-.83-.36-.12-.64-.33-.04-.55-.33-.76-.32-.16-.61-.37-.29-.2-.58-.41-.62.25-.91.04-.3-.19-.59-.4-.04-.54-.33-.75-.45.02-.74-.19-.23-.29-.52-.5-.47.04-.76-.17-.14-.41-.43-.62-.43-.01-.72-.22-.24-.28-.53-.49-.2-.33-.49-.54-.22-.3-.51-.51-.1-.47-.39-.68-.39-.07-.68-.28-.61.23-.9.02-.12-.44-.41-.65-.21-.32-.5-.53-.07-.52-.36-.73-.49.06-.78-.16-.19-.35-.48-.56-.56.16-.85-.05-.1-.48-.39-.69-.4-.06-.69-.27-.28-.23-.57-.44-.4-.06-.69-.27.06-.69-.23-.9-.31-.19-.6-.4-.45,0-.74-.2-.41-.04-.7-.25-.15-.41-.44-.62-.38-.08-.67-.3-.28-.22-.57-.43-.39-.08-.68-.29.03-.65-.26-.86-.32-.18-.61-.39-.24-.28-.53-.49-.74.41-1.03.19-.25-.27-.54-.48-.17-.38-.46-.59-.04-.56-.33-.77-.66.3-.95.09-.25-.27-.54-.49-.04-.55-.33-.76-.44-.01-.73-.22-.48.05-.78-.16-.13-.43-.43-.64-.24-.28-.53-.5-.43-.02-.73-.23-.02-.59-.31-.8-.35-.13-.64-.34-.56.15-.85-.06-.23-.3-.52-.51-.02-.59-.31-.8-.43-.03-.72-.24-.47.04-.76-.17.05-.68-.24-.89-.5.07-.79-.14-.1-.47-.39-.68-.35-.12-.65-.34-.58.18-.87-.03,0-.61-.3-.83-.27-.25-.56-.46-.4-.06-.7-.27-.44,0-.74-.22-.13-.43-.43-.65-.05-.54-.35-.75-.52.1-.81-.11-.36-.12-.66-.33-.44,0-.73-.22-.16-.39-.46-.61-.26-.26-.55-.47-.18-.37-.48-.58-.38-.1-.68-.31-.27-.21-.47-.52c-.29-.44-.34-.72-.7-.72Z"/>
        </g>
        <g>
          <path class="cls-7" d="M75.85,96.25c-.27.26-.63-.07-1-.07s-.37-.16-.74-.16-.37.05-.75.05-.37.05-.75.05-.37.24-.75.24-.72.14-.99-.12c-.25-.24.5-.6.51-.95s-.27-.36-.26-.71.44-.34.44-.7-.51-.36-.5-.71.42-.35.42-.7-.39-.36-.38-.71.48-.35.48-.7-.65-.36-.65-.72-.07-.35-.07-.71.31-.35.31-.7.23-.35.23-.7.21-.35.21-.71-.72-.37-.71-.72.66-.35.66-.7-.13-.36-.13-.71,0-.35,0-.71-.25-.36-.25-.71.23-.36.23-.71-.21-.34-.28-.69c-.09.22-.26.29-.35.48-.1.21.26.63.16.82s-.8.06-.91.25c-.1.18.28.65.16.85-.13.22-.44.14-.57.14-.16,0-.56.04-.63-.18-.1-.37.16-.44.06-.81s-.09-.37-.18-.74.28-.47.18-.84-.4-.29-.5-.66.1-.43,0-.8-.19-.31-.23-.69c.12-.21.35-.2.47-.41s-.28-.7-.16-.91.35-.36.46-.57.36-.36.47-.57.02-.53.12-.75.43-.33.53-.55-.19-.61-.09-.83.8-.18.9-.4-.49-.73-.39-.95.71-.23.8-.46.06-.5.15-.72-.1-.55-.02-.78.43-.36.51-.59-.26-.59-.18-.82.57-.33.64-.56.24-.44.3-.67.2-.45.26-.69.13-.47.18-.71,0-.5.06-.74.17-.46.22-.7-.59-.6-.55-.84.33-.53.37-.78c.1-.13.28-.05.44-.05.34,0,.26.41.59.48s.36-.05.69.02.37-.1.7-.03.38-.15.72-.08.3.25.63.32.47-.21.78-.05c.15.08.27.29.3.45-.06.24-.29.55-.35.79s-.44.4-.5.64-.24.45-.31.68.28.59.21.83-.16.48-.23.71-.53.36-.6.59.45.66.37.9-.77.26-.85.49.47.69.39.92-.11.49-.19.72-.08.37-.17.6c-.03.36-.81.32-.81.69s-.03.36-.03.72.02.36.02.72.47.36.47.72.05.36.05.72.12.36.12.72-.2.36-.2.72-.35.36-.35.72.62.36.62.72-.69.36-.69.72-.02.36-.02.72.27.36.27.72-.19.36-.19.72,0,.36,0,.72.25.36.25.72.37.36.37.73-.17.36-.17.72.23.36.23.72-.09.36-.09.72-.58.36-.58.73.52.36.52.72-.47.36-.47.72-.08.36-.08.73.02.36.02.73-.05.36-.05.73.36.36.36.72-.4.36-.4.73.19.36.19.73.39.28.51.62c.18.51.22.84-.04,1.1ZM90.12,88.94c.27.26.12.07.5.07s.38.16.76.16.38-.05.76-.05.4.25.67-.01-.28-.27-.28-.64.02-.37.02-.73.6-.36.6-.73-.27-.36-.27-.73.43-.37.43-.73-.51-.37-.51-.73.41-.37.41-.74-.39-.37-.39-.73.47-.37.47-.73-.66-.37-.66-.73-.08-.37-.08-.74.3-.37.3-.74.22-.37.22-.74.2-.37.2-.74-.73-.37-.73-.74.65-.37.65-.74-.13-.37-.13-.74,0-.37,0-.74-.25-.37-.25-.74.23-.37.23-.74-.36-.41-.28-.77c.04-.15.26.07.41.03.33-.08.29-.5.63-.5s.34.67.68.67.34-.57.69-.57.34.27.69.27.35-.38.69-.38.36.17.7.27c.15.04.16.11.19.27.07.35-.4.36-.4.71s.31.35.31.71-.21.35-.21.7.04.35.04.71-.17.35-.17.71.58.36.58.71-.14.36-.14.71-.16.35-.16.71.22.35.22.71-.24.36-.24.71.42.36.42.71-.66.36-.66.71.73.36.73.71-.57.36-.57.71.12.36.12.71.28.36.28.71-.29.36-.29.71.43.36.43.71-.45.36-.45.72-.1.36-.1.72-.07.36-.07.72c0,.38,0,.38.01.76s.11.38.12.75-.06.38-.05.76.71.36.72.74-.2.38-.19.76-.17.38-.16.76-.34.39-.33.77.13.38.14.76.45.45.2.73c-.22.25-.31.22-.64.22s-.33-.18-.67-.18-.33.22-.67.22-.34.02-.67.02-.34-.17-.67-.17-.34-.33-.67-.33-.18.25-.41,0c-.25-.27-.33-.12-.33-.49s.02-.37.02-.74.56-.73.3-.99-.62.52-.99.52-.37-.65-.74-.65-.37.67-.74.67-.37.07-.74.07-.37.07-.74.07-.37-.81-.74-.81-.37-.03-.74-.03-.37.02-.74.02-.37.47-.74.47-.37.05-.74.05-.37.12-.74.12-.37-.2-.75-.2-.37-.35-.75-.35-.27.27-.53.54-.6.15-.6.52-.02.37-.02.74.58.39.31.64-.29-.23-.67-.23-.38,0-.76,0-.38.25-.77.25-.38.37-.77.37-.39-.17-.77-.17-.75.4-1.02.12,0-.64,0-1.01.59-.36.6-.74-.51-.39-.5-.77.48-.37.48-.74.09-.38.1-.75-.01-.38,0-.76.05-.38.06-.76-.36-.39-.35-.77.41-.38.42-.76c0-.36-.19-.36-.19-.72s-.53-.36-.53-.71.69-.35.69-.71-.55-.35-.55-.71.29-.35.29-.71.07-.36.07-.71.1-.36.1-.71.06-.36.06-.71-.38-.36-.38-.71-.04-.36-.04-.71.26-.36.26-.71-.14-.36-.14-.71.37-.36.37-.71-.55-.36-.55-.72.18-.36.18-.71.11-.36.11-.71.06-.36.06-.71-.12-.36-.12-.72.09-.36.09-.72.12-.36.12-.72-.47-.39-.38-.74c.04-.15.18-.12.33-.16.32-.08.32.3.66.3s.33-.72.67-.72.34.5.67.5.34-.51.67-.51.34.55.67.55.24.13.56.22c.15.05.35-.3.38-.14.07.36.07.38.07.75s.21.37.21.73-.34.36-.34.73.23.36.23.73-.58.36-.58.73-.07.37-.07.73.39.37.39.74.17.37.17.73-.44.37-.44.73.05.37.05.73.04.37.04.74-.2.37-.2.73.73.37.73.73-.05.37-.05.74-.59.37-.59.74.69.37.69.74-.22.37-.22.73.15.37.15.74-.18.37-.18.74-.09.37-.09.74-.12.3.13.57.18.03.53.03.36-.21.71-.21.36.43.71.43.65.36.9.11-.56-.55-.56-.91.76-.36.76-.73-.54-.36-.54-.73-.26-.36-.26-.73.42-.36.42-.72.23-.36.23-.72-.07-.36-.07-.72.12-.36.12-.73.12-.36.12-.73-.35-.36-.35-.73.18-.36.18-.73-.52-.36-.52-.73.34-.36.34-.73.1-.36.1-.72-.56-.36-.56-.72.72-.36.72-.72,0-.36,0-.73-.23-.36-.23-.73-.21-.36-.21-.73.2-.36.2-.73-.08-.36-.08-.73-.27-.36-.27-.73.32-.36.32-.73.09-.36.09-.73.03-.37.03-.73.12-.36.12-.73-.68-.36-.68-.73.61-.36.61-.73-.63-.37-.63-.73.61-.37.61-.73-.19-.37-.19-.73-.07-.37,0-.73c.04-.17-.01-.42.15-.47.32-.09.4.02.73.02s.34.49.67.49.34.04.68.04.34-.25.68-.25.34-.4.68-.4.35.25.68.33c.15.04.24.04.28.2.08.35.07.38.07.74s-.45.36-.45.73.08.36.08.73.59.36.59.73-.68.36-.68.73.17.36.17.73.34.36.34.73.18.36.18.73-.31.36-.31.73.27.36.27.73.05.36.05.73-.06.36-.06.73-.24.36-.24.73.13.36.13.72-.26.36-.26.72-.11.36-.11.72.14.36.14.73.02.36.02.73-.28.36-.28.73.35.36.35.73-.29.36-.29.73.57.37.57.73-.3.36-.3.73-.27.36-.27.73.27.37.27.73-.32.37-.32.73.54.36.54.73-.32.36-.32.73.42.37.42.73-.53.37-.53.73.43.37.43.74c0,.28-.25.21.01.47Z"/>
          <path class="cls-7" d="M113.17,66.96c.33-.07.27-.74.61-.73s.32.41.66.42.33.08.67.1.35-.46.69-.45.34.1.67.11.32.69.66.7.38-.47.7-.38c.15.04.39,0,.46.15,0,.25-.02.61-.03.86s.14.5.14.75-.51.49-.52.73.49.51.49.75-.1.49-.11.74-.61.47-.62.71.06.5.05.74.06.5.05.74-.17.48-.19.72.11.5.09.74.03.5,0,.74.41.45.39.69c.07.23-.56.6-.49.82s.2.44.28.66.65.26.74.48.09.47.18.69.23.42.33.63.04.51.15.72-.1.59,0,.8.58.23.7.44.37.33.5.53-.18.67-.05.87.61.16.75.36.28.38.43.56-.09.67.06.85.47.24.62.42.1.56.26.73.63.07.79.24.09.59.26.75.78-.13.95.03.33.32.52.48.14.56.33.71.34.34.53.48.61-.03.8.11.32.36.51.49.36.3.56.43.16.62.37.75.59-.05.79.07.19.61.39.73.61-.1.82.01.37.3.58.42.81.32,1.03.43c-.11.34-.44.28-.65.56s-.05.41-.27.69-.44.11-.66.39-.29.23-.5.51-.5.07-.72.35.18.59-.04.87-.29.23-.51.51c-.1.13-.28.55-.41.55s-.28-.49-.47-.58c-.21-.11-.41-.24-.62-.36s-.43-.21-.64-.33-.58.02-.78-.11-.1-.73-.3-.86-.46-.17-.65-.31-.37-.3-.56-.44-.65.05-.83-.1-.42-.26-.6-.41-.22-.48-.4-.64-.22-.47-.39-.64-.26-.41-.43-.58-.53-.15-.7-.32-.28-.39-.44-.57,0-.62-.16-.81-.58-.14-.73-.32-.26-.4-.4-.59-.5-.23-.64-.42-.1-.52-.23-.72-.13-.48-.26-.68-.22-.42-.34-.63-.55-.24-.66-.45.15-.62.05-.83-.4-.33-.5-.55-.28-.27-.37-.49c-.08.23-.51.2-.6.43s.38.69.28.92-.78.17-.89.39.16.63.04.84-.11.5-.24.72-.77.1-.9.31.1.65-.04.85.04.64-.1.84-.96-.12-1.11.08.21.8.05.99-.77-.02-.93.16-.07.59-.24.77-.42.27-.6.44-.39.29-.57.45-.06.67-.25.83-.63.02-.82.17-.45.21-.65.36-.19.56-.39.71-.22.56-.42.69-.73-.22-.94-.09-.51.09-.72.21-.42.22-.64.34-.33.41-.55.52-.22.69-.44.79c-.16.06-.42.11-.55.11-.1,0-.39-.15-.52-.24-.24-.25-.12-.37-.35-.62s.16-.6-.07-.85-.68.15-.91-.1-.08-.39-.31-.65.05-.51-.18-.76-.32-.18-.55-.43-.37-.09-.49-.41c.22-.1.36-.04.58-.15s.5-.12.71-.23.3-.49.51-.61.59.04.8-.08.33-.41.54-.54.29-.46.49-.6.57-.03.77-.17.26-.47.46-.62.67.05.86-.1.17-.58.35-.74.5-.19.67-.35.12-.58.3-.75.25-.42.42-.6.71-.02.87-.21.44-.29.59-.49.11-.54.25-.74.36-.36.5-.56.26-.43.38-.64.15-.48.27-.7-.19-.63-.09-.85.2-.43.3-.66.21-.43.29-.66,0-.5.06-.74.15-.45.21-.68c.06-.23.13-.45.18-.69s.47-.38.51-.62.03-.48.07-.72.08-.47.12-.71-.12-.5-.09-.74.51-.42.54-.66-.25-.51-.23-.75-.03-.48-.01-.73.34-.45.35-.7-.29-.49-.28-.74.44-.46.45-.7.22-.48.23-.72-.05-.48-.04-.73-.58-.49-.58-.74.35-.48.35-.73c0-.21-.3-.42-.3-.65s.4-.44.4-.66-.1-.04-.1-.25c.16-.06,0-.23.15-.27Z"/>
        </g>
        <ellipse class="cls-1" cx="99.72" cy="36.31" rx="33.85" ry="8.9"/>
        <path class="cls-6" d="M143.23,123.74s0,.78,0,.78c-.47,0-.39-1.83-.84-3.58-.22-.87-1.29-1.72-1.51-2.93-.17-.96-.23-2.04-.39-3.18-.14-1-.62-2.02-.75-3.13-.13-1.02-.33-2.08-.45-3.17-.11-1.03.85-2.2.74-3.29s-.53-2.07-.64-3.15-.98-2.04-1.07-3.11.54-2.18.46-3.25-.12-2.13-.21-3.19.1-2.15.02-3.21-.9-2.08-.98-3.14.26-2.17.19-3.22-.27-2.14-.34-3.19.19-2.17.12-3.21,0-2.17-.06-3.2c-.07-1.1-1.18-2.11-1.24-3.13-.07-1.12.94-2.25.88-3.26-.06-1.15-.92-2.17-.98-3.15-.07-1.22-.36-2.28-.4-3.18-.1-2.02-.17-1.61-.21-3.2,0-.95.83-1.88,1.17-2.7s.95-1.56,1.59-2.2,1.18-1.65,2.03-2.01,1.91.54,2.86.54c0,0,0-.74,0-.74.95,0,1.91.15,2.74.49s1.96.62,2.61,1.26,1.23,1.62,1.58,2.48.76,1.94.76,2.89c-.04,1.6-.23,1.18-.34,3.2-.05.9-.27,1.97-.34,3.18-.05.98-.71,2.01-.78,3.16-.06,1.01.41,2.1.35,3.22-.06,1.02-.56,2.06-.63,3.17-.06,1.03-.02,2.1-.09,3.19s.55,2.15.48,3.23-.48,2.09-.55,3.17-1.12,2.05-1.19,3.12.74,2.19.66,3.26.12,2.15.03,3.21-.08,2.14-.17,3.2-1.11,2.06-1.2,3.11-.47,2.11-.57,3.16.98,2.26.87,3.3-.63,2.11-.75,3.14c-.12,1.1-.28,2.16-.41,3.18-.14,1.11-.18,2.19-.32,3.19-.16,1.14-.28,2.22-.45,3.18-.21,1.21-.14,2.36-.36,3.23-.45,1.75-1.46,2.51-1.93,2.51Z"/>
        <g>
          <path class="cls-7" d="M73.33,107.11c-4.84,0-4.86.16-9.7-.14.21-.58.6-1.39.6-2.05,0-3-2.7-5.53-5.7-5.53-4.09,0-4.09.36-8.18.36s-4.09-.54-8.18-.54-4.09.18-8.18.18c-3,0-5.74,2.53-5.74,5.53s2.74,5.56,5.74,5.56c4.84,0,4.87-.71,9.71-.41-.21.58-.18,1.51-.18,2.17,0,0,.07,0,.07,0,0,3,2.21,5.54,5.21,5.54,4.09,0,4.09-.4,8.18-.4s4.09.19,8.18.19,4.09.45,8.18.45c3,0,5.49-2.77,5.49-5.77,0,0-.03,0-.03,0,0-3-2.45-5.14-5.45-5.14Z"/>
          <path class="cls-4" d="M73.33,107.11c-4.84,0-4.86.16-9.7-.14.21-.58.6-1.39.6-2.05,0-3-2.7-5.53-5.7-5.53-4.09,0-4.09.36-8.18.36s-4.09-.54-8.18-.54-4.09.18-8.18.18c-3,0-5.74,2.53-5.74,5.53s2.74,5.56,5.74,5.56c4.84,0,4.87-.71,9.71-.41-.21.58-.18,1.51-.18,2.17,0,0,.07,0,.07,0,0,3,2.21,5.54,5.21,5.54,4.09,0,4.09-.4,8.18-.4s4.09.19,8.18.19,4.09.45,8.18.45c3,0,5.49-2.77,5.49-5.77,0,0-.03,0-.03,0,0-3-2.45-5.14-5.45-5.14Z"/>
        </g>
      </g>
    </g>
  </g>
</svg>