<?xml version="1.0" encoding="UTF-8"?>
<svg id="_レイヤー_2" data-name="レイヤー 2" xmlns="http://www.w3.org/2000/svg" viewBox="0 0 200 150">
  <defs>
    <style>
      .cls-1 {
        stroke-width: 3px;
      }

      .cls-1, .cls-2 {
        stroke: #efea3a;
        stroke-miterlimit: 10;
      }

      .cls-1, .cls-2, .cls-3 {
        fill: none;
      }

      .cls-2 {
        stroke-width: 6px;
      }

      .cls-3, .cls-4, .cls-5, .cls-6 {
        stroke-width: 0px;
      }

      .cls-4 {
        fill: #9ca021;
      }

      .cls-5 {
        fill: #fff;
      }

      .cls-6 {
        fill: #040000;
      }
    </style>
  </defs>
  <g id="_神様" data-name="神様">
    <g>
      <rect class="cls-3" width="200" height="150"/>
      <g>
        <g>
          <path class="cls-5" d="M136.4,88.56c-.24.34.35.21.88.32.23.05.51.09.82.16.25.05.55-.04.85.02.26.05.51.2.8.26.26.05.54.08.83.14.26.05.54.09.83.15.27.05.55.06.83.11.27.05.52.22.8.27s.54.13.82.18.56,0,.84.05.55.07.83.12.55.1.82.15.53.18.81.23.54.14.82.19.56,0,.84.05.55.07.83.12.55.07.83.12.55.08.83.12.53.24.8.28.55.07.83.12.56.07.83.11.57,0,.84.04.56.05.84.09.54.21.82.25.57,0,.85.03.56.08.84.11.56.03.84.06.56.05.84.08.56.04.84.07.55.18.83.21.56.07.84.09.57-.02.85,0,.57-.03.85,0,.56.05.84.07.56.08.84.1.57.01.84.03.56.17.84.18.57-.1.85-.09.56.03.84.04.57.13.84.12.57-.05.84-.06c.29-.01.56-.15.83-.17.29-.02.58.08.85.05.29-.03.56-.16.82-.2.29-.04.57-.07.83-.13.29-.07.55-.16.8-.25.29-.1.54-.21.76-.34.27-.15.57-.24.73-.43.18-.23.24-.52.26-.81s-.09-.55-.13-.83.04-.58-.05-.85-.27-.49-.4-.75-.27-.48-.43-.72-.21-.53-.39-.76-.41-.38-.6-.59-.38-.41-.58-.61-.41-.38-.62-.57-.46-.32-.68-.5-.34-.47-.56-.64-.55-.2-.78-.37-.41-.39-.64-.54-.5-.26-.73-.42-.45-.35-.68-.49-.42-.4-.66-.54-.54-.21-.78-.34-.54-.2-.78-.34c-.25-.14-.42-.42-.67-.55-.26-.14-.57-.15-.81-.27-.26-.13-.53-.23-.76-.35-.27-.13-.5-.31-.74-.42-.29-.14-.5-.35-.72-.45-.48-.22-.38-.31-.79-.28s-.42.06-.82.17-.41.07-.82.18-.37.23-.78.34-.43.03-.83.13-.38.21-.78.31-.4.13-.81.23-.4.14-.8.25-.43-.02-.84.09-.39.14-.8.25-.38.18-.79.29-.45-.07-.85.04-.36.26-.77.37-.44-.04-.85.07-.41.09-.82.19-.37.22-.78.33-.42.04-.83.15-.38.21-.78.32-.44-.03-.85.08-.4.14-.8.24-.39.16-.79.27-.39.17-.8.28-.41.11-.81.22-.44-.02-.85.08-.44.05-.82.23-.35.21-.68.45-.32.25-.64.48-.3.28-.63.51-.36.18-.69.42-.35.2-.68.44-.28.3-.61.53-.34.22-.67.45-.29.29-.62.52-.36.18-.72.35c-.39.19-.47.17-.7.5Z"/>
          <g>
            <path class="cls-5" d="M149.75,89.99c-.28.27-.2.24-.58.52-.18.14-.36.36-.61.51-.21.13-.52.11-.77.22-.23.11-.46.21-.72.29s-.49.16-.75.21-.5.23-.77.24c-.24,0-.41-.31-.57-.68-.11-.24-.22-.52-.3-.84-.07-.29-.14-.59-.2-.88-.06-.32-.15-.62-.18-.89-.07-.52.06-.46.02-.9"/>
            <path class="cls-6" d="M145.53,92.22c-.28,0-.54-.05-.7-.32-.12-.2-.12-.51-.19-.81-.06-.25-.13-.52-.17-.81-.04-.27-.03-.55-.05-.82s-.14-.55-.16-.82c-.02-.29.07-.58.05-.83h-.12c.02.28.09.55.14.81s.19.52.26.77c.07.27,0,.59.08.82.1.28.21.55.31.75.18.36.43.64.55.68.3,0,.59-.2.87-.27s.61-.07.88-.18c.29-.12.55-.27.8-.41.29-.16.53-.34.75-.49.43-.3.72-.58.73-.58.26.27.19.34.43.62-.03.03-.26.13-.65.42-.19.14-.37.39-.63.55-.22.14-.46.3-.72.42-.24.11-.51.22-.78.31s-.55.07-.83.13-.54.04-.83.04c0,0,0,0-.02,0Z"/>
          </g>
          <g>
            <path class="cls-5" d="M155.28,92.93c-.33.24-.26.21-.67.44-.21.12-.44.29-.71.4-.24.1-.54.07-.81.14s-.51.26-.77.27-.53-.13-.78-.22-.46-.2-.67-.41c-.17-.18-.28-.4-.4-.68-.11-.26-.32-.47-.42-.72s-.12-.56-.22-.81-.23-.51-.33-.76c-.11-.27-.24-.52-.33-.76-.11-.28-.29-.51-.37-.75-.11-.29-.04-.61-.12-.84-.17-.48-.14-.38-.27-.77"/>
            <path class="cls-6" d="M152.23,94.52c-.23,0-.45-.03-.67-.09-.23-.06-.39-.24-.59-.37s-.35-.26-.49-.45c-.14-.18-.3-.33-.4-.56-.11-.26-.15-.54-.25-.8s-.35-.47-.44-.73-.04-.58-.12-.84c-.09-.28-.36-.49-.43-.74-.09-.29-.05-.59-.12-.84-.08-.3-.17-.57-.23-.8-.12-.49-.22-.78-.23-.78h-.04s.27.24.49.7c.1.21.13.51.26.79.11.23.24.47.37.74.11.24.2.5.32.76.11.24.32.45.44.71s.13.54.24.8.25.49.36.75c.11.24.27.43.43.59.17.17.4.21.64.27.28.07.58.24.88.19.29-.04.6-.14.88-.24.3-.11.58-.26.82-.39.45-.24.76-.58.77-.58.22.3.16.35.36.66-.03.02-.3.21-.73.45-.23.13-.5.28-.8.4-.27.11-.54.26-.83.33s-.6.08-.9.08Z"/>
          </g>
          <g>
            <path class="cls-5" d="M159.65,93.78c-.01.38,0,.32-.07.76-.04.23-.09.49-.17.75-.08.24-.16.49-.29.71s-.36.36-.56.51-.38.32-.66.34c-.19.01-.44-.14-.73-.41-.18-.16-.3-.43-.51-.68-.17-.2-.35-.42-.53-.66-.16-.22-.38-.41-.55-.66-.16-.23-.25-.51-.41-.75-.15-.23-.44-.39-.59-.63s-.17-.56-.32-.81-.46-.38-.61-.63-.19-.55-.33-.8-.31-.49-.45-.73-.33-.48-.47-.72-.17-.57-.3-.81c-.14-.26-.41-.43-.54-.68-.14-.26-.19-.57-.32-.8-.15-.27-.3-.51-.42-.74-.15-.29-.26-.56-.37-.77-.25-.47-.29-.32-.48-.7"/>
            <path class="cls-6" d="M157.9,97.25c-.15,0-.41-.1-.74-.41-.16-.15-.22-.45-.44-.7-.15-.18-.37-.35-.55-.61-.15-.2-.35-.39-.51-.64-.14-.21-.29-.44-.45-.69-.14-.22-.28-.45-.43-.7-.14-.22-.3-.44-.45-.69-.13-.22-.25-.48-.4-.72-.13-.23-.28-.46-.43-.7-.13-.23-.31-.45-.44-.69-.13-.23-.2-.5-.34-.75-.13-.23-.28-.46-.41-.71-.13-.23-.26-.47-.4-.72s-.27-.47-.4-.72-.17-.53-.3-.78-.33-.44-.46-.69-.25-.49-.38-.74-.17-.53-.3-.78l-.14.07c.13.24.31.46.44.71s.19.53.33.77.41.41.54.65.13.56.27.8.44.39.58.62.18.54.32.78.3.47.45.7.33.45.48.68.18.55.33.78.43.39.58.62.22.53.37.75c.16.24.33.46.49.67.17.24.3.48.45.7.17.24.42.4.59.61.18.24.28.52.44.71.2.24.42.43.58.59.29.29.56.43.71.43.29-.02.46-.23.64-.44.17-.2.44-.37.54-.63s.17-.56.22-.81c.09-.45,0-.73,0-.74.37,0,.38-.16.75-.13,0,.04-.05.46-.14.92-.05.26-.09.55-.19.85-.09.27-.2.55-.36.79s-.33.51-.56.67-.53.15-.85.17c-.01,0-.02.12-.03.12Z"/>
          </g>
          <g>
            <path class="cls-5" d="M166.57,94.1c-.16.41-.19.31-.43.77-.12.23-.23.51-.39.78-.15.24-.32.49-.51.72s-.4.45-.62.63c-.24.2-.48.4-.75.48s-.6.1-.9.01c-.19-.06-.35-.34-.62-.57-.19-.16-.43-.29-.65-.51-.18-.18-.41-.35-.61-.57-.18-.2-.36-.41-.54-.63-.17-.2-.35-.42-.53-.65-.17-.21-.37-.41-.54-.63s-.32-.45-.49-.68-.35-.43-.52-.66-.37-.42-.54-.64-.28-.49-.44-.72-.35-.44-.51-.67-.33-.45-.49-.68-.34-.45-.5-.68-.24-.52-.4-.74c-.16-.24-.4-.41-.55-.63-.17-.24-.32-.48-.47-.69-.17-.25-.25-.53-.39-.74-.18-.26-.34-.49-.47-.68-.29-.43-.28-.3-.51-.65"/>
            <path class="cls-6" d="M163.41,97.96c-.17,0-.34-.13-.52-.18-.2-.06-.47-.16-.75-.39-.19-.16-.43-.32-.65-.55-.18-.19-.35-.42-.55-.65-.18-.2-.38-.41-.56-.64-.17-.21-.26-.5-.44-.73-.17-.22-.45-.36-.63-.59s-.29-.49-.46-.72-.25-.51-.42-.74-.45-.37-.61-.6-.29-.49-.45-.72-.27-.51-.43-.74-.35-.45-.51-.68-.32-.47-.47-.71-.31-.48-.46-.71c-.16-.24-.36-.45-.51-.68-.16-.25-.32-.49-.47-.71-.16-.25-.19-.58-.33-.79-.17-.27-.38-.47-.51-.67-.21-.33-.41-.55-.5-.68h.02c.15.21.29.44.45.67s.33.43.48.66.29.46.45.69.33.44.49.66.36.42.52.64.27.48.43.7.34.43.51.65.34.44.5.66.35.43.52.65.26.5.43.72.42.38.59.59.34.44.52.65.28.49.46.7.37.42.54.62c.19.22.42.38.59.58.19.22.32.47.5.66.2.21.51.3.69.48.22.22.32.52.5.67.28.23.6.22.77.27.27.08.5.16.75.07.23-.09.44-.26.65-.45.19-.17.33-.4.49-.61s.42-.36.55-.58c.15-.24.15-.55.25-.76.2-.41.35-.63.36-.64.35.13.36.09.7.25-.02.05-.19.3-.41.74-.12.23-.17.55-.34.82-.15.24-.4.43-.59.67s-.36.47-.57.66-.44.4-.7.53-.55.3-.85.3Z"/>
          </g>
          <g>
            <path class="cls-5" d="M171.79,94.44c-.09.41,0,.38-.17.84-.09.24-.3.47-.45.73-.14.24-.28.5-.47.71s-.44.37-.69.49-.52.22-.82.2c-.17,0-.47-.09-.79-.3-.2-.13-.37-.38-.62-.57-.2-.15-.45-.28-.68-.47-.2-.17-.44-.31-.66-.5-.2-.17-.38-.39-.59-.58-.2-.18-.41-.35-.62-.55-.2-.18-.32-.45-.52-.65s-.49-.28-.69-.47-.35-.43-.55-.62-.32-.46-.52-.65-.5-.28-.69-.48-.36-.42-.55-.62-.34-.44-.54-.64-.42-.37-.61-.57-.39-.4-.58-.6-.39-.41-.58-.61-.43-.36-.62-.56-.39-.41-.58-.6-.28-.52-.46-.71c-.2-.21-.43-.36-.62-.56-.2-.21-.43-.38-.61-.57-.2-.22-.39-.43-.56-.61-.22-.23-.4-.44-.56-.61-.35-.38-.3-.28-.57-.58"/>
            <path class="cls-6" d="M169.29,97.7s-.08.08-.12.08c-.19-.01-.49-.07-.81-.27-.2-.13-.39-.36-.64-.55-.2-.16-.43-.33-.66-.52-.2-.17-.35-.43-.56-.63-.2-.18-.52-.25-.73-.45-.2-.18-.29-.5-.49-.7-.2-.19-.52-.26-.72-.46s-.37-.42-.57-.62-.38-.4-.58-.6-.31-.47-.51-.68-.42-.37-.61-.57-.44-.36-.63-.56-.45-.35-.64-.55-.31-.48-.51-.68-.41-.4-.6-.6-.36-.44-.55-.64-.41-.39-.6-.59-.42-.39-.6-.59-.3-.49-.49-.69c-.2-.21-.43-.38-.61-.58-.2-.22-.42-.4-.6-.59-.2-.22-.36-.45-.53-.65-.21-.23-.41-.43-.58-.61-.22-.25-.33-.53-.47-.69l.03-.02c.19.21.34.46.53.67s.31.48.51.69.5.31.7.52.36.44.56.65.35.46.54.66.43.38.63.59.4.41.6.61.4.41.6.61.44.37.65.57.41.4.61.6.3.51.5.71.46.35.66.55.45.36.65.55.41.4.62.59.42.4.62.59.44.37.65.56c.22.2.41.41.62.59.22.2.44.37.65.55.22.19.47.35.68.52.23.2.41.43.62.6.24.19.48.36.68.51.26.2.49.35.69.48.35.23.6.33.75.34.33.02.66,0,.92-.17s.4-.49.57-.75.32-.56.43-.83c.19-.48.27-.78.27-.79.36.08.37.05.72.15,0,.04-.07.26-.21.66-.08.21-.25.42-.37.67-.11.22-.11.53-.26.74s-.44.3-.63.47-.31.47-.56.57c-.23.09-.52-.01-.79-.01Z"/>
          </g>
          <g>
            <path class="cls-5" d="M159.01,84.27c.18.17.36.38.58.58.19.18.48.27.69.47.19.18.4.36.61.55.19.18.32.45.53.64.2.18.49.27.69.47s.29.49.49.68.46.31.66.49.45.32.65.51.35.43.56.62.41.36.62.55.34.44.55.63.52.25.73.43.3.5.51.68.53.24.74.42.39.39.6.57.41.37.62.55.35.44.56.62.46.33.67.5.48.3.69.47c.22.18.49.28.7.45.23.18.38.42.59.58.23.18.47.32.69.47.25.17.46.36.67.49.27.17.53.28.73.38.39.19.58.22.69.1.16-.17.36-.37.44-.68.07-.25.05-.54.09-.84.03-.27,0-.55.01-.84s.05-.56.04-.84-.04-.57-.05-.84c-.02-.31.07-.61.05-.85-.04-.5-.17-.4-.22-.82"/>
            <path class="cls-6" d="M174.71,97.72c-.19,0-.48-.12-.8-.29-.21-.11-.37-.38-.63-.55-.21-.14-.44-.29-.68-.46-.21-.15-.53-.19-.76-.37-.21-.16-.33-.46-.55-.64-.21-.17-.47-.29-.68-.47-.21-.17-.37-.41-.58-.59s-.5-.25-.71-.43-.32-.46-.53-.65-.46-.31-.67-.5-.45-.32-.65-.51-.37-.41-.58-.6-.43-.35-.63-.54-.37-.42-.58-.61-.39-.4-.59-.59-.5-.29-.7-.48-.42-.37-.62-.56-.33-.47-.53-.66-.5-.29-.69-.48-.29-.51-.48-.69c-.21-.2-.46-.33-.66-.51-.21-.2-.45-.35-.64-.53-.21-.21-.35-.46-.53-.63-.22-.22-.42-.4-.6-.57-.27-.26-.4-.53-.52-.64l-.02.02c.2.19.29.51.49.7s.52.26.73.45.38.41.59.6.4.39.61.58.34.46.55.65.45.35.65.53.46.33.67.51.48.31.69.49.36.45.57.63.44.35.65.53.41.39.62.57.45.34.67.52.46.33.67.5.36.44.58.62.48.31.69.48.47.32.68.49.42.38.63.55c.23.18.46.34.67.5.23.18.38.44.6.6.23.18.54.23.75.39.24.18.43.39.65.54.25.17.42.41.64.55.27.17.58.19.79.31.35.19.55.34.71.35.12-.16.26-.38.33-.69.05-.23.04-.5.07-.78.02-.25.03-.51.04-.78,0-.26.01-.52,0-.79s-.07-.53-.09-.79-.04-.53-.06-.78c-.03-.28.04-.46.01-.7.34-.16.32-.16.69-.15.01.11.07.4.11.84.02.26.04.56.06.89.02.28.02.58.02.89s.03.6.01.89-.07.6-.1.89c-.04.31-.09.62-.16.88-.1.32-.2.63-.37.82-.07.08-.25.13-.48.13,0,0-.01.09-.02.09Z"/>
          </g>
          <g>
            <path class="cls-5" d="M135.45,89.16c.27-.32.07-.33.43-.74.15-.18.41-.33.62-.57.17-.19.34-.41.54-.63.17-.19.42-.34.62-.56.18-.2.39-.38.59-.6.18-.2.27-.5.47-.71.18-.2.35-.43.54-.64s.4-.38.6-.59.34-.44.54-.65.52-.27.71-.47.34-.44.53-.65.33-.45.53-.65.44-.35.64-.55.38-.41.58-.61.44-.36.63-.55.4-.39.6-.59.38-.42.58-.61.36-.43.57-.63.41-.38.62-.58.5-.29.7-.48.33-.47.54-.66.48-.31.69-.49.43-.36.64-.55.32-.5.53-.67.45-.35.66-.53.46-.34.67-.51.54-.23.76-.39.45-.34.68-.5c.24-.17.38-.46.6-.61.24-.16.57-.17.8-.31.25-.15.46-.35.7-.47.26-.14.54-.19.79-.29.28-.12.49-.34.74-.41.29-.08.58,0,.84,0,.27-.01.54-.07.82-.04s.55.03.82.1c.26.07.51.2.77.3.25.09.52.18.77.3s.46.29.71.43.46.29.7.44.53.18.76.34.46.3.68.47.37.42.59.59.51.24.73.42.32.48.53.66.47.3.68.48.45.32.66.51.35.44.55.63.4.38.6.57.32.46.52.65.51.28.7.48.27.51.46.71.51.28.7.48.35.43.54.63.37.41.56.61.3.48.49.68.41.38.6.58.43.36.62.56.45.34.64.54c.2.21.32.47.5.66.2.2.41.38.6.57.2.2.38.42.57.59s.43.32.67.5c.21.15.46.27.71.42.23.14.41.37.66.51.23.13.51.21.76.34s.51.2.77.33.48.27.74.38.51.2.77.31.47.32.73.42.56.08.82.17.5.25.76.35.49.28.75.38.58.04.84.13.52.22.78.31.52.24.78.32.55.13.81.21.54.16.8.24c.24.07.51.15.79.23.26.07.54.1.81.19s.53.19.77.3.42.39.63.54c.23.17.46.3.61.52s.29.46.32.75c.02.25-.15.49-.46.69-.2.13-.47.25-.78.36-.25.09-.52.19-.82.26-.26.06-.55.09-.84.14-.27.05-.55.11-.85.14-.28.04-.56.11-.85.14s-.57-.02-.86,0-.57.06-.86.07-.57.03-.86.03-.58.02-.86.02-.58-.11-.86-.12-.58.07-.87.05c-.3-.02-.58-.05-.86-.07-.3-.03-.57-.15-.84-.19-.3-.04-.58-.08-.84-.14-.31-.07-.6-.08-.84-.16-.22-.08-.43-.26-.7-.39-.22-.11-.54-.1-.79-.24-.22-.12-.38-.4-.62-.55-.22-.13-.56-.11-.79-.26-.22-.14-.39-.39-.62-.54s-.46-.28-.69-.43-.47-.27-.7-.42-.37-.42-.59-.58-.53-.19-.75-.35-.38-.41-.6-.57-.46-.31-.67-.47-.42-.35-.64-.51-.5-.25-.72-.41-.38-.41-.59-.57c-.22-.17-.46-.31-.67-.47-.22-.17-.46-.31-.68-.47s-.5-.27-.72-.44-.34-.47-.56-.64-.44-.34-.67-.5-.46-.32-.68-.48-.54-.19-.77-.34-.41-.39-.64-.53-.48-.27-.72-.4-.49-.26-.73-.38-.51-.2-.77-.31-.46-.32-.72-.42-.51-.21-.78-.28-.56-.04-.83-.1-.54-.08-.82-.12c-.25-.04-.53-.07-.83-.08-.26-.02-.54-.11-.83-.11-.27,0-.55-.03-.84-.01-.27.02-.54.14-.83.17-.27.03-.54.09-.82.14-.27.04-.54.11-.82.17-.27.06-.53.13-.81.2s-.57,0-.85.07-.53.17-.8.26-.52.19-.79.29-.49.27-.75.38-.5.24-.76.36-.56.11-.82.23-.46.32-.71.45-.49.25-.74.39-.46.31-.71.45-.47.3-.71.45-.45.32-.69.48-.53.2-.76.36-.46.31-.69.48-.4.39-.63.56-.39.4-.61.57-.44.34-.66.52-.46.33-.67.51"/>
            <path class="cls-6" d="M182.71,94.73c-.3,0-.6-.11-.9-.12s-.61.09-.9.08-.61-.02-.9-.04c-.31-.03-.6-.15-.88-.19-.32-.04-.61-.09-.88-.15-.32-.07-.62-.1-.87-.19-.22-.08-.46-.22-.74-.35-.22-.11-.5-.18-.76-.32-.22-.12-.44-.3-.69-.45-.22-.13-.49-.22-.74-.38-.22-.14-.43-.33-.67-.48-.22-.14-.45-.29-.69-.45-.22-.15-.42-.33-.66-.49-.22-.15-.4-.37-.63-.53-.22-.15-.54-.17-.77-.34-.22-.15-.34-.45-.57-.61s-.43-.33-.66-.49-.51-.22-.74-.39-.38-.39-.61-.56-.52-.22-.75-.39-.42-.36-.64-.53c-.48-.37-.45-.41-.93-.78-.23-.17-.52-.27-.74-.44s-.4-.41-.63-.58-.44-.36-.67-.53-.52-.26-.75-.41-.41-.41-.64-.57-.49-.29-.73-.43-.56-.15-.81-.28-.42-.43-.68-.54-.58-.07-.85-.17-.48-.34-.75-.42-.58-.02-.86-.08-.54-.17-.82-.21c-.26-.04-.53-.09-.82-.11-.26-.02-.54-.05-.83-.05-.27,0-.54.06-.83.07-.27.01-.54.09-.82.11-.27.03-.56-.06-.84-.02s-.52.18-.8.23-.56,0-.84.06-.49.28-.77.35-.57-.01-.84.07-.51.21-.78.3-.52.18-.78.28-.51.22-.77.33-.53.16-.79.27-.46.31-.72.43-.51.22-.76.35-.44.34-.69.48-.56.14-.8.28-.4.4-.64.55-.52.21-.75.36-.36.44-.59.61-.54.19-.77.36-.34.46-.56.63-.49.28-.71.45-.42.37-.63.55l.02.02c.22-.19.45-.34.67-.52s.35-.46.57-.64.42-.38.64-.55.47-.32.7-.48.43-.38.66-.54.57-.17.8-.32.44-.37.67-.52.44-.37.68-.51.52-.23.77-.37.49-.29.73-.42.53-.22.78-.34.51-.25.76-.37.5-.27.75-.38.5-.28.76-.38.53-.2.79-.3.58-.07.84-.16.51-.29.78-.36.57-.06.84-.12.56-.12.83-.17c.28-.05.54-.27.81-.31.29-.04.57-.06.84-.08.29-.02.58-.02.85-.02.29,0,.57.15.84.16.29.02.56.03.83.07.27.04.57-.07.83-.02s.49.28.75.35.54.09.79.18.48.26.73.37.55.1.79.21.42.37.65.5.5.2.74.35.49.23.72.38.42.35.64.5.46.29.68.45.4.36.62.53.41.34.63.51.51.23.73.39c.48.37.49.35.97.72.24.18.4.44.63.61s.55.25.77.42.37.48.6.65.52.28.75.44.51.29.74.46c.24.17.43.41.66.57.24.17.48.33.71.49.24.17.43.42.66.57.25.17.58.19.81.35.25.17.4.47.63.62.26.16.59.17.83.31.26.16.49.34.72.47.28.16.52.3.76.42.3.15.52.37.74.45.23.08.52.12.83.18.25.05.54.03.84.07.26.04.55-.02.84,0,.27.02.54.14.83.16s.56,0,.84,0,.56.04.84.04.56-.04.84-.05.56-.06.84-.07.57.08.85.06.56-.1.84-.13.56-.1.84-.14c.29-.04.57-.04.84-.09.29-.05.56-.12.82-.19.3-.07.6-.04.84-.13.31-.11.5-.36.68-.49.09-.07.23-.1.22-.2-.03-.28-.06-.57-.24-.78-.16-.19-.47-.25-.72-.39-.22-.13-.44-.28-.7-.39s-.48-.25-.74-.33-.54-.12-.79-.19q-.22-.06-.44-.13c-.24-.07-.51-.16-.8-.25-.25-.08-.54-.11-.82-.2-.26-.08-.53-.17-.8-.26-.26-.09-.48-.32-.75-.42s-.55-.12-.82-.21-.54-.14-.81-.24-.52-.2-.79-.3-.52-.21-.79-.31-.53-.19-.79-.3-.51-.25-.77-.36-.53-.22-.78-.34-.54-.21-.78-.33-.48-.33-.72-.46c-.26-.14-.51-.27-.74-.42-.25-.16-.49-.31-.7-.47-.24-.18-.47-.35-.66-.53-.19-.17-.31-.43-.5-.63-.18-.18-.43-.31-.63-.5-.18-.18-.36-.38-.55-.58-.18-.19-.3-.45-.49-.64s-.37-.38-.56-.58-.41-.34-.6-.54c-.18-.2-.31-.45-.5-.65s-.49-.29-.68-.49-.26-.5-.45-.7-.52-.26-.71-.46-.29-.47-.49-.67-.4-.38-.59-.57-.42-.35-.62-.55-.3-.48-.5-.67-.5-.27-.7-.46-.33-.45-.53-.64-.42-.35-.63-.53-.39-.39-.6-.56-.49-.27-.7-.44-.37-.43-.59-.59-.46-.31-.68-.46-.48-.28-.7-.43-.51-.22-.75-.35-.41-.42-.65-.54c-.25-.12-.51-.24-.76-.34-.26-.1-.53-.19-.79-.26-.27-.08-.57.02-.83-.02-.28-.04-.54-.15-.81-.14-.25.01-.52.09-.82.17-.25.07-.5.18-.77.3-.24.1-.46.27-.72.41-.23.12-.53.16-.78.31-.23.14-.48.27-.72.43-.22.15-.39.39-.62.56s-.43.34-.65.51-.44.33-.66.51-.49.27-.7.45-.45.32-.67.5-.36.43-.57.61-.4.38-.61.56-.4.38-.6.57-.4.38-.6.57-.51.26-.71.45-.39.39-.6.58-.39.4-.59.59-.34.45-.54.64-.37.41-.57.61-.49.3-.68.49-.33.46-.53.65-.39.39-.59.59-.36.43-.55.63-.37.42-.56.62-.36.43-.55.62-.47.32-.66.52-.39.41-.57.6c-.19.21-.33.47-.51.67-.19.21-.33.47-.51.66-.2.21-.39.41-.57.61-.2.22-.42.4-.59.59-.2.22-.37.45-.54.63-.21.24-.5.35-.66.53-.33.38-.5.68-.52.7-.29-.23-.31-.23-.56-.51.06-.07.35-.26.65-.6.16-.18.31-.42.53-.66.17-.19.26-.49.46-.71.18-.2.46-.32.66-.55.18-.2.3-.47.5-.69.18-.2.39-.4.59-.61.19-.2.36-.43.56-.64s.38-.41.58-.62.48-.32.68-.53.34-.44.54-.65.32-.47.52-.67.5-.3.7-.5.33-.46.53-.66.39-.41.59-.61.49-.31.69-.51.35-.45.55-.65.41-.4.61-.59.4-.4.61-.6.37-.44.58-.63.52-.27.73-.47.31-.51.52-.7.47-.32.69-.51.39-.42.6-.6.47-.33.68-.51.52-.27.73-.45.39-.43.61-.6.41-.42.63-.59.56-.2.79-.36c.24-.17.4-.43.63-.58.25-.16.48-.33.71-.47.25-.15.53-.24.78-.36.26-.14.56-.16.81-.26.28-.12.52-.27.77-.33.29-.08.57-.08.83-.1.28-.01.55.04.83.07s.57-.04.85.03c.27.07.51.23.78.33.26.1.56.11.82.23s.51.23.77.37.51.25.75.4.41.41.64.57.48.29.72.46.5.27.73.45.33.49.55.67.54.24.75.42.33.48.54.67.4.39.61.59.5.3.7.49.36.44.57.64.48.32.68.52.3.5.5.7.42.38.62.59.44.37.64.58.44.37.63.57.39.41.58.61.29.51.48.71c.18.2.38.38.56.57s.35.41.53.6.38.37.56.56c.19.2.41.35.59.53.19.2.34.43.52.6.2.19.36.4.55.57.19.17.45.29.69.46.21.15.43.32.67.47.22.14.49.22.74.36.23.13.41.38.66.51s.49.25.74.37.57.06.83.17.5.22.75.33.45.36.7.46.54.14.79.23.53.16.78.26.51.23.76.32.56.07.82.15c.27.09.53.19.78.27.27.09.52.21.77.29.28.09.52.23.76.31.29.09.56.14.79.21.22.06.23.02.44.08.25.07.48.29.75.37s.56.06.81.17.48.28.72.41c.25.14.52.23.72.41.21.19.35.43.48.67s.2.48.22.77c.02.24,0,.59-.44.92-.18.14-.44.2-.73.31-.22.09-.44.3-.71.38-.24.07-.51.11-.79.16-.25.05-.53,0-.8.05-.26.04-.5.2-.78.23s-.53,0-.8.02-.53,0-.8.03-.53.04-.8.06-.53.1-.8.11-.54-.02-.81-.02Z"/>
          </g>
        </g>
        <g>
          <path class="cls-5" d="M64.81,88.67c.24.34-.23-.09-.76.02-.23.05-.5.11-.82.18-.25.05-.49.26-.79.32-.26.05-.55.01-.84.07-.26.05-.53.13-.82.19-.26.05-.54.12-.82.17-.27.05-.53.15-.81.21-.27.05-.56-.01-.85.04s-.55.07-.83.13-.52.2-.8.26-.54.13-.82.18-.55.1-.82.15-.56,0-.84.06-.56.05-.83.1-.53.18-.81.23-.55.11-.83.16-.55.11-.83.16-.55.1-.82.14-.57-.06-.85-.02-.55.1-.83.14-.55.1-.83.14-.54.16-.82.2-.55.11-.83.15-.57-.05-.85-.02-.55.16-.82.2-.56.07-.84.1-.55.11-.83.15-.56.09-.84.12-.56.09-.84.13-.58-.06-.85-.03-.56.05-.84.08-.56.13-.83.16-.56.13-.84.15-.57.04-.84.06-.57,0-.85.02-.56.05-.84.07-.57-.11-.85-.1-.56.14-.84.15-.57,0-.84,0-.57-.12-.84-.12-.57.03-.84.02c-.29-.01-.58.11-.85.09-.29-.02-.56-.16-.83-.19-.29-.03-.58.03-.85-.01-.29-.04-.57-.12-.82-.18-.29-.07-.57-.12-.82-.2-.29-.1-.56-.22-.78-.34-.27-.15-.4-.43-.56-.62-.18-.23-.32-.44-.34-.72s-.1-.57-.06-.85.25-.51.34-.78.11-.55.24-.8.25-.5.4-.74.41-.39.58-.61.28-.48.48-.69.38-.41.58-.61.39-.4.6-.59.38-.42.59-.6.53-.23.75-.41.34-.48.57-.64.5-.27.73-.43.43-.37.67-.52.5-.26.74-.41.54-.19.78-.34.44-.37.68-.51.45-.36.69-.49c.25-.14.58-.12.82-.25.26-.14.45-.38.69-.5.26-.13.5-.28.74-.4.27-.13.55-.2.79-.31.29-.14.59-.16.81-.26.48-.22.31-.42.72-.39s.39.15.79.25.4.14.8.25.44-.02.84.09.38.19.79.29.43,0,.83.11.41.09.81.19.41.07.82.18.37.23.77.34.41.07.82.18.43.03.83.14.36.28.76.39.44-.05.85.06.37.25.77.36.4.13.81.23.44-.01.84.1.39.17.79.28.43,0,.84.11.37.24.78.35.41.08.82.18.42.05.82.16.42.05.83.15.41.1.82.21.37.24.78.35.43.02.81.2.3.25.63.48.34.22.67.45.36.19.69.42.29.28.62.51.31.26.64.49.37.17.7.4.32.25.65.48.37.18.7.42.25.36.58.58.4.11.64.44Z"/>
          <g>
            <path class="cls-5" d="M51.55,90.06c.28.27.25.19.63.47.18.14.45.21.7.37.21.13.36.41.61.53.23.11.48.22.74.31s.52.15.78.2.54-.07.8-.07c.24,0,.46-.15.63-.52.11-.24.18-.55.26-.86.07-.29.12-.59.17-.89.06-.32.05-.63.08-.9.07-.52.18-.43.21-.88"/>
            <path class="cls-6" d="M55.83,92.4c.28,0,.44-.28.6-.56.12-.2.31-.43.39-.73.06-.25.09-.53.13-.82.04-.27.1-.54.12-.82s-.06-.57-.04-.83c.02-.29.14-.56.16-.82h-.12c-.02.26-.02.53-.07.8s-.02.56-.09.82c-.07.27-.32.48-.4.72-.1.28-.21.52-.31.73-.18.36-.27.55-.39.59-.3,0-.61.1-.89.04s-.56-.26-.83-.37c-.29-.12-.57-.23-.82-.37-.29-.16-.55-.32-.76-.47-.43-.3-.64-.51-.64-.52-.26.27-.36.18-.6.46.03.03.25.36.64.64.19.14.49.22.76.38.22.14.48.25.74.37.24.11.5.22.77.31s.51.25.79.3.55.13.84.14c0,0,.02,0,.02,0Z"/>
          </g>
          <g>
            <path class="cls-5" d="M46.06,92.96c.33.24.28.18.69.41.21.12.47.2.74.32.24.1.46.33.72.4s.56-.02.82-.02.56.08.81,0,.48-.25.68-.46c.17-.18.36-.39.48-.67.11-.26.13-.55.23-.8s.31-.48.42-.73.18-.53.28-.78c.11-.27.17-.54.27-.79.11-.28.12-.57.21-.81.11-.29.37-.5.44-.72.17-.48.14-.38.27-.77"/>
            <path class="cls-6" d="M49.13,94.48c.23,0,.45-.02.66-.08.23-.06.49-.08.69-.21s.37-.31.52-.5c.14-.18.2-.42.3-.65.11-.26.29-.49.39-.74s.06-.58.15-.84.34-.48.42-.73c.09-.28,0-.6.07-.86.09-.29.28-.52.34-.77.08-.3.13-.58.19-.81.12-.49.14-.81.14-.81h-.04s0,.32-.22.78c-.1.21-.32.42-.45.7-.11.23-.21.49-.34.75-.11.24-.26.47-.38.73-.11.24-.13.54-.25.79s-.32.46-.44.71-.2.52-.31.77c-.11.24-.2.45-.36.61-.17.17-.35.37-.59.43-.28.07-.59-.09-.89-.14-.29-.04-.56-.13-.84-.23-.3-.11-.57-.23-.81-.36-.45-.24-.74-.34-.74-.35-.22.3-.32.23-.52.54.03.02.34.25.78.49.23.13.51.26.81.38.27.11.56.16.86.23s.58.15.87.15Z"/>
          </g>
          <g>
            <path class="cls-5" d="M41.7,93.78c.01.38.03.32.11.75.04.23.1.48.18.74.08.24.18.47.31.69s.22.5.42.65.47.18.75.2c.19.01.43-.12.72-.39.18-.16.44-.31.65-.56.17-.2.34-.43.52-.68.16-.22.28-.49.45-.73.16-.23.38-.42.54-.66.15-.23.18-.56.33-.8s.44-.39.59-.64.13-.58.28-.83.39-.43.54-.67.27-.51.41-.75.25-.52.39-.77.4-.44.54-.68c.14-.26.15-.58.29-.82.14-.26.38-.46.51-.7.15-.27.27-.53.39-.76.15-.29.32-.52.43-.73.25-.47.11-.42.3-.79"/>
            <path class="cls-6" d="M43.46,97.15c.15,0,.33-.08.66-.39.16-.15.45-.24.67-.49.15-.18.27-.44.45-.69.15-.2.26-.45.43-.7.14-.21.3-.43.46-.68.14-.22.29-.45.44-.69.14-.22.26-.47.4-.72.13-.22.3-.45.44-.69.13-.23.26-.47.4-.72.13-.23.23-.49.37-.74.13-.23.32-.44.46-.68.13-.23.24-.48.38-.73.13-.23.25-.48.39-.73s.25-.48.38-.73.35-.43.48-.68.18-.52.31-.77.26-.48.39-.73.34-.44.47-.69l-.14-.07c-.13.24-.2.52-.33.76s-.33.45-.46.69-.13.56-.27.81-.41.41-.55.65-.11.58-.25.82-.38.42-.53.66-.27.49-.41.72-.25.5-.4.73-.41.4-.56.63-.18.55-.33.78-.4.41-.55.63c-.16.24-.3.48-.46.69-.17.24-.36.44-.51.65-.17.24-.26.52-.42.73-.18.24-.44.39-.6.58-.2.24-.37.46-.53.62-.29.29-.49.47-.64.47-.29-.02-.57-.11-.75-.32-.17-.2-.15-.53-.24-.8s-.16-.53-.21-.78c-.09-.45-.2-.87-.2-.88-.37,0-.36.15-.74.18,0,.04-.02.34.07.8.05.26.14.55.24.84.09.27.22.54.38.78s.38.43.62.59.46.37.78.39c.01,0,.03-.11.04-.11Z"/>
          </g>
          <g>
            <path class="cls-5" d="M34.85,94.08c.16.41.07.36.3.83.12.23.3.48.46.75.15.24.32.49.51.72s.39.46.61.64c.24.2.51.29.78.38s.54.09.84,0c.19-.06.51-.08.78-.31.19-.16.35-.4.57-.62.18-.18.34-.42.54-.64.18-.2.37-.4.55-.62.17-.2.36-.42.54-.64.17-.21.32-.44.5-.67s.36-.42.54-.64.33-.45.49-.67.3-.47.46-.69.39-.41.55-.63.32-.46.48-.69.32-.46.49-.69.32-.47.47-.69.41-.4.56-.63c.16-.24.25-.52.4-.74.17-.24.33-.47.48-.69.17-.25.41-.43.55-.64.18-.26.33-.5.46-.7.29-.43.18-.38.4-.72"/>
            <path class="cls-6" d="M37.95,97.79c.17,0,.35.08.53.03.2-.06.41-.26.69-.49.19-.16.36-.38.58-.6.18-.19.4-.37.6-.59.18-.2.35-.43.53-.66.17-.21.44-.36.62-.59.17-.22.23-.52.41-.76s.39-.41.56-.64.41-.4.58-.63.2-.55.37-.78.36-.44.52-.67.38-.43.54-.66.29-.49.44-.73.32-.47.47-.71.32-.47.47-.7c.16-.24.27-.51.42-.74.16-.25.31-.49.46-.71.16-.25.45-.41.59-.63.17-.27.27-.54.4-.75.21-.33.33-.6.41-.74h.02c-.15.23-.3.46-.46.69s-.28.46-.44.69-.33.43-.49.66-.3.45-.46.68-.28.47-.45.69-.38.4-.54.62-.31.45-.48.67-.33.44-.49.66-.33.45-.49.67-.42.38-.59.59-.28.49-.45.71-.36.43-.53.64-.43.37-.6.58-.35.43-.53.63c-.19.22-.32.46-.49.66-.19.22-.44.36-.61.55-.2.21-.28.52-.46.7-.22.22-.53.28-.71.43-.28.23-.43.55-.6.6-.27.08-.55-.06-.79-.16-.23-.09-.45-.23-.66-.42-.19-.17-.4-.35-.56-.56s-.19-.51-.33-.73c-.15-.24-.4-.41-.51-.62-.2-.41-.29-.78-.29-.79-.35.13-.35.13-.69.29.02.05.09.43.31.86.12.23.35.45.52.72.15.24.23.55.42.79s.41.45.63.64.5.35.75.48.56.11.86.11Z"/>
          </g>
          <g>
            <path class="cls-5" d="M29.6,94.44c.09.41.16.31.34.77.09.24.12.54.26.8.14.24.32.46.51.67s.39.42.64.54.52.14.82.13c.17,0,.38-.16.71-.37.2-.13.49-.2.73-.39.2-.15.38-.38.6-.56.2-.17.38-.38.6-.57.2-.17.43-.33.64-.52.2-.18.39-.38.6-.57.2-.18.47-.29.68-.48s.3-.48.5-.67.44-.34.64-.53.46-.31.66-.51.28-.5.48-.69.42-.36.62-.56.44-.35.64-.55.36-.43.56-.63.39-.4.58-.6.4-.4.59-.6.35-.44.53-.64.39-.41.58-.61.5-.3.69-.5c.2-.21.34-.45.52-.65.2-.21.35-.45.53-.64.2-.22.4-.42.57-.6.22-.23.41-.43.57-.6.35-.38.26-.32.53-.62"/>
            <path class="cls-6" d="M32.08,97.83s.08-.09.12-.09c.19-.01.4-.17.72-.37.2-.13.48-.22.73-.41.2-.16.42-.34.65-.53.2-.17.48-.28.7-.48.2-.18.3-.49.51-.69.2-.18.52-.25.73-.45.2-.19.28-.51.48-.71s.42-.36.62-.56.4-.39.6-.59.47-.32.67-.52.36-.43.55-.63.34-.45.53-.65.32-.47.52-.67.46-.34.65-.55.37-.43.56-.64.41-.39.6-.6.36-.44.54-.65.35-.45.53-.65.46-.35.64-.55c.2-.21.34-.46.52-.67.2-.22.35-.45.53-.65.2-.22.41-.4.59-.6.21-.23.38-.45.55-.64.22-.25.5-.38.64-.54l.03.02c-.19.21-.43.38-.62.58s-.46.35-.66.56-.28.52-.48.73-.43.38-.62.59-.45.36-.64.57-.37.44-.57.64-.4.41-.6.61-.41.4-.61.6-.37.45-.57.65-.41.41-.61.6-.52.29-.72.49-.37.45-.57.64-.38.43-.58.63-.42.39-.63.58-.42.39-.63.58-.41.41-.61.6c-.22.2-.45.37-.66.55-.22.2-.42.4-.63.58-.22.19-.41.41-.62.59-.23.2-.5.32-.71.49-.24.19-.45.39-.66.54-.26.2-.49.36-.69.5-.35.23-.61.37-.76.37-.33.02-.59-.17-.84-.35s-.51-.35-.68-.62-.31-.57-.42-.84c-.19-.48-.29-.96-.29-.97-.36.08-.37.07-.73.17,0,.04.09.41.23.81.08.21.11.5.23.75.11.22.38.37.53.58s.21.52.4.69.51.15.75.25c.23.09.44.31.72.31Z"/>
          </g>
          <g>
            <path class="cls-5" d="M42.3,84.21c-.18.17-.39.34-.61.55-.19.18-.3.46-.51.66-.19.18-.38.38-.59.57-.19.18-.47.29-.68.48-.2.18-.31.46-.52.66s-.51.25-.71.43-.34.43-.55.62-.36.42-.57.6-.46.31-.67.49-.4.37-.61.56-.48.29-.68.48-.31.49-.51.67-.53.24-.74.42-.31.5-.52.68-.45.33-.65.51-.43.35-.64.53-.5.28-.7.45-.4.39-.61.56-.39.41-.6.58c-.22.18-.38.42-.59.59-.23.18-.51.27-.72.42-.23.18-.44.36-.66.51-.25.17-.49.3-.7.44-.27.17-.49.35-.7.44-.39.19-.73.26-.84.14-.16-.17-.19-.49-.28-.81-.07-.25-.18-.52-.21-.82-.03-.27-.09-.55-.1-.84s.03-.57.03-.85,0-.58.01-.85c.02-.31.15-.59.17-.83.04-.5-.1-.43-.05-.85"/>
            <path class="cls-6" d="M26.66,97.56c.19,0,.42-.06.75-.24.21-.11.53-.13.79-.3.21-.14.44-.31.68-.48.21-.15.33-.45.56-.63.21-.16.53-.21.75-.39.21-.17.38-.4.6-.58.21-.17.47-.29.68-.47s.33-.46.54-.64.51-.25.72-.44.37-.42.57-.6.37-.41.57-.6.45-.33.65-.52.39-.39.59-.58.45-.34.65-.53.43-.36.63-.55.32-.48.52-.67.4-.39.6-.58.48-.3.68-.49.32-.48.51-.67.52-.27.71-.45c.21-.2.35-.45.54-.64.21-.2.36-.44.55-.62.21-.21.47-.34.65-.52.22-.22.42-.41.59-.58.27-.26.54-.38.66-.5l-.02-.02c-.2.19-.52.26-.73.45s-.29.51-.49.7-.44.35-.64.54-.42.37-.63.56-.49.3-.7.49-.39.41-.6.59-.37.43-.58.61-.36.44-.57.63-.49.3-.7.48-.41.39-.62.57-.45.34-.66.52-.4.4-.62.57-.4.4-.61.58-.5.28-.71.45-.4.41-.61.58-.41.39-.63.56-.47.33-.68.5c-.23.18-.44.37-.65.53-.23.18-.52.26-.74.42-.23.18-.38.45-.59.61-.24.18-.51.29-.72.44-.25.17-.53.25-.75.39-.27.17-.42.45-.63.56-.35.19-.66.26-.81.28-.12-.16-.16-.45-.23-.76-.05-.23-.12-.48-.15-.76-.02-.25-.03-.51-.04-.78,0-.26,0-.52,0-.79s-.04-.53-.02-.79.03-.54.06-.79c.03-.28.15-.63.18-.87-.34-.16-.41-.05-.78-.04-.01.11-.04.47-.08.91-.02.26-.05.56-.07.88-.02.28-.03.58-.04.89s.03.59.04.89,0,.61.05.89c.04.31.11.61.19.87.1.32.26.56.43.74.07.08.16.23.38.23,0,0,.01-.09.02-.09Z"/>
          </g>
          <g>
            <path class="cls-5" d="M66,89.08c-.27-.32-.32-.12-.67-.52-.15-.18-.27-.44-.49-.68-.17-.19-.37-.39-.57-.61-.17-.19-.3-.46-.5-.68-.18-.2-.34-.43-.54-.64-.18-.2-.47-.31-.67-.53-.18-.2-.4-.38-.6-.59s-.35-.43-.55-.64-.42-.37-.61-.57-.24-.53-.44-.73-.43-.36-.62-.56-.44-.35-.64-.55-.34-.45-.54-.65-.4-.39-.6-.59-.36-.44-.56-.63-.39-.4-.59-.59-.43-.37-.63-.56-.45-.35-.65-.54-.41-.39-.61-.58-.33-.47-.53-.66-.5-.29-.7-.48-.36-.45-.57-.63-.42-.38-.63-.56-.54-.24-.75-.42-.42-.37-.64-.55-.43-.37-.65-.54-.36-.47-.58-.63-.46-.33-.69-.49c-.24-.17-.56-.19-.79-.34-.24-.16-.39-.45-.63-.59-.25-.15-.53-.23-.77-.35-.26-.14-.49-.33-.73-.43-.28-.12-.59-.09-.84-.16-.29-.08-.55-.27-.8-.28-.27-.01-.55.07-.83.1s-.52.14-.8.22c-.26.07-.54.1-.8.2-.25.09-.49.23-.75.35s-.51.19-.76.33-.49.25-.73.4-.39.4-.62.56-.44.32-.66.49-.5.24-.72.41-.35.44-.56.62-.53.23-.74.41-.36.43-.57.61-.37.42-.57.6-.46.32-.66.51-.39.39-.59.58-.47.32-.66.51-.28.51-.47.7-.51.28-.7.48-.26.52-.45.72-.41.37-.6.57-.39.39-.58.59-.46.33-.65.53-.35.43-.54.63-.34.45-.52.65-.32.47-.51.66c-.2.21-.46.33-.65.53-.2.2-.37.42-.56.6-.2.2-.42.37-.61.55s-.38.38-.62.56c-.21.15-.42.35-.66.51-.23.14-.52.19-.77.33-.23.13-.45.32-.71.45s-.47.29-.73.41-.52.2-.78.31-.5.24-.76.35-.56.11-.82.21-.47.33-.73.43-.54.14-.8.23-.56.1-.82.19-.48.33-.74.42-.54.14-.81.22-.56.11-.82.19-.52.21-.78.29-.54.16-.8.24c-.24.07-.51.14-.79.22-.26.07-.5.21-.77.3s-.51.19-.76.31-.58.12-.8.28c-.23.17-.4.42-.55.64s-.2.5-.23.79c-.02.25.13.47.44.67.2.13.46.26.77.36.25.09.53.14.83.21.26.06.54.15.83.2.27.05.56.08.85.12.28.04.57.03.86.05s.56.12.85.14.57.02.86.03.57.02.86.02.58,0,.86,0,.58.1.86.09.58-.11.86-.13c.3-.02.58-.03.86-.06.3-.03.6.03.87,0,.3-.04.59-.1.85-.16.31-.07.58-.2.81-.29.22-.08.5-.12.78-.25.22-.11.39-.38.64-.52.22-.12.54-.12.78-.27.22-.13.35-.44.59-.59.22-.14.51-.19.75-.34s.44-.31.67-.47.42-.34.65-.5.52-.2.75-.35.36-.43.58-.59.51-.23.73-.39.43-.34.65-.5.46-.29.68-.46.38-.41.6-.57.51-.25.72-.41c.22-.17.43-.35.64-.51.22-.17.42-.36.64-.53s.39-.41.61-.58.55-.2.77-.37.45-.33.67-.49.44-.33.66-.49.37-.44.59-.6.51-.22.75-.37.46-.31.7-.44.48-.28.72-.4.47-.29.73-.4.55-.1.81-.2.52-.15.79-.23.5-.25.77-.3.53-.13.81-.17c.25-.04.54-.06.84-.08.26-.02.54.07.84.07.27,0,.54.06.83.08.27.02.55-.05.84-.01.27.03.55.05.83.1.27.04.55.08.83.14.27.06.54.11.82.18s.49.29.77.37.53.15.8.24.53.16.79.26.55.12.81.23.52.18.78.3.45.35.7.47.53.16.79.29.49.26.74.4.51.23.75.38.49.27.73.42.49.27.73.43.39.41.63.57.45.32.68.49.5.27.72.44.49.28.71.45.43.36.65.54.4.39.62.58"/>
            <path class="cls-6" d="M18.65,94.69c.3,0,.61.1.9.09s.6-.13.9-.15.6-.06.89-.09c.31-.03.62.03.9-.01.32-.04.61-.1.89-.16.32-.07.6-.19.85-.28.22-.08.48-.16.77-.29.22-.11.44-.29.7-.44.22-.12.48-.22.73-.37.22-.13.42-.33.67-.49.22-.14.48-.25.72-.4.22-.14.45-.3.68-.46.22-.15.47-.27.7-.43.22-.15.49-.25.72-.41.22-.15.35-.45.57-.61.22-.15.53-.18.76-.34s.45-.31.67-.48.37-.42.59-.59.49-.25.71-.42.36-.44.58-.61.46-.3.68-.47c.48-.37.52-.32,1-.69.23-.17.39-.43.62-.6s.51-.28.73-.45.47-.32.7-.48.41-.41.64-.56.53-.22.77-.37.47-.31.71-.46.42-.41.67-.54.59-.08.85-.2.45-.38.72-.48.58-.04.85-.12.51-.28.78-.35.56-.06.85-.1c.26-.04.54-.04.83-.06.26-.02.54,0,.83,0,.27,0,.54-.04.83-.03.27.01.55-.02.83.01.27.03.53.18.81.22s.56-.01.83.04.51.21.79.28.57-.03.84.05.48.3.75.39.53.12.8.21.52.18.78.28.52.18.78.29.48.27.73.39.53.15.79.27.48.27.73.4.53.17.78.31.4.41.64.55.54.17.78.32.4.39.64.54.55.18.78.34.36.45.58.62.54.2.76.37.38.41.6.59.44.34.65.53l.02-.02c-.22-.19-.41-.39-.63-.57s-.52-.26-.74-.43-.47-.32-.69-.49-.43-.37-.65-.54-.49-.29-.72-.45-.36-.48-.59-.63-.51-.26-.74-.41-.52-.24-.76-.38-.45-.35-.7-.49-.5-.27-.75-.4-.48-.32-.73-.44-.51-.26-.76-.38-.53-.2-.79-.31-.55-.17-.8-.27-.53-.21-.79-.3-.5-.31-.76-.39-.58-.05-.85-.13-.53-.24-.79-.3-.56-.14-.83-.19c-.28-.05-.59.06-.86.03-.29-.04-.56-.09-.83-.11-.29-.02-.57-.06-.84-.07-.29,0-.57-.15-.84-.14-.29.02-.58.05-.84.09-.27.04-.51.25-.77.3s-.57-.03-.83.04-.5.23-.76.32-.54.12-.79.22-.44.34-.68.46-.55.12-.79.25-.44.33-.67.47-.43.34-.65.49-.48.25-.7.41-.42.33-.65.49-.47.27-.68.44-.44.3-.66.47-.35.44-.57.6c-.48.37-.47.38-.95.74-.24.18-.53.26-.76.44s-.39.45-.62.62-.57.22-.8.38-.42.41-.65.58-.44.39-.67.56c-.24.17-.52.27-.75.44-.24.17-.48.34-.71.5-.24.17-.54.25-.77.41-.25.17-.4.46-.63.62-.25.17-.59.18-.82.33-.26.16-.41.46-.64.61-.26.16-.53.27-.76.4-.28.16-.54.28-.77.4-.3.15-.6.16-.82.24-.23.08-.48.19-.79.26-.25.05-.52.16-.82.2-.26.04-.54.15-.83.18-.27.02-.56-.06-.85-.04s-.56.05-.84.06-.56-.02-.84-.02-.56.04-.85.03-.57.03-.85.02-.56-.13-.84-.15-.57.02-.85,0-.58-.02-.85-.05c-.29-.04-.57-.12-.84-.16-.29-.05-.58-.09-.84-.15-.3-.07-.54-.26-.78-.35-.31-.11-.64-.12-.82-.26-.09-.07-.17-.25-.16-.34.03-.28.22-.47.4-.68.16-.19.28-.47.53-.62.22-.13.5-.21.75-.32s.53-.12.79-.2.52-.2.76-.27q.22-.06.44-.13c.24-.07.51-.15.81-.24.25-.08.5-.22.78-.31.26-.08.52-.17.8-.26.26-.09.58-.03.85-.12s.51-.24.78-.34.51-.24.77-.33.53-.19.79-.29.53-.2.79-.3.51-.24.77-.35.53-.2.79-.31.51-.25.76-.37.49-.29.74-.41.54-.2.78-.34c.26-.14.49-.3.72-.45.25-.16.48-.32.69-.48.24-.18.45-.36.64-.54.19-.17.45-.29.65-.48.18-.18.31-.43.5-.63.18-.18.37-.37.56-.57.18-.19.43-.32.62-.51s.36-.39.55-.59.32-.43.51-.63c.18-.2.43-.34.62-.54s.26-.5.45-.7.49-.28.68-.48.24-.53.43-.72.46-.31.66-.5.37-.4.56-.6.36-.42.55-.61.49-.29.69-.48.3-.48.5-.67.48-.29.68-.48.4-.38.6-.56.44-.33.65-.51.36-.43.57-.6.5-.26.72-.42.43-.35.65-.5.43-.34.66-.49.43-.37.66-.5.57-.12.81-.23c.25-.12.5-.23.74-.33.26-.1.51-.2.76-.27.27-.08.51-.28.77-.32.28-.04.56.05.82.06.25.01.52.04.82.12.25.07.51.16.78.28.24.1.51.18.77.32.23.12.41.36.66.51.23.14.44.31.68.47.22.15.51.22.74.38s.46.3.69.47.44.33.66.51.37.41.59.59.4.38.61.57.48.29.69.47.43.35.63.53.42.35.63.54.42.36.62.55.3.49.5.68.41.37.61.56.41.37.61.56.46.33.65.52.42.37.62.56.3.49.49.68.45.34.65.53.39.4.58.6.42.37.61.57.4.39.59.59.41.38.59.58.29.49.48.69.38.41.56.61c.19.21.44.36.62.56.19.21.44.37.62.56.2.21.38.42.55.62.2.22.35.45.53.65.2.22.4.42.57.61.21.24.29.54.44.71.33.38.54.51.56.53.29-.23.32-.19.57-.47-.06-.07-.16-.33-.46-.68-.16-.18-.37-.36-.59-.6-.17-.19-.45-.31-.66-.54-.18-.2-.27-.49-.47-.71-.18-.2-.44-.35-.64-.56-.18-.2-.36-.42-.56-.64-.19-.2-.4-.39-.59-.6s-.38-.41-.58-.62-.29-.5-.49-.71-.43-.36-.62-.57-.46-.34-.65-.54-.28-.51-.48-.71-.45-.34-.65-.55-.41-.39-.61-.59-.31-.49-.52-.69-.46-.34-.66-.54-.41-.4-.61-.59-.42-.38-.63-.58-.46-.34-.67-.54-.31-.5-.52-.69-.54-.26-.75-.44-.38-.43-.59-.62-.47-.33-.68-.51-.4-.41-.62-.59-.37-.46-.59-.63-.51-.28-.73-.45-.51-.28-.73-.45-.37-.47-.59-.63c-.24-.17-.55-.22-.78-.37-.25-.16-.5-.28-.74-.42-.25-.15-.47-.34-.71-.46-.26-.14-.48-.35-.73-.45-.28-.12-.57-.15-.83-.22-.29-.08-.57-.17-.83-.18-.28-.01-.58-.04-.86,0s-.53.21-.82.28c-.27.07-.56.08-.84.18-.26.1-.48.3-.74.42s-.49.26-.75.4-.47.3-.71.46-.54.19-.78.35-.44.35-.67.52-.4.4-.63.58-.56.21-.78.39-.33.48-.55.67-.52.26-.74.45-.44.36-.64.56-.33.47-.54.67-.45.35-.66.54-.33.48-.53.68-.5.3-.7.51-.38.43-.57.63-.36.45-.55.66-.35.46-.54.66-.39.41-.58.62-.49.32-.68.52c-.18.2-.36.4-.54.59s-.39.37-.57.56-.35.4-.53.59c-.19.2-.34.42-.52.61-.19.2-.42.34-.6.52-.2.19-.41.35-.59.52-.19.17-.34.41-.58.58-.21.15-.45.29-.69.44-.22.14-.43.33-.68.47-.23.13-.54.14-.79.26s-.49.23-.74.35-.42.4-.67.51-.5.21-.76.32-.57.06-.82.16-.49.27-.74.36-.51.22-.76.32-.54.15-.79.24-.49.3-.74.39c-.27.09-.53.17-.79.26-.27.09-.55.14-.8.22-.28.09-.56.11-.8.18-.29.09-.54.19-.77.26-.22.06-.2.1-.42.17-.25.07-.56,0-.83.09s-.49.28-.74.38-.54.16-.78.29c-.25.14-.44.35-.64.52-.21.19-.43.36-.56.6s-.22.5-.25.79c-.02.24.08.59.51.93.18.14.39.33.67.45.22.09.52.05.8.13.24.07.49.15.77.21.25.05.5.19.77.24.26.04.54-.04.81,0s.52.13.79.15.53.09.8.11.53.02.8.04.54-.06.81-.05.54.04.8.04Z"/>
          </g>
        </g>
        <g>
          <path class="cls-4" d="M100.13,25.46c-.36,0-.44-.38-.73-.17s-.33.16-.62.37-.29.21-.58.42-.22.31-.51.52-.3.19-.59.4-.37.09-.66.3-.02.58-.31.79-.14.41-.43.62-.57-.19-.86.02-.43,0-.72.22.02.63-.27.84-.31.18-.6.39-.43,0-.72.22-.3.19-.59.4-.24.27-.53.48-.3.2-.58.41-.18.36-.47.56-.55-.15-.84.06.04.67-.24.88-.2.33-.49.54-.36.11-.65.32-.44,0-.73.22-.49-.07-.78.14.06.69-.23.9-.32.17-.61.38-.33.16-.62.37-.32.18-.61.39-.11.46-.4.67-.34.14-.63.35-.28.22-.58.43-.4.06-.69.27-.32.17-.61.38-.55-.14-.84.07.16.84-.13,1.05-.49-.07-.78.14-.14.42-.43.63-.49-.07-.78.14-.51-.09-.8.12-.09.48-.38.69-.21.32-.5.53-.22.31-.51.52-.15.4-.44.61-.39.08-.68.29-.6-.21-.89,0-.03.58-.32.79-.17.38-.46.6-.49-.05-.78.16-.4.07-.69.28-.38.09-.67.3-.16.39-.45.6-.29.21-.58.42-.19.34-.49.55-.2.33-.5.54-.62-.25-.92-.04-.29.21-.58.42.04.67-.25.88-.34.14-.64.35-.14.42-.44.63-.56-.16-.85.06-.38.08-.68.3-.09.49-.38.7-.27.24-.56.45-.34.14-.64.35-.27.24-.56.46-.53-.12-.82.09-.08.51-.37.72-.5-.07-.79.14,0,.6-.3.81-.51-.09-.8.12.05.68-.24.89-.61-.22-.9,0-.24.29-.53.5-.1.47-.39.69-.22.3-.52.52-.56-.16-.85.06-.19.36-.48.57-.29.22-.58.43-.17.38-.46.59-.49-.05-.78.16-.34.14-.63.36-.29.22-.58.44-.44,0-.74.22-.24.29-.53.51.06.7-.24.92-.71-.36-1.01-.14-.17.37-.28.72.01.29.13.63-.01.38.1.72.61.18.72.52-.65.59-.54.93.21.31.32.65.47.22.58.56.16.32.27.66-.13.42-.02.76.02.37.13.71-.11.41,0,.75.35.26.46.6.27.29.38.63,0,.38.1.72.08.35.19.69.42.24.53.58-.29.47-.18.81.74.14.85.48-.58.56-.47.9.06.35.17.69.08.35.19.69.15.33.26.66.27.29.38.63.1.34.21.68-.09.41.02.74.51.21.62.55-.24.45-.13.79.48.22.59.56.47.23.58.57-.62.58-.51.92.29.28.4.63.13.33.25.68.53.2.64.55-.1.41,0,.75-.11.41,0,.75.57.19.68.53-.02.38.09.72-.21.44-.1.78.48.22.59.56-.36.49-.25.83.69.15.8.49-.41.51-.3.85.65.17.76.51-.58.56-.47.91.76.13.87.47-.17.43-.06.77.45.23.57.57.05.36.16.71-.52.55-.41.89.36.26.47.6.27.29.38.63.11.34.22.68.36.26.47.6-.35.49-.24.83.1.34.22.69-.13.42-.02.76.46.23.57.57.14.33.25.68.04.36.16.71.23.3.34.65.12.34.23.68.42.24.53.58-.63.58-.52.93.37.26.49.6.49.22.6.56-.34.49-.23.83.63.17.74.52-.2.44-.09.78.2.31.31.65.06.36.17.7.04.37.15.71.42.24.53.59-.13.42-.02.77.32.28.43.62-.36.49-.25.84.74.14.86.48-.14.43-.03.77-.19.44-.07.78-.1.41.01.76.48.23.59.57.03.37.14.72.11.35.22.69.14.34.25.68.2.32.31.66-.21.45-.1.8.77.13.89.48-.66.9-.37,1.11.58-.55.94-.55.36.15.72.15.36-.32.72-.32.36.05.72.05.36.43.72.43.36.16.72.16.36.17.72.17.36-.45.72-.45.36,0,.72,0,.36-.31.72-.31.36.66.72.66.36-.68.72-.68.36-.01.72-.01.36.64.72.64.36-.46.72-.46.36.19.72.19.36-.19.72-.19.36-.1.72-.1.36.07.72.07.36.48.72.48.36-.24.72-.24.36-.18.71-.18.36.18.71.18.36.35.71.35.36-.5.71-.5.36.43.72.43.36-.25.72-.25.36-.26.72-.26.36-.16.72-.16.36.72.72.72.36-.7.72-.7.36.07.72.07.36-.04.72-.04.36.55.72.55.36-.04.72-.04.36-.44.72-.44.36.64.71.64.36-.09.71-.09.36-.47.71-.47.36.29.72.29.36-.3.72-.3.36-.09.72-.09.36.23.72.23.36-.27.72-.27.36.55.72.55.36-.43.72-.43.36-.17.72-.17.36.12.72.12.36.33.72.33.36-.27.72-.27.36-.07.72-.07.36-.01.72-.01.36-.08.72-.08.36.37.72.37.36.4.72.4.36-.43.72-.43.36-.29.72-.29.36.16.72.16.36,0,.72,0,.36.39.72.39.36-.46.72-.46.36-.11.72-.11.36.48.72.48.36.24.72.24.36-.01.72-.01.36-.25.72-.25.36.03.72.03.36-.34.72-.34.36.36.72.36.36-.03.72-.03.36-.17.72-.17.36.45.72.45.36-.08.72-.08.36-.37.72-.37.36.05.72.05.36-.12.72-.12.36.31.72.31.36.02.72.02.36-.08.72-.08.36.09.72.09.36-.5.72-.5.36.4.72.4.36.16.73.16.36-.3.73-.3.36-.05.73-.05.48.33.78.12-.33-.54-.22-.88.17-.32.28-.66.04-.36.15-.7.47-.22.58-.56-.13-.42-.02-.76.79-.12.9-.46-.57-.56-.46-.9.43-.24.55-.58.1-.34.22-.68.42-.24.53-.58-.17-.43-.06-.77.27-.29.38-.63-.19-.44-.08-.78-.06-.4.05-.74.13-.34.24-.68.4-.25.51-.59.34-.27.46-.61-.55-.55-.44-.89.69-.15.8-.49.12-.34.23-.67-.07-.4.04-.73.02-.37.13-.71-.07-.4.04-.74.38-.25.49-.59.3-.28.41-.62-.23-.45-.12-.79.48-.22.59-.56.23-.3.34-.65-.36-.49-.24-.84.52-.21.63-.55-.19-.44-.08-.78.11-.34.22-.68.01-.37.12-.71,0-.38.11-.72.45-.23.57-.57-.13-.42-.02-.76.32-.27.43-.61-.24-.45-.13-.79,0-.38.11-.72.53-.2.64-.54-.1-.41.01-.75.4-.25.51-.59,0-.38.11-.72.16-.32.28-.67.15-.33.26-.67-.24-.46-.13-.8.63-.17.74-.52-.55-.56-.44-.9.6-.18.71-.52-.24-.45-.12-.8.64-.17.75-.51-.11-.41,0-.75-.15-.43-.04-.77.14-.33.25-.68.24-.3.35-.64-.25-.46-.14-.8.82-.11.93-.46.17-.32.28-.67-.11-.41,0-.76-.11-.41,0-.76-.07-.4.04-.74.59-.19.71-.53-.4-.51-.29-.85.21-.31.32-.65.41-.25.52-.59-.13-.42-.02-.76.17-.32.28-.66.54-.2.65-.54-.11-.41,0-.75-.31-.48-.19-.82.22-.31.34-.65.45-.23.56-.58-.13-.42-.02-.76.36-.26.47-.6.23-.3.34-.65-.37-.5-.26-.85.33-.27.45-.62-.26-.47-.15-.81.13-.34.24-.69.66-.17.77-.51.15-.33.26-.68.18-.32.29-.67.02-.38.13-.72-.43-.52-.32-.87.63-.18.74-.53.1-.4,0-.75-.08-.47-.37-.68-.31-.18-.6-.39-.53.11-.82-.1-.15-.41-.44-.62-.26-.25-.55-.46-.6.22-.89,0-.27-.24-.56-.45-.22-.3-.51-.51-.18-.36-.47-.57-.38-.08-.67-.29-.29-.21-.58-.42-.03-.57-.32-.78-.62.25-.91.04.01-.62-.28-.83-.39-.07-.68-.28-.51.09-.79-.12-.19-.35-.48-.55-.08-.5-.37-.71-.59.21-.88,0-.05-.54-.34-.75-.46.03-.75-.18-.07-.51-.36-.72-.33-.15-.62-.36-.56.16-.85-.05-.04-.56-.33-.77-.2-.33-.49-.55-.52.1-.81-.11-.17-.37-.46-.59-.18-.36-.47-.57-.51.09-.8-.12-.21-.32-.5-.53-.06-.53-.35-.74-.3-.2-.59-.41-.33-.16-.62-.37-.52.11-.81-.1-.28-.22-.57-.43-.33-.16-.62-.37-.11-.46-.4-.67-.48.05-.77-.16-.08-.49-.37-.71-.37-.1-.66-.31-.54.13-.83-.08-.04-.56-.33-.77-.08-.5-.38-.71-.62.24-.91.02-.43-.02-.73-.23.11-.76-.18-.97-.34-.14-.64-.35-.36-.12-.65-.33-.31-.19-.6-.4-.31-.18-.6-.39-.18-.37-.47-.58-.21-.32-.5-.53-.55.15-.85-.06-.19-.35-.48-.56-.19-.36-.48-.57-.25-.28-.54-.49-.7.35-.99.14.03-.66-.26-.87-.46.01-.75-.2-.24-.28-.54-.49-.14-.42-.43-.63-.6.22-.9,0-.33-.16-.62-.38-.25-.27-.54-.48-.31-.18-.6-.39.14-.8-.15-1.01-.71.37-1,.15-.08-.5-.37-.71-.25-.27-.54-.48-.51.09-.81-.12-.35-.13-.64-.35-.02-.58-.31-.8-.43-.02-.72-.23-.17-.38-.46-.59-.5.07-.8-.14.14-.8-.16-1.02-.39-.08-.68-.3-.46.01-.75-.2-.44,0-.74-.22,0-.61-.3-.82-.47.03-.77-.18-.21-.33-.5-.55-.27-.24-.57-.46-.25-.3-.57-.49c-.26-.15-.3.1-.67.09Z"/>
          <path class="cls-2" d="M100.13,25.46c-.36,0-.44-.38-.73-.17s-.33.16-.62.37-.29.21-.58.42-.22.31-.51.52-.3.19-.59.4-.37.09-.66.3-.02.58-.31.79-.14.41-.43.62-.57-.19-.86.02-.43,0-.72.22.02.63-.27.84-.31.18-.6.39-.43,0-.72.22-.3.19-.59.4-.24.27-.53.48-.3.2-.58.41-.18.36-.47.56-.55-.15-.84.06.04.67-.24.88-.2.33-.49.54-.36.11-.65.32-.44,0-.73.22-.49-.07-.78.14.06.69-.23.9-.32.17-.61.38-.33.16-.62.37-.32.18-.61.39-.11.46-.4.67-.34.14-.63.35-.28.22-.58.43-.4.06-.69.27-.32.17-.61.38-.55-.14-.84.07.16.84-.13,1.05-.49-.07-.78.14-.14.42-.43.63-.49-.07-.78.14-.51-.09-.8.12-.09.48-.38.69-.21.32-.5.53-.22.31-.51.52-.15.4-.44.61-.39.08-.68.29-.6-.21-.89,0-.03.58-.32.79-.17.38-.46.6-.49-.05-.78.16-.4.07-.69.28-.38.09-.67.3-.16.39-.45.6-.29.21-.58.42-.19.34-.49.55-.2.33-.5.54-.62-.25-.92-.04-.29.21-.58.42.04.67-.25.88-.34.14-.64.35-.14.42-.44.63-.56-.16-.85.06-.38.08-.68.3-.09.49-.38.7-.27.24-.56.45-.34.14-.64.35-.27.24-.56.46-.53-.12-.82.09-.08.51-.37.72-.5-.07-.79.14,0,.6-.3.81-.51-.09-.8.12.05.68-.24.89-.61-.22-.9,0-.24.29-.53.5-.1.47-.39.69-.22.3-.52.52-.56-.16-.85.06-.19.36-.48.57-.29.22-.58.43-.17.38-.46.59-.49-.05-.78.16-.34.14-.63.36-.29.22-.58.44-.44,0-.74.22-.24.29-.53.51.06.7-.24.92-.71-.36-1.01-.14-.17.37-.28.72.01.29.13.63-.01.38.1.72.61.18.72.52-.65.59-.54.93.21.31.32.65.47.22.58.56.16.32.27.66-.13.42-.02.76.02.37.13.71-.11.41,0,.75.35.26.46.6.27.29.38.63,0,.38.1.72.08.35.19.69.42.24.53.58-.29.47-.18.81.74.14.85.48-.58.56-.47.9.06.35.17.69.08.35.19.69.15.33.26.66.27.29.38.63.1.34.21.68-.09.41.02.74.51.21.62.55-.24.45-.13.79.48.22.59.56.47.23.58.57-.62.58-.51.92.29.28.4.63.13.33.25.68.53.2.64.55-.1.41,0,.75-.11.41,0,.75.57.19.68.53-.02.38.09.72-.21.44-.1.78.48.22.59.56-.36.49-.25.83.69.15.8.49-.41.51-.3.85.65.17.76.51-.58.56-.47.91.76.13.87.47-.17.43-.06.77.45.23.57.57.05.36.16.71-.52.55-.41.89.36.26.47.6.27.29.38.63.11.34.22.68.36.26.47.6-.35.49-.24.83.1.34.22.69-.13.42-.02.76.46.23.57.57.14.33.25.68.04.36.16.71.23.3.34.65.12.34.23.68.42.24.53.58-.63.58-.52.93.37.26.49.6.49.22.6.56-.34.49-.23.83.63.17.74.52-.2.44-.09.78.2.31.31.65.06.36.17.7.04.37.15.71.42.24.53.59-.13.42-.02.77.32.28.43.62-.36.49-.25.84.74.14.86.48-.14.43-.03.77-.19.44-.07.78-.1.41.01.76.48.23.59.57.03.37.14.72.11.35.22.69.14.34.25.68.2.32.31.66-.21.45-.1.8.77.13.89.48-.66.9-.37,1.11.58-.55.94-.55.36.15.72.15.36-.32.72-.32.36.05.72.05.36.43.72.43.36.16.72.16.36.17.72.17.36-.45.72-.45.36,0,.72,0,.36-.31.72-.31.36.66.72.66.36-.68.72-.68.36-.01.72-.01.36.64.72.64.36-.46.72-.46.36.19.72.19.36-.19.72-.19.36-.1.72-.1.36.07.72.07.36.48.72.48.36-.24.72-.24.36-.18.71-.18.36.18.71.18.36.35.71.35.36-.5.71-.5.36.43.72.43.36-.25.72-.25.36-.26.72-.26.36-.16.72-.16.36.72.72.72.36-.7.72-.7.36.07.72.07.36-.04.72-.04.36.55.72.55.36-.04.72-.04.36-.44.72-.44.36.64.71.64.36-.09.71-.09.36-.47.71-.47.36.29.72.29.36-.3.72-.3.36-.09.72-.09.36.23.72.23.36-.27.72-.27.36.55.72.55.36-.43.72-.43.36-.17.72-.17.36.12.72.12.36.33.72.33.36-.27.72-.27.36-.07.72-.07.36-.01.72-.01.36-.08.72-.08.36.37.72.37.36.4.72.4.36-.43.72-.43.36-.29.72-.29.36.16.72.16.36,0,.72,0,.36.39.72.39.36-.46.72-.46.36-.11.72-.11.36.48.72.48.36.24.72.24.36-.01.72-.01.36-.25.72-.25.36.03.72.03.36-.34.72-.34.36.36.72.36.36-.03.72-.03.36-.17.72-.17.36.45.72.45.36-.08.72-.08.36-.37.72-.37.36.05.72.05.36-.12.72-.12.36.31.72.31.36.02.72.02.36-.08.72-.08.36.09.72.09.36-.5.72-.5.36.4.72.4.36.16.73.16.36-.3.73-.3.36-.05.73-.05.48.33.78.12-.33-.54-.22-.88.17-.32.28-.66.04-.36.15-.7.47-.22.58-.56-.13-.42-.02-.76.79-.12.9-.46-.57-.56-.46-.9.43-.24.55-.58.1-.34.22-.68.42-.24.53-.58-.17-.43-.06-.77.27-.29.38-.63-.19-.44-.08-.78-.06-.4.05-.74.13-.34.24-.68.4-.25.51-.59.34-.27.46-.61-.55-.55-.44-.89.69-.15.8-.49.12-.34.23-.67-.07-.4.04-.73.02-.37.13-.71-.07-.4.04-.74.38-.25.49-.59.3-.28.41-.62-.23-.45-.12-.79.48-.22.59-.56.23-.3.34-.65-.36-.49-.24-.84.52-.21.63-.55-.19-.44-.08-.78.11-.34.22-.68.01-.37.12-.71,0-.38.11-.72.45-.23.57-.57-.13-.42-.02-.76.32-.27.43-.61-.24-.45-.13-.79,0-.38.11-.72.53-.2.64-.54-.1-.41.01-.75.4-.25.51-.59,0-.38.11-.72.16-.32.28-.67.15-.33.26-.67-.24-.46-.13-.8.63-.17.74-.52-.55-.56-.44-.9.6-.18.71-.52-.24-.45-.12-.8.64-.17.75-.51-.11-.41,0-.75-.15-.43-.04-.77.14-.33.25-.68.24-.3.35-.64-.25-.46-.14-.8.82-.11.93-.46.17-.32.28-.67-.11-.41,0-.76-.11-.41,0-.76-.07-.4.04-.74.59-.19.71-.53-.4-.51-.29-.85.21-.31.32-.65.41-.25.52-.59-.13-.42-.02-.76.17-.32.28-.66.54-.2.65-.54-.11-.41,0-.75-.31-.48-.19-.82.22-.31.34-.65.45-.23.56-.58-.13-.42-.02-.76.36-.26.47-.6.23-.3.34-.65-.37-.5-.26-.85.33-.27.45-.62-.26-.47-.15-.81.13-.34.24-.69.66-.17.77-.51.15-.33.26-.68.18-.32.29-.67.02-.38.13-.72-.43-.52-.32-.87.63-.18.74-.53.1-.4,0-.75-.08-.47-.37-.68-.31-.18-.6-.39-.53.11-.82-.1-.15-.41-.44-.62-.26-.25-.55-.46-.6.22-.89,0-.27-.24-.56-.45-.22-.3-.51-.51-.18-.36-.47-.57-.38-.08-.67-.29-.29-.21-.58-.42-.03-.57-.32-.78-.62.25-.91.04.01-.62-.28-.83-.39-.07-.68-.28-.51.09-.79-.12-.19-.35-.48-.55-.08-.5-.37-.71-.59.21-.88,0-.05-.54-.34-.75-.46.03-.75-.18-.07-.51-.36-.72-.33-.15-.62-.36-.56.16-.85-.05-.04-.56-.33-.77-.2-.33-.49-.55-.52.1-.81-.11-.17-.37-.46-.59-.18-.36-.47-.57-.51.09-.8-.12-.21-.32-.5-.53-.06-.53-.35-.74-.3-.2-.59-.41-.33-.16-.62-.37-.52.11-.81-.1-.28-.22-.57-.43-.33-.16-.62-.37-.11-.46-.4-.67-.48.05-.77-.16-.08-.49-.37-.71-.37-.1-.66-.31-.54.13-.83-.08-.04-.56-.33-.77-.08-.5-.38-.71-.62.24-.91.02-.43-.02-.73-.23.11-.76-.18-.97-.34-.14-.64-.35-.36-.12-.65-.33-.31-.19-.6-.4-.31-.18-.6-.39-.18-.37-.47-.58-.21-.32-.5-.53-.55.15-.85-.06-.19-.35-.48-.56-.19-.36-.48-.57-.25-.28-.54-.49-.7.35-.99.14.03-.66-.26-.87-.46.01-.75-.2-.24-.28-.54-.49-.14-.42-.43-.63-.6.22-.9,0-.33-.16-.62-.38-.25-.27-.54-.48-.31-.18-.6-.39.14-.8-.15-1.01-.71.37-1,.15-.08-.5-.37-.71-.25-.27-.54-.48-.51.09-.81-.12-.35-.13-.64-.35-.02-.58-.31-.8-.43-.02-.72-.23-.17-.38-.46-.59-.5.07-.8-.14.14-.8-.16-1.02-.39-.08-.68-.3-.46.01-.75-.2-.44,0-.74-.22,0-.61-.3-.82-.47.03-.77-.18-.21-.33-.5-.55-.27-.24-.57-.46-.25-.3-.57-.49c-.26-.15-.3.1-.67.09Z"/>
        </g>
        <g>
          <path class="cls-5" d="M94.19,86.22c-.21-.25-.59.44-.91.44s-.33-.1-.65-.1-.72-.62-.94-.38c-.24.26.09.62.1.98s-.21.36-.21.71.43.35.43.71-.24.36-.23.72-.11.36-.1.71.19.35.2.71.52.35.52.71-.68.37-.67.72.63.35.63.7-.26.36-.26.72.05.36.06.72-.13.36-.12.72.41.55.17.81c-.23.25-.44.21-.78.21s-.34-.38-.68-.38-.34-.03-.68-.03-.34.29-.68.29-.34-.27-.68-.27-.34.29-.68.29-.43.02-.66-.23.09-.33.1-.69-.41-.36-.4-.72-.06-.36-.05-.71.6-.35.61-.7-.65-.37-.64-.72.49-.35.49-.71.22-.35.23-.71,0-.36,0-.71-.6-.36-.59-.72.13-.36.13-.71.4-.35.4-.71-.59-.37-.58-.73.37-.21.14-.48c-.2-.24-.03-.05-.34-.05s-.31-.43-.62-.43-.59-.17-.81.04.05.5.05.8-.05.3-.05.61.22.17-.01.36c-.28.23-.16.2-.52.2s-.36-.11-.72-.11-.36.44-.73.44-.36-.07-.73-.07-.36-.02-.73-.02-.64.24-.9-.01.25-.53.26-.89-.36-.37-.36-.73.6-.35.61-.72.04-.36.04-.73-.29-.37-.29-.73.28-.51-.06-.64-.38.03-.64.29.17.67-.09.94-.27.25-.53.52-.4.2-.72.37c-.18.1-.15-.29-.34-.37-.11-.21-.06-.32-.19-.53s-.81-.06-.94-.27.18-.69.05-.89-.45-.28-.58-.48c-.09.34.26.35.26.71s-.28.35-.28.71.02.35.02.71.04.36.04.71.16.36.16.71.12.35.12.71-.37.36-.36.72-.08.36-.07.72.28.35.29.71-.09.36-.08.72.24.35.25.71-.3.36-.29.72-.37.36-.36.72.31.35.31.71-.26.36-.26.72.02.36.02.72.93.76.67,1c-.28.27-.66-.07-1.05-.07s-.38-.21-.77-.21-.39.27-.77.27-.39-.18-.77-.18-.39.01-.78.01-.28-.08-.56-.34c-.26-.24-.22-.13-.21-.49s-.08-.36-.07-.72-.3-.36-.3-.72.26-.35.27-.71-.03-.36-.03-.72.56-.35.57-.7-.11-.36-.1-.72-.62-.37-.61-.73.26-.35.27-.71.53-.35.54-.71-.78-.37-.78-.73.62-.37.62-.74-.04-.37-.04-.74.18-.37.18-.75-.15-.42-.26-.77c-.18.18-.61.21-.79.37s0,.75-.18.91-.49.21-.68.36c-.22.16-.49.29-.65.29s-.48-.16-.61-.36c-.21-.32.08-.51-.13-.83s-.64-.03-.86-.34.27-.65.06-.96-.37-.21-.59-.53-.67-.15-.78-.51c.19-.14.66-.42.85-.57s.53-.11.71-.26.43-.24.61-.4.2-.5.37-.66.59-.08.76-.25.11-.57.28-.74.34-.34.5-.52.46-.24.62-.42-.03-.65.12-.83.45-.25.59-.44.5-.23.64-.42.36-.35.49-.54-.25-.74-.12-.94.39-.32.51-.52.13-.47.24-.68.56-.25.66-.46.16-.85.26-1.06c-.34-.12-.47.72-.83.72s-.36-.77-.71-.77-.36.54-.71.54-.36-.46-.72-.46c-.39,0-.39.13-.78.14s-.38.34-.77.35-.39-.21-.78-.2-.39-.02-.78-.01-.5.59-.88.49c-.16-.04.26-.57.23-.73-.07-.36.04-.31.04-.68s-.59-.37-.59-.74.12-.37.12-.74-.26-.37-.26-.74.69-.3.77-.66c.03-.13-.29.01-.15-.01.38-.07.35-.67.74-.66s.37.79.76.8.41-.7.8-.69.39-.01.78,0,.51.69.8.42-.07-.41-.07-.79-.02-.38-.02-.77-.16-.39-.16-.77.26-.39.26-.77-.11-.39-.11-.78.26-.34.35-.72c.03-.15-.25-.54-.1-.58.38-.08.45.45.84.45s.39.16.78.16.39-.27.78-.27.39-.21.78-.21.46-.15.84-.05c.15.04.49.24.52.4.07.38-.71.45-.71.84s.67.38.67.76-.05.38-.05.77.13.38.13.77-.81.39-.81.77.72.31.8.69c.02.08-.33.25-.25.25.32-.01.31-.43.63-.44s.33.05.65.03.23.35.53.47c.36.15.69-.33.97-.06s.04.53.32.8.4.15.68.42c.1.1.29.47.29.72,0,.16-.17.32-.23.48-.09.23-.6.28-.68.51s-.18.44-.28.66.29.65.19.86-.29.4-.39.62-.06.51-.17.72-.45.31-.56.53-.03.53-.14.74-.23.43-.34.63-.7.14-.82.35-.26.39-.39.6.24.72.11.91-.13.35-.27.55c-.05.27-.53.33-.26.37.33.05.17-.15.41-.39s.04-.61.33-.76c.17-.09.35.37.53.42.2.14.44.2.64.36s.56.12.75.29-.09.82.08.99.54.15.71.34.57.37.73.57c.11-.32.18-.39.19-.73s-.72-.35-.71-.68.64-.33.64-.66.1-.33.1-.67-.04-.34-.03-.68-.06-.34-.05-.68c0-.39-.47-.39-.47-.78s.38-.39.38-.78-.3-.39-.3-.78.21-.39.21-.78c0-.34.01-.34,0-.68s-.04-.34-.05-.68-.14-.34-.15-.68.22-.35.22-.69-.26-.34-.27-.68.42-.35.41-.7-.67-.4-.6-.73c.03-.14.3-.17.45-.2.33-.08.35.06.69.06s.34.34.68.35.35-.25.69-.25.35-.11.69-.11.35-.19.69-.18.35-.09.69-.08.34.33.68.33c.3,0,.3.33.59.33s.35-.15.54-.37c.23-.27-.27-.31-.27-.66s.7-.35.7-.7-.09-.35-.09-.7-.27-.35-.27-.7-.25-.35-.25-.7.3-.35.3-.7.25-.27.33-.61c.04-.17-.43-.59-.26-.64.32-.09.42,0,.75,0s.33.64.66.64.33-.08.67-.08.33-.44.67-.44.33.32.67.32.42-.52.74-.44c.15.04.27.33.31.48.08.34-.22.39-.22.74s-.28.35-.28.7.07.35.07.7.57.35.57.7-.04.35-.04.71.11.35.11.71-.74.57-.49.82.47-.35.83-.35.36-.1.72-.11c.34,0,.34.03.68.03s.35.68.69.68.33-.24.67-.25.33-.48.67-.49.35.4.69.39.34-.1.68-.1.42-.37.75-.29c.15.04.18.34.21.5.08.33.05.36.04.7s.17.35.16.69-.31.34-.32.68.24.35.23.69-.09.34-.09.69-.37.34-.38.68.02.35.01.69-.11.33-.11.66.27.33.27.66-.16.33-.16.66.53.33.53.65c0,.36-.2.36-.2.73s.04.36.05.72.07.36.08.72-.4.37-.4.74.01.36.02.73.1.36.1.73-.05.37-.04.73.5.36.51.72-.48.37-.48.74.07.36.07.73.35.36.35.73-.63.38-.62.74.48.36.48.73-.14.19-.4.45-.09.4-.46.4-.37.18-.75.18-.38-.61-.75-.61-.38.63-.75.63-.38-.52-.76-.52-.21.19-.47-.08-.3-.08-.18-.43c.18-.51.4-.73.16-1.02ZM85.36,76.68c.22.22.56-.46.88-.46s.31.1.63.1.69.62.91.39-.08-.59-.08-.91.22-.32.22-.64-.42-.32-.42-.64.4-.58.17-.81-.49-.18-.8-.18-.31.19-.63.19-.16.19-.38.41-.58.07-.58.39.62.32.62.64-.16.35-.27.65c-.17.46-.49.65-.27.88ZM85.35,83.01c.21.23.57-.45.88-.45s.31.1.63.1.7.62.92.38c.23-.25-.08-.61-.08-.94s.22-.34.22-.68-.42-.34-.42-.68.41-.59.18-.84c-.21-.23-.49-.19-.8-.19s-.31.19-.63.19-.16.17-.37.4c-.23.25-.59.1-.59.44s.62.34.62.68-.15.37-.27.69c-.17.47-.51.66-.28.91ZM91.7,73.62c-.23.22.45.57.45.89s-.1.32-.1.64-.51.32-.51.64.02.56.25.79.47.28.8.28.33-.42.66-.42.59.4.83.17.18-.49.18-.81-.19-.32-.19-.64-.51-.32-.51-.64.81-.66.58-.88-.56.53-.89.53-.36-.16-.67-.27c-.47-.17-.66-.5-.9-.27ZM91.69,79.81c-.24.24.46.58.46.92s-.1.34-.1.68-.51.34-.51.68,0,.58.25.82.48.28.81.28.33-.42.66-.42.6.41.83.17.18-.51.18-.85-.19-.34-.19-.68-.51-.34-.51-.68.83-.67.59-.91-.57.52-.9.52-.36-.16-.67-.27c-.47-.17-.67-.5-.9-.26Z"/>
          <path class="cls-5" d="M100.84,75.41c-.15-.02.26-.53.23-.68-.09-.34-.41-.25-.41-.6s.3-.35.3-.7.14-.35.14-.7-.66-.35-.66-.7-.14-.43-.07-.77c.03-.13.4.03.53,0,.34-.07.31,0,.66,0s.34.05.69.06.35,0,.69.01.36-.35.7-.34.74.76.98.5c.26-.27-.65-.65-.65-1.03s.13-.37.13-.75.18-.37.18-.75-.04-.37-.04-.74-.27-.37-.27-.75-.04-.37-.04-.75.23-.38.23-.75-.15-.42-.09-.79c.02-.12.25-.31.37-.34.37-.08.42.4.79.4s.38-.43.75-.43.38.42.76.42.38.01.76.01.38-.26.75-.19c.13.03.12.05.15.18.07.36-.24.36-.24.73s-.03.37-.03.74.59.37.59.74-.65.37-.65.74.26.37.26.74-.04.37-.04.75.21.37.21.75,0,.19.26.46c.23.25.03.18.38.18s.34,0,.69,0,.35.01.69,0,.42-.41.76-.36c.11.02.3.4.32.52.06.35-.21.39-.21.75s.07.35.07.71.09.36.09.71-.44.36-.44.71.07.31,0,.66c-.02.11.15-.21.04-.19-.34.06-.28.68-.62.67s-.34-.35-.68-.35-.35.2-.69.19-.58-.56-.82-.31c-.25.26-.2.5-.2.87s.57.37.57.74-.3.37-.3.74-.19.47.08.72c.2.19.41.11.63-.05s-.18-.84.07-.96c.15-.07.21.66.36.71.16.15.62-.23.78-.07s.37.28.52.45-.16.72-.02.9.47.19.61.36.43.4.56.58c.09-.29-.51-.35-.51-.66s-.09-.42,0-.71c.04-.14.44-.07.58-.09.34-.07.35-.25.7-.24s.33.64.68.65.36-.65.71-.64.34.32.69.33.34.27.7.27.36-.52.71-.52c.32,0,.32.67.64.67s.32-.7.64-.7.32.06.64.06.7.74.93.52c.22-.21-.58-.61-.58-.91s.4-.28.18-.49-.19.09-.49.09-.31-.32-.61-.32c-.35,0-.35-.03-.7-.02s-.35-.07-.7-.06-.35-.06-.7-.06-.35-.1-.7-.09-.35.13-.7.13-.32.2-.66.13c-.14-.03-.22.12-.26-.02-.09-.34.13-.36.13-.71s-.43-.36-.43-.71-.01-.36-.01-.71.48-.31.56-.65c.04-.14-.19-.36-.05-.39.34-.07.38-.2.73-.2s.35.08.69.09.34.52.69.53.35-.25.7-.24.35.31.7.31.36-.32.71-.32c.3,0,.3.25.61.25s.45.05.66-.16-.15-.36-.15-.66.1-.12-.14-.3c-.31-.24-.16-.58-.55-.58s-.39.59-.79.59-.39-.04-.79-.03c-.36,0-.36-.29-.72-.28s-.36.17-.72.18-.37-.29-.73-.28-.36.52-.72.53-.37-.43-.73-.43-.45.55-.81.48c-.14-.03-.51-.36-.54-.51-.09-.36.28-.47.28-.84s.23-.37.23-.74-.21-.37-.21-.75.42-.29.51-.65c.04-.15-.27.03-.12,0,.37-.08.3.09.68.1s.38.02.76.03.39-.26.77-.25.38.12.76.13.46.05.82-.08c-.12-.25,0-.78-.13-1.01-.13-.24-.5-.33-.64-.55s-.63-.21-.78-.43-.19-.57-.35-.79c-.05-.15.11-.21.24-.32.28-.24.16-.52.5-.65s.52.33.86.2.41.04.75-.09.08-.83.42-.96.56.53.92.44c.17-.04.05-.24.22-.18.17.2.64.06.8.26s.24.47.4.68.34.4.48.61.38.38.52.6-.04.63.08.85c.03.16.03.16-.09.26-.31.25-.35.12-.73.27s-.25.47-.62.62-.58-.29-.7.09c-.1.31.18-.01.51-.01s.33.37.66.37.33-.55.66-.55.33-.01.66-.01.33-.17.66-.17.31.31.63.21c.11-.24.48-.26.58-.49s-.13-.61-.03-.85.22-.47.31-.71.29-.45.38-.69.41-.41.49-.65-.29-.79-.21-1.03c.13-.11.3.41.46.42.39.03.49-.54.87-.45s.25.62.63.72.36.19.74.29.44-.15.83-.05.52-.24.87-.07c.14.07.24.27.27.43-.1.22-.22.55-.33.77s-.52.28-.63.5-.24.42-.36.64.09.61-.03.82-.52.33-.64.53c0,.05.16-.21.21-.21.35,0,.35.01.7,0s.34-.15.69-.16.35.16.7.15.36.5.71.5.34-.68.69-.69.3.52.65.6c.15.03.65-.3.69-.15.08.36-.38.46-.38.84s-.09.37-.09.74.18.37.18.75.04.4-.05.76c-.03.14-.17-.01-.31.01-.34.07-.32.21-.66.2s-.35-.16-.69-.16-.35-.08-.7-.09-.35.03-.7.02-.35.2-.7.19-.35.13-.7.12c-.39,0-.39-.16-.78-.16s-.39-.43-.78-.43-.39.66-.79.66-.55-.61-.86-.36c-.24.19-.14.4-.14.71s-.03.43.2.63c.28.23.37.22.73.22s.36-.17.72-.17.35-.14.69-.14.35-.04.69-.05.36.51.71.5.34-.79.69-.79.35.13.7.13.38.05.73.11c.14.03.03.2.07.35.09.34-.08.32-.08.68s.34.36.34.71-.44.36-.44.71.5.39.41.74c-.04.14-.23-.15-.38-.12-.34.07-.29.02-.64.01s-.35,0-.69-.02-.36.3-.71.29-.35,0-.7,0-.34-.37-.69-.38-.36.18-.71.18-.36,0-.72,0-.72-.45-.99-.22c-.23.2.34.63.34.93s-.54.69-.31.88c.26.23.59.04.94.04s.35-.63.7-.63.35.34.7.34.35-.22.71-.22.35-.19.7-.2.36.76.71.75.34-.39.69-.4.35.11.7.1.34-.52.69-.52.36.35.71.34.4-.28.75-.21c.14.03.18.28.21.42.09.37-.01.39-.01.77s.06.38.06.77.2.38.2.77-.15.4-.24.78c-.03.14-.07.4-.22.43-.34.07-.39-.37-.74-.38s-.35.29-.7.28-.35.22-.7.21-.34-.54-.69-.55-.35-.02-.7-.03-.35.05-.7.05-.35-.23-.7-.23-.35.22-.7.22-.35.11-.7.11-.35-.15-.71-.15-.31,0-.55.26c-.26.28.09.24.09.62s0,.34.06.72c.15.2-.15.55,0,.74s.29.4.44.59.45.59.61.77c.18-.17.38-.66.56-.84s.39-.31.56-.49.36-.33.53-.52.42-.29.58-.49.05-.66.21-.86c.15-.06.32-.13.46-.06.34.18.29.32.58.57s.07.52.37.77.18.39.48.64.36.18.66.43.78-.19,1,.13c.09.13.19.47.13.62-.18.15-.63.24-.8.38-.18.15-.47.16-.64.31s-.44.18-.62.31-.06.67-.24.81-.51.08-.69.21-.79.21-.98.33c.17.15.65.45.83.6s.69-.12.87.02.22.46.41.6.07.69.27.83.7-.19.9-.06.26.44.46.57.38.27.58.4.77.34.97.47c-.14.35-.73.02-.98.31s-.09.41-.34.7-.48.09-.72.38.02.51-.22.8-.57.02-.81.32c-.19.26-.03,1-.19,1-.13,0-.13-.63-.32-.79-.19-.15-.67.03-.86-.13s.04-.8-.14-.97-.5-.18-.68-.35-.63-.06-.81-.23-.45-.26-.63-.44-.06-.63-.23-.81-.54-.2-.7-.39-.29-.41-.45-.61.02-.64-.12-.84-.66-.32-.8-.53c-.08.33.27.38.28.73s-.07.35-.06.69.34.33.35.67-.5.36-.49.71.43.33.45.67c0,.25-.58.48-.59.7-.01.25.37.51.33.73-.05.25.19.61.11.81-.09.22-.74.12-.89.29s-.14.48-.35.61c-.18.12-.3.46-.54.55-.21.08-.44.23-.69.29-.21.05-.49-.04-.74,0-.22.03-.51-.5-.75-.48-.22.02-.44.28-.69.28-.23,0-.46.47-.71.47-.64,0-.48-.5-.64-.82-.14-.3-.25-.24-.39-.54s-.36-.2-.5-.5.24-.48.1-.78-.59-.09-.73-.39-.24-.26-.38-.56.47-.42.47-.76c.28,0,.14.21.41.2.29,0,.58.07.84.06.32-.02.59-.29.8-.31.35-.03.66-.1.79-.28.12-.15,0-.46,0-.82,0-.37-.22-.37-.22-.74s.37-.37.37-.74-.07-.37-.07-.74.4-.37.4-.74-.5-.37-.5-.74-.23-.37-.23-.74.24-.37.24-.74-.01-.37-.01-.74.27-.37.27-.74-.58-.37-.58-.74.03-.37.03-.75.41-.3.17-.58c-.21-.24-.13-.54-.45-.54s-.32.44-.64.44-.32,0-.64,0-.32-.23-.64-.23c-.35,0-.34.4-.69.41s-.36-.49-.71-.48-.33.64-.68.65-.35-.11-.7-.1-.35.05-.7.05-.39-.05-.73-.12c-.15-.03-.09-.46-.23-.41-.33.13-.44.09-.71.33s-.3.21-.56.45-.18.22-.49.4c-.14.08.15.13,0,.07-.11-.19-.35-.1-.47-.3s-.34-.31-.46-.5.12-.61,0-.8-.32-.16-.45-.35c-.09.36-.14.32-.14.69s-.21.37-.21.74.41.37.41.74-.62.37-.61.74.19.37.2.74.07.37.08.74-.26.37-.25.74.35.36.36.73-.3.38-.29.74.61.36.62.73-.39.38-.38.75.33.36.33.73-.54.38-.54.75.31.37.32.74-.26.38-.25.75.47.36.48.73-.32.38-.32.75.33.37.33.74-.22.38-.21.75.48.57.22.84-.47-.36-.85-.36-.38-.15-.75-.15-.38.27-.76.27-.38.24-.76.24-.38.3-.76.3-.75.15-1.03-.11c-.26-.25.64-.63.65-.99s0-.36.02-.72-.38-.37-.38-.73-.21-.36-.21-.72-.02-.36,0-.72-.02-.36-.02-.72.36-.35.36-.71,0-.36,0-.72.06-.36.07-.72-.41-.37-.4-.73.43-.35.43-.71.23-.36.24-.72-.38-.37-.37-.73.07-.36.08-.72.38-.41.34-.77c-.08.23-.8.38-.89.6s-.21.42-.3.65-.14.45-.24.67.44.75.33.97-.78.13-.9.35c-.1.19-.06.53-.19.53-.16,0-.39-.24-.52-.46-.19-.32-.32-.24-.51-.56s-.37-.21-.57-.53.37-.66.17-.98-.36-.22-.55-.54-.39-.23-.5-.59c.14-.2.22-.47.35-.67s.59-.2.71-.4-.02-.56.09-.77.32-.37.43-.58.51-.29.61-.51-.11-.58-.02-.8.17-.45.26-.67.41-.35.49-.58-.1-.54-.02-.77-.01-.5.06-.73-.04-.51.03-.74.83-.25.9-.48.03-.49.09-.72-.33-.58-.26-.82.27-.26.33-.5c-.39-.11-.35.18-.75.19s-.42-.51-.82-.49-.43.06-.81.2c-.46.18-.47.49-.86.43ZM110.87,93.8c-.24-.29.49-.76.33-1.11s-.55-.16-.71-.5.1-.47-.07-.82-.04-.4-.21-.75-.87-.08-.95-.46c-.03-.15.03-.45.14-.56.21-.06.7.22.94.14.21-.07.43-.15.66-.23.21-.07.44-.11.67-.19s.43-.16.65-.24.31-.49.53-.58.65.4.87.32.14-.88.36-.97.47-.06.69-.15.5-.02.71-.11.41-.23.62-.33.31-.44.52-.54.4-.23.6-.34.75.08.96-.02c.13.38.12.45.14.85s-.04.41-.02.81-.39.43-.37.83.46.38.47.79c0,.08-.42.09-.42.17,0,.29,0,.18-.46.46-.19.12-.29.4-.49.52s-.41.21-.62.32-.52,0-.72.11-.42.18-.63.29-.14.74-.35.84-.7-.38-.91-.28-.3.43-.51.53-.43.16-.64.27-.33.39-.54.49-.23.52-.44.62c-.28.16-.7-.07-.8-.18ZM118.31,85.34c-.21.29-.85-.3-1.12-.06s0,.56-.27.79-.47.01-.74.25-.37.13-.64.37.15.82-.16,1c-.13.07-.41.14-.54.08-.15-.2-.07-.77-.23-.96s-.34-.38-.51-.56-.32-.4-.49-.57-.37-.35-.55-.52-.61-.06-.8-.22.11-.64-.09-.79c-.06-.13-.73-.23-.64-.34.26-.31.45-.2.77-.44s.43-.1.75-.34.29-.28.61-.52.17-.54.52-.73c.16-.09.39-.16.57-.14.21.12.47.51.66.65s.46.22.65.36.35.36.53.52.09.63.26.79.66.04.82.21c.17.18.03.65.18.83.22.23.55.26.46.38Z"/>
        </g>
        <ellipse class="cls-1" cx="99.82" cy="35.99" rx="33.85" ry="8.9"/>
      </g>
    </g>
  </g>
</svg>