<?xml version="1.0" encoding="UTF-8"?>
<svg id="_レイヤー_2" data-name="レイヤー 2" xmlns="http://www.w3.org/2000/svg" viewBox="0 0 180.47 60.9">
  <defs>
    <style>
      .cls-1 {
        fill: #a8ca64;
      }

      .cls-1, .cls-2 {
        stroke-width: 0px;
      }

      .cls-2, .cls-3 {
        fill: #4f82a9;
      }

      .cls-3 {
        stroke: #fff;
        stroke-miterlimit: 10;
        stroke-width: 8px;
      }
    </style>
  </defs>
  <g id="_レイヤー_2-2" data-name="レイヤー 2">
    <g>
      <g>
        <polygon class="cls-3" points="28.55 26.46 21.82 26.46 21.82 17.35 25.78 17.35 30.24 17.46 30.49 17.17 30.49 12.45 30.17 12.24 25.6 12.34 12.82 12.34 7.49 12.24 7.17 12.45 7.17 17.17 7.42 17.46 12.78 17.35 15.88 17.35 15.88 26.46 9 26.46 4.32 26.35 4 26.56 4 31.31 4.25 31.6 9.08 31.49 28.69 31.49 33.62 31.6 33.88 31.31 33.88 26.56 33.55 26.35 28.55 26.46"/>
        <path class="cls-3" d="M50.17,26.17l-.29.25v11.16c0,4.07-.22,6.23-1.94,8.82-1.44,2.16-4.16,4.51-9.02,6.02v.3s4.05,3,4.05,3c.36.25.54.4.72.4s.36-.07.68-.22c3.89-1.55,7.05-4.1,8.78-6.8,2.05-3.24,2.59-5.9,2.59-12.06v-10.58l-.29-.29h-5.29Z"/>
        <polygon class="cls-3" points="43.66 33.34 43.66 27.15 43.37 26.86 38.26 26.86 37.97 27.11 37.97 33.41 37.79 43.6 43.84 43.6 43.66 33.34"/>
        <path class="cls-3" d="M81.32,11.43l-3.6.18h-16.02l-6.08-.11-.32.22v4.72l.25.29,6.23-.11h14.29c-1.22,1.4-3.1,3.06-4.79,4.39.04-.54.04-1.3.04-1.87l-.25-.25h-5.54l-.25.29v1.08c0,8.13-1.69,12.53-8.89,16.67l4.79,2.45c.32.18.58.29.79.29s.4-.07.65-.25c6.19-4.57,8.24-9.68,8.6-17.42l3.31,2.23c.25.18.43.25.58.25.22,0,.4-.11.72-.4,2.95-2.63,6.12-5.87,7.92-8.06.22-.25.29-.47.29-.68,0-.18-.07-.32-.18-.5l-2.52-3.38Z"/>
        <path class="cls-3" d="M113.8,13.63c1.98,0,3.64-1.66,3.64-3.64s-1.66-3.67-3.64-3.67-3.67,1.66-3.67,3.67c0,.79.29,1.55.72,2.16h-18l-5.47-.11-.29.25v4.97l.32.22,5.51-.11h12.2c-.72,3.53-2.23,6.59-4.54,9.39-2.95,3.56-6.7,5.99-12.85,8.04v.26s4.14,3.33,4.14,3.33c.36.29.54.4.76.4.18,0,.36-.07.68-.22,5.47-2.41,9.54-5.15,12.38-8.78,3.78-4.75,5.79-10.37,6.33-16.59.54.25,1.12.43,1.76.43ZM113.8,8.34c.9,0,1.62.72,1.62,1.66s-.72,1.62-1.62,1.62-1.66-.72-1.66-1.62.76-1.66,1.66-1.66Z"/>
        <path class="cls-3" d="M128.3,35.63h-13.82l-4.93-.11-.32.22v4.72l.25.29,4.97-.11h12.06c-1.58,6.19-6.84,9.83-15.12,12.35v.27s3.92,3.26,3.92,3.26c.32.29.54.4.83.4.18,0,.43-.07.76-.18,10.01-3.46,15.44-9.5,16.7-20.91l-.25-.29-5.04.11Z"/>
        <polygon class="cls-3" points="112.42 28.07 112.42 32.71 112.68 33 117.07 32.89 125.38 32.89 130.24 33 130.49 32.71 130.49 28.1 130.21 27.85 125.24 27.96 117.1 27.96 112.75 27.85 112.42 28.07"/>
        <path class="cls-3" d="M136.74,33.41h6.23l-.18-11.3v-8.31c2.12-1.8,4.36-3.85,6.66-6.23l-.04-.43-4.5-3.13h-.43c-6.55,7.67-13.25,12.13-21.71,16.23l3.85,3.35c.36.29.58.43.79.43s.43-.11.76-.29c3.17-1.84,6.01-3.67,8.75-5.62v4.1l-.18,11.19Z"/>
        <path class="cls-3" d="M170.73,26.65h.36l1.98-1.4.04-.36c-1.08-1.44-2.34-2.7-3.67-3.82l-.36.04-1.87,1.33-.04.32c1.44,1.22,2.45,2.41,3.56,3.89Z"/>
        <path class="cls-3" d="M164.07,36.52c1.66-2.38,3.31-5.11,4.97-8.31.22-.4.32-.65.32-.86s-.14-.4-.4-.65l-2.2-2.16-3.67.18h-10.19l-5.4-.11-.32.22v4.9l.25.29,5.36-.11h8.57c-3.31,7.49-10.55,12.92-18.83,16.77l4.25,3.28c.22.14.36.25.58.25.18,0,.43-.07.79-.25,4.75-2.45,8.71-5.11,12.35-9.04,2.7,2.45,5.62,5.4,7.99,8.53l.4.04,4.25-3.96.04-.4c-2.99-3.38-5.69-5.76-9.11-8.6Z"/>
        <path class="cls-3" d="M172.78,18.81l-.36.04-1.84,1.33-.04.32c1.44,1.22,2.41,2.27,3.53,3.74h.36l1.87-1.37.04-.36c-1.08-1.44-2.23-2.59-3.56-3.71Z"/>
      </g>
      <g>
        <path class="cls-1" d="M9.13,31.21l-4.82.11-.25-.29v-4.75l.32-.22,4.68.11h6.88v-9.11h-3.1l-5.36.11-.25-.29v-4.72l.32-.22,5.33.11h12.78l4.57-.11.32.22v4.72l-.25.29-4.46-.11h-3.96v9.11h6.73l5-.11.32.22v4.75l-.25.29-4.93-.11H9.13Z"/>
        <path class="cls-1" d="M43.42,26.57l.29.29v6.19l.18,10.26h-6.05l.18-10.19v-6.3l.29-.25h5.11ZM55.51,25.89l.29.29v10.58c0,6.16-.54,8.82-2.59,12.06-1.73,2.7-4.9,5.26-8.78,6.8-.32.14-.5.22-.68.22s-.36-.14-.72-.4l-4.32-3.2c4.86-1.51,7.85-3.96,9.29-6.12,1.73-2.59,1.94-4.75,1.94-8.82v-11.16l.29-.25h5.29Z"/>
        <path class="cls-1" d="M65.57,18.59h5.54l.25.25c0,.58,0,1.33-.04,1.87,1.69-1.33,3.56-2.99,4.79-4.39h-14.29l-6.23.11-.25-.29v-4.72l.32-.22,6.08.11h16.02l3.6-.18,2.52,3.38c.11.18.18.32.18.5,0,.22-.07.43-.29.68-1.8,2.2-4.97,5.44-7.92,8.06-.32.29-.5.4-.72.4-.14,0-.32-.07-.58-.25l-3.31-2.23c-.36,7.74-2.41,12.85-8.6,17.42-.25.18-.43.25-.65.25s-.47-.11-.79-.29l-4.79-2.45c7.2-4.14,8.89-8.53,8.89-16.67v-1.08l.25-.29Z"/>
        <path class="cls-2" d="M87.43,11.76l5.47.11h18c-.43-.61-.72-1.37-.72-2.16,0-2.02,1.66-3.67,3.67-3.67s3.64,1.66,3.64,3.67-1.66,3.64-3.64,3.64c-.65,0-1.22-.18-1.76-.43-.54,6.23-2.56,11.84-6.33,16.59-2.84,3.64-6.91,6.37-12.38,8.78-.32.14-.5.22-.68.22-.22,0-.4-.11-.76-.4l-4.39-3.53c6.16-2.05,10.15-4.54,13.1-8.1,2.3-2.81,3.82-5.87,4.54-9.39h-12.2l-5.51.11-.32-.22v-4.97l.29-.25ZM112.19,9.71c0,.9.76,1.62,1.66,1.62s1.62-.72,1.62-1.62-.72-1.66-1.62-1.66-1.66.72-1.66,1.66Z"/>
        <path class="cls-2" d="M114.49,40.34l-4.97.11-.25-.29v-4.72l.32-.22,4.93.11h13.82l5.04-.11.25.29c-1.26,11.41-6.7,17.46-16.7,20.91-.32.11-.58.18-.76.18-.29,0-.5-.11-.83-.4l-4.07-3.38c8.28-2.52,13.68-6.3,15.26-12.49h-12.06ZM130.54,32.42l-.25.29-4.86-.11h-8.31l-4.39.11-.25-.29v-4.64l.32-.22,4.36.11h8.13l4.97-.11.29.25v4.61Z"/>
        <path class="cls-2" d="M136.79,33.12l.18-11.19v-4.1c-2.74,1.94-5.58,3.78-8.75,5.62-.32.18-.54.29-.76.29s-.43-.14-.79-.43l-3.85-3.35c8.46-4.1,15.15-8.57,21.71-16.23h.43l4.5,3.13.04.43c-2.3,2.38-4.54,4.43-6.66,6.23v8.31l.18,11.3h-6.23Z"/>
        <path class="cls-2" d="M173.19,45.23l-4.25,3.96-.4-.04c-2.38-3.13-5.29-6.08-7.99-8.53-3.64,3.92-7.59,6.59-12.35,9.04-.36.18-.61.25-.79.25-.22,0-.36-.11-.58-.25l-4.25-3.28c8.28-3.85,15.51-9.29,18.83-16.77h-8.57l-5.36.11-.25-.29v-4.9l.32-.22,5.4.11h10.19l3.67-.18,2.2,2.16c.25.25.4.43.4.65s-.11.47-.32.86c-1.66,3.2-3.31,5.94-4.97,8.31,3.42,2.84,6.12,5.22,9.11,8.6l-.04.4ZM167.25,22.15l1.87-1.33.36-.04c1.33,1.12,2.59,2.38,3.67,3.82l-.04.36-1.98,1.4h-.36c-1.12-1.48-2.12-2.66-3.56-3.89l.04-.32ZM170.63,19.88l1.84-1.33.36-.04c1.33,1.12,2.48,2.27,3.56,3.71l-.04.36-1.87,1.37h-.36c-1.12-1.48-2.09-2.52-3.53-3.74l.04-.32Z"/>
      </g>
    </g>
  </g>
</svg>