<svg width="400" height="300" viewBox="0 0 400 300" fill="none" xmlns="http://www.w3.org/2000/svg">
<rect x="45" y="123" width="280.505" height="70" rx="35" fill="#AED265"/>
<rect x="46" y="119" width="278.505" height="68" rx="34" stroke="black" stroke-width="2"/>
<path d="M156.12 150.44H164.04V152.62H156.12V150.44ZM155.46 156.54H157.72V166.78H155.46V156.54ZM155.98 148L158.36 148.46C157.66 151.32 156.38 153.96 154.8 155.62C154.38 155.2 153.4 154.44 152.84 154.12C154.36 152.7 155.44 150.42 155.98 148ZM160.3 155.4C160.86 159.46 162.06 163.06 164.66 164.74C164.12 165.18 163.38 166.12 163.04 166.74C160.12 164.6 158.92 160.62 158.24 155.68L160.3 155.4ZM162.9 156.34L164.58 157.84C163.48 158.9 162.06 160.06 161 160.78L159.6 159.42C160.62 158.66 162.08 157.34 162.9 156.34ZM145.82 151.06H154.12V153.28H145.82V151.06ZM148.92 155.24H152.18V157.42H148.92V155.24ZM148.84 148.02H151.14V151.78H148.84V148.02ZM151.4 155.24H153.56C153.56 155.24 153.56 155.9 153.56 156.18C153.46 162.68 153.36 165.08 152.86 165.82C152.48 166.38 152.1 166.56 151.56 166.66C151.06 166.76 150.28 166.76 149.48 166.74C149.44 166.1 149.22 165.2 148.9 164.6C149.52 164.68 150.04 164.7 150.36 164.7C150.62 164.7 150.78 164.62 150.94 164.4C151.22 163.92 151.32 161.84 151.4 155.68V155.24ZM147.86 152.48H149.96V156.42C149.96 159.7 149.62 163.62 147.14 166.86C146.74 166.38 145.96 165.78 145.36 165.4C147.58 162.48 147.86 159.08 147.86 156.4V152.48ZM161.82 152.82L163.56 154.08C161.54 155.72 157.86 157.4 155.04 158.26C154.72 157.64 154.14 156.78 153.62 156.26C156.46 155.68 160.06 154.22 161.82 152.82ZM173.94 151.02C176.4 151.36 180.4 151.26 182.54 151V153.58C180.1 153.82 176.46 153.82 173.96 153.58L173.94 151.02ZM175.54 159.56C175.38 160.24 175.3 160.72 175.3 161.24C175.3 162.14 176.08 162.68 178.12 162.68C179.9 162.68 181.38 162.52 183.12 162.14L183.18 164.84C181.88 165.1 180.26 165.24 178 165.24C174.56 165.24 172.9 164 172.9 161.96C172.9 161.16 173.02 160.38 173.26 159.36L175.54 159.56ZM170.86 149.68C170.72 150.1 170.46 151.12 170.38 151.48C170.1 152.8 169.4 156.8 169.4 158.8C169.4 159.2 169.42 159.7 169.48 160.1C169.78 159.42 170.1 158.74 170.4 158.06L171.64 159.04C171.06 160.72 170.4 162.88 170.2 163.94C170.14 164.24 170.08 164.68 170.08 164.88C170.1 165.1 170.1 165.44 170.12 165.72L167.82 165.86C167.42 164.5 167.04 162.06 167.04 159.34C167.04 156.32 167.64 152.96 167.86 151.4C167.94 150.86 168.04 150.1 168.06 149.46L170.86 149.68ZM188.18 163.28H201.86V165.64H188.18V163.28ZM193.62 148.22H196.12V164.72H193.62V148.22ZM187 158.28H189.44V166.8H187V158.28ZM200.58 158.28H203.08V166.78H200.58V158.28ZM187.8 149.9H190.2V154.88H199.74V149.9H202.28V157.2H187.8V149.9ZM209.4 149.78C209.96 149.84 210.64 149.88 211.2 149.88C212.28 149.88 216.54 149.78 217.68 149.68C218.52 149.62 218.98 149.54 219.22 149.46L220.5 151.26C220.04 151.56 219.56 151.84 219.12 152.18C218.04 152.94 215.94 154.7 214.66 155.7C215.34 155.52 215.94 155.48 216.56 155.48C219.96 155.48 222.54 157.6 222.54 160.5C222.54 163.66 220.14 166.16 215.3 166.16C212.52 166.16 210.42 164.9 210.42 162.88C210.42 161.26 211.9 159.78 214.02 159.78C216.76 159.78 218.28 161.62 218.34 163.82L216 164.12C215.96 162.68 215.2 161.68 214.02 161.68C213.28 161.68 212.78 162.14 212.78 162.66C212.78 163.4 213.6 163.9 214.82 163.9C218.2 163.9 219.92 162.62 219.92 160.48C219.92 158.66 218.12 157.44 215.78 157.44C212.7 157.44 210.72 159.08 208.58 161.5L206.76 159.62C208.18 158.5 210.6 156.46 211.76 155.48C212.88 154.56 214.98 152.88 215.96 152C214.94 152.04 212.18 152.14 211.1 152.22C210.56 152.26 209.94 152.3 209.48 152.38L209.4 149.78Z" fill="white"/>
<path d="M323 193L330.07 209.97L332.58 202.58L339.97 200.07L323 193Z" stroke="black" stroke-width="2" stroke-linecap="round" stroke-linejoin="round"/>
<path d="M333 203L339 209" stroke="black" stroke-width="2" stroke-linecap="round" stroke-linejoin="round"/>
<path d="M348.072 133.716L336.083 138.537L335.298 136.658L347.151 131.514L348.072 133.716ZM330.896 139.601C330.729 139.202 330.729 138.799 330.895 138.393C331.062 137.988 331.345 137.701 331.744 137.534C332.144 137.367 332.547 137.367 332.952 137.534C333.358 137.7 333.644 137.983 333.811 138.383C333.978 138.782 333.979 139.185 333.812 139.591C333.645 139.996 333.362 140.283 332.963 140.45C332.698 140.56 332.427 140.594 332.149 140.552C331.874 140.515 331.622 140.414 331.395 140.249C331.175 140.087 331.009 139.871 330.896 139.601Z" fill="black"/>
<path d="M330.794 127.759L332.953 126.379L333.175 126.737L341.386 128.585L342.737 130.763L334.024 128.772L333.932 128.623L330.794 127.759ZM325.599 128.709L340.875 119.234L341.967 120.995L326.69 130.47L325.599 128.709ZM330.114 135.989L333.007 127.998L335.008 128.492L331.502 138.227L330.114 135.989Z" fill="black"/>
<path d="M322.334 124.999C321.329 124.233 320.644 123.335 320.281 122.307C319.917 121.279 319.857 120.199 320.102 119.068C320.347 117.937 320.877 116.837 321.693 115.767C322.524 114.678 323.457 113.87 324.492 113.343C325.536 112.814 326.598 112.59 327.677 112.67C328.765 112.749 329.793 113.158 330.761 113.896C331.514 114.471 332.087 115.129 332.479 115.87C332.871 116.61 333.068 117.379 333.071 118.176C333.073 118.973 332.866 119.742 332.448 120.483L330.801 119.227C331.048 118.642 331.099 117.997 330.954 117.29C330.817 116.582 330.385 115.951 329.66 115.397C329.018 114.907 328.327 114.645 327.588 114.611C326.856 114.576 326.125 114.758 325.394 115.156C324.671 115.554 324.001 116.158 323.383 116.967C322.751 117.795 322.331 118.616 322.123 119.429C321.92 120.245 321.928 121.006 322.148 121.711C322.373 122.42 322.811 123.023 323.462 123.52C323.89 123.846 324.336 124.068 324.798 124.186C325.261 124.303 325.719 124.314 326.174 124.22C326.629 124.125 327.057 123.922 327.457 123.609L329.104 124.865C328.528 125.427 327.863 125.821 327.109 126.048C326.363 126.274 325.576 126.306 324.748 126.146C323.929 125.985 323.124 125.603 322.334 124.999Z" fill="black"/>
<path d="M313.594 119.002L320.904 107.673L322.645 108.797L315.335 120.125L313.594 119.002ZM323.008 106.356C322.668 106.138 322.45 105.833 322.354 105.443C322.262 105.057 322.321 104.701 322.53 104.377C322.739 104.052 323.039 103.852 323.429 103.777C323.824 103.704 324.191 103.777 324.531 103.996C324.87 104.215 325.085 104.518 325.177 104.905C325.274 105.294 325.218 105.651 325.008 105.976C324.799 106.3 324.497 106.499 324.102 106.571C323.712 106.647 323.347 106.575 323.008 106.356Z" fill="black"/>
<path d="M317.982 100.391L310.162 116.578L308.297 115.676L316.117 99.4902L317.982 100.391Z" fill="black"/>
<path d="M301.771 113.381C300.564 113.005 299.614 112.397 298.919 111.556C298.225 110.715 297.798 109.721 297.64 108.575C297.482 107.429 297.603 106.213 298.003 104.928C298.409 103.62 299.009 102.541 299.8 101.691C300.599 100.836 301.52 100.261 302.561 99.9664C303.61 99.6677 304.716 99.6991 305.878 100.061C306.783 100.342 307.547 100.764 308.169 101.325C308.791 101.886 309.24 102.541 309.516 103.288C309.792 104.036 309.861 104.83 309.722 105.669L307.744 105.054C307.776 104.42 307.602 103.796 307.224 103.182C306.852 102.564 306.23 102.119 305.359 101.848C304.588 101.608 303.849 101.599 303.143 101.82C302.444 102.038 301.819 102.46 301.269 103.085C300.727 103.707 300.304 104.504 300.001 105.476C299.692 106.471 299.579 107.386 299.663 108.22C299.752 109.057 300.02 109.769 300.469 110.356C300.923 110.944 301.542 111.36 302.324 111.604C302.838 111.764 303.332 111.819 303.807 111.771C304.282 111.723 304.716 111.576 305.111 111.331C305.506 111.086 305.838 110.748 306.107 110.317L308.085 110.932C307.737 111.658 307.247 112.256 306.616 112.728C305.993 113.196 305.265 113.496 304.433 113.63C303.608 113.759 302.721 113.676 301.771 113.381Z" fill="black"/>
</svg>
