<svg width="400" height="300" viewBox="0 0 400 300" fill="none" xmlns="http://www.w3.org/2000/svg">
<path fill-rule="evenodd" clip-rule="evenodd" d="M98.3848 129.455L95.9555 152.177L86.4909 155.226C86.1966 155.321 86.0803 155.422 86.0424 155.46C86.003 155.499 85.9732 155.545 85.9489 155.619C85.9211 155.704 85.9029 155.823 85.9072 155.965C85.9117 156.111 85.9382 156.223 85.9518 156.265L91.5064 173.508C91.6003 173.8 91.7021 173.915 91.7399 173.952C91.7793 173.991 91.8252 174.02 91.8999 174.044C91.9851 174.071 92.1044 174.088 92.2478 174.083C92.3949 174.078 92.5079 174.051 92.5504 174.037L125.794 163.328C125.807 163.324 125.816 163.323 125.845 163.291C125.888 163.243 125.962 163.136 126.037 162.939C126.18 162.562 126.229 162.108 126.225 161.805C125.162 155.781 122.964 143.037 122.58 139.631C122.523 139.125 122.397 138.917 122.356 138.859C122.321 138.811 122.296 138.793 122.247 138.773C122.178 138.745 122.05 138.716 121.86 138.72C121.67 138.723 121.495 138.76 121.386 138.795L105.319 143.97L104.737 141.316C103.994 137.927 103.358 135.27 102.724 133.23C102.075 131.142 101.502 129.953 101.001 129.319C100.612 128.827 100.421 128.83 100.222 128.837C99.879 128.849 99.3039 128.995 98.3848 129.455ZM109.014 137.589C108.495 135.34 107.999 133.391 107.488 131.749C106.802 129.54 106.016 127.628 104.931 126.254C103.734 124.739 102.113 123.822 100.071 123.895C98.2917 123.958 96.5012 124.775 94.7689 125.808L93.6965 126.447L91.3417 148.473L84.976 150.523C82.9356 151.181 81.7194 152.56 81.2096 154.113C80.7485 155.519 80.9132 156.896 81.2027 157.795L86.7573 175.038C87.4081 177.059 88.7914 178.257 90.3543 178.754C91.7684 179.204 93.1577 179.032 94.0653 178.74L127.309 168.031C129.242 167.408 130.235 165.889 130.702 164.654C131.163 163.438 131.249 162.189 131.195 161.353L131.187 161.218L131.163 161.084C130.095 155.034 127.9 142.295 127.534 139.053C127.258 136.609 125.99 134.932 124.145 134.189C122.54 133.543 120.889 133.764 119.871 134.092L109.014 137.589Z" fill="black"/>
<path fill-rule="evenodd" clip-rule="evenodd" d="M97.7954 174.213L91.1974 153.731L96.0168 152.178L102.615 172.661L97.7954 174.213Z" fill="black"/>
<path d="M148.73 151.816H167.313" stroke="black" stroke-width="5" stroke-linecap="round"/>
<path d="M148.111 170.709L162.346 182.655" stroke="black" stroke-width="5" stroke-linecap="round"/>
<path d="M148 132.747L162.236 120.801" stroke="black" stroke-width="5" stroke-linecap="round"/>
<path d="M200.984 150.385C206.712 148.913 211.384 146.833 214.968 144.625C218.232 142.609 221.88 139.409 223.96 136.881L227.416 140.145C224.504 143.089 220.6 146.097 216.824 148.369C213.208 150.513 208.024 152.913 202.968 154.417L200.984 150.385ZM214.296 146.705L218.84 145.617V160.049C218.84 161.457 218.904 163.441 219.128 164.241H214.04C214.168 163.473 214.296 161.457 214.296 160.049V146.705ZM232.984 150.385C238.712 148.913 243.384 146.833 246.968 144.625C250.232 142.609 253.88 139.409 255.96 136.881L259.416 140.145C256.504 143.089 252.6 146.097 248.824 148.369C245.208 150.513 240.024 152.913 234.968 154.417L232.984 150.385ZM246.296 146.705L250.84 145.617V160.049C250.84 161.457 250.904 163.441 251.128 164.241H246.04C246.168 163.473 246.296 161.457 246.296 160.049V146.705ZM292.472 162.257C289.752 159.025 286.648 156.689 283.512 156.689C282.168 156.689 280.984 157.265 280.984 158.321C280.984 159.601 282.168 160.081 283.544 160.081C286.712 160.081 287.672 155.953 287.672 150.577C287.672 147.185 286.136 144.881 283.64 144.881C280.248 144.881 276.024 148.881 273.368 152.145L273.4 147.377C275.992 144.849 280.312 141.233 284.376 141.233C288.92 141.233 291.608 145.041 291.608 150.865C291.608 158.385 289.944 163.665 283.832 163.665C280.248 163.665 277.496 162.097 277.496 158.481C277.496 155.633 279.96 153.489 283.832 153.489C287.8 153.489 291.224 155.345 294.584 158.961L292.472 162.257ZM272.088 145.905C270.648 146.065 267.608 146.481 265.496 146.769L265.08 142.673C265.976 142.705 266.712 142.673 267.864 142.641C269.88 142.513 273.976 141.905 275.416 141.425L276.696 143.089C276.152 143.825 275.16 145.393 274.616 146.225L272.76 152.241C271.352 154.289 268.504 158.577 266.808 160.913L264.312 157.393C266.328 154.897 270.168 149.809 271.768 147.313L271.832 146.481L272.088 145.905ZM271.704 139.729C271.704 138.833 271.736 137.873 271.576 136.881L276.216 137.009C275.672 139.569 274.616 147.953 274.616 153.681C274.616 156.273 274.616 158.993 274.808 161.969C274.84 162.545 274.968 163.729 275.032 164.433H270.648C270.712 163.761 270.744 162.577 270.744 162.065C270.776 158.961 270.808 156.817 270.904 152.817C271 149.969 271.704 141.009 271.704 139.729ZM309.336 154.577L308.504 143.633L308.344 138.865H313.624L313.464 143.633L312.632 154.577H309.336ZM311 163.121C309.336 163.121 308.152 161.937 308.152 160.273C308.152 158.609 309.368 157.457 311 157.457C312.6 157.457 313.816 158.609 313.816 160.273C313.816 161.937 312.6 163.121 311 163.121Z" fill="black"/>
</svg>
