<svg width="400" height="300" viewBox="0 0 400 300" fill="none" xmlns="http://www.w3.org/2000/svg">
<rect x="100" y="139" width="250" height="70" rx="35" fill="#AED265"/>
<rect x="101" y="135" width="248" height="68" rx="34" stroke="black" stroke-width="2"/>
<path d="M164.08 167.48C163.88 167.74 163.5 168.22 163.32 168.5C162.38 170.06 160.48 172.6 158.5 174L156.42 172.34C158.04 171.36 159.6 169.6 160.12 168.62C158.9 168.62 150.94 168.62 149.68 168.62C148.86 168.62 148.18 168.66 147.24 168.76V165.96C148.02 166.08 148.86 166.18 149.68 166.18C150.94 166.18 159.42 166.18 160.46 166.18C161.02 166.18 162.12 166.1 162.5 166L164.08 167.48ZM155.94 170.16C155.94 175.12 155.82 179.2 150.38 182.14L148.04 180.24C148.7 180.02 149.42 179.68 150.16 179.12C152.68 177.36 153.16 175.26 153.16 171.98C153.16 171.34 153.14 170.82 153.04 170.16H155.94ZM175.08 169.14C175.46 169.98 176.44 172.6 176.72 173.52L174.34 174.34C174.08 173.38 173.2 170.96 172.72 169.92L175.08 169.14ZM182.46 170.58C182.24 171.24 182.12 171.66 182 172.06C181.48 174.08 180.62 176.16 179.26 177.9C177.4 180.32 174.92 181.98 172.58 182.88L170.48 180.74C172.66 180.14 175.46 178.62 177.1 176.54C178.46 174.86 179.44 172.2 179.66 169.68L182.46 170.58ZM170.44 170.18C170.94 171.2 171.92 173.64 172.3 174.76L169.86 175.66C169.54 174.6 168.52 171.92 168.04 171.06L170.44 170.18ZM201.06 166.34C201.06 166.98 201.58 167.5 202.22 167.5C202.86 167.5 203.38 166.98 203.38 166.34C203.38 165.7 202.86 165.18 202.22 165.18C201.58 165.18 201.06 165.7 201.06 166.34ZM199.82 166.34C199.82 165.02 200.9 163.94 202.22 163.94C203.54 163.94 204.62 165.02 204.62 166.34C204.62 167.66 203.54 168.74 202.22 168.74C200.9 168.74 199.82 167.66 199.82 166.34ZM202.26 167.92C202.06 168.3 201.92 168.88 201.82 169.3C201.36 171.26 200.48 174.38 198.8 176.6C197 179 194.34 180.98 190.76 182.12L188.58 179.72C192.56 178.8 194.82 177.06 196.42 175.04C197.76 173.38 198.52 171.1 198.78 169.38C197.56 169.38 190.96 169.38 189.46 169.38C188.54 169.38 187.6 169.44 187.08 169.48V166.64C187.68 166.72 188.8 166.82 189.46 166.82C190.96 166.82 197.6 166.82 198.72 166.82C199.12 166.82 199.76 166.8 200.28 166.66L202.26 167.92ZM207.52 166.82C208.32 166.84 209.08 166.86 209.62 166.86C211.08 166.86 219.2 166.86 220.64 166.86C221.14 166.86 221.88 166.86 222.62 166.84C222.58 167.44 222.58 168.16 222.58 168.78C222.58 170 222.58 177.36 222.58 178.58C222.58 179.36 222.6 181.28 222.62 181.36H219.84C219.84 181.28 219.9 179.72 219.9 178.62C219.9 177.46 219.9 169.42 219.9 169.42H210.22C210.22 169.42 210.22 177.44 210.22 178.62C210.22 179.58 210.24 181.26 210.24 181.36H207.5C207.5 181.26 207.54 179.5 207.54 178.54C207.54 177.34 207.54 169.94 207.54 168.78C207.54 168.2 207.54 167.4 207.52 166.82ZM220.88 177.72V180.26H208.86V177.72H220.88ZM226.82 171.74C227.56 171.8 229 171.88 230.04 171.88C232.4 171.88 239 171.88 240.78 171.88C241.72 171.88 242.6 171.78 243.14 171.74V174.9C242.66 174.88 241.64 174.78 240.8 174.78C238.98 174.78 232.4 174.78 230.04 174.78C228.92 174.78 227.58 174.84 226.82 174.9V171.74ZM258.62 166.12C259.18 166.96 260 168.24 260.44 169.16L258.72 169.92C258.12 168.66 257.68 167.86 256.94 166.84L258.62 166.12ZM261.24 165.04C261.84 165.84 262.68 167.08 263.12 167.98L261.44 168.82C260.8 167.54 260.32 166.8 259.58 165.82L261.24 165.04ZM250.66 179.38C250.66 177.86 250.66 169.58 250.66 167.88C250.66 167.16 250.58 166.18 250.44 165.48H253.58C253.5 166.18 253.4 167.06 253.4 167.88C253.4 170.1 253.4 177.9 253.4 179.38C253.4 179.96 253.5 181.36 253.58 182.16H250.46C250.58 181.38 250.66 180.18 250.66 179.38ZM252.8 170.64C255.48 171.38 259.78 172.96 261.76 173.94L260.62 176.7C258.36 175.52 254.98 174.24 252.8 173.52V170.64ZM278.06 164.88C278 165.22 277.94 166.28 277.92 166.6C277.86 167.92 277.9 172 277.92 173.6L275.42 172.76C275.42 171.52 275.42 167.68 275.34 166.62C275.28 165.82 275.2 165.14 275.16 164.88H278.06ZM266.74 167.38C269.72 167.38 275 167.22 277.5 167.22C279.54 167.22 282.58 167.2 283.7 167.22L283.66 169.58C282.42 169.52 280.38 169.46 277.44 169.46C273.8 169.46 269.82 169.62 266.8 169.78L266.74 167.38ZM277.58 173.3C277.58 176.56 276.38 178.18 274.08 178.18C272.54 178.18 270.62 176.96 270.62 174.52C270.62 172.26 272.46 170.78 274.62 170.78C277.26 170.78 278.64 172.72 278.64 175.2C278.64 177.82 277.1 181.12 272.22 182.5L270.1 180.38C273.5 179.64 276.16 178.3 276.16 174.8C276.16 173.5 275.46 172.88 274.58 172.88C273.8 172.88 273.02 173.42 273.02 174.48C273.02 175.38 273.76 175.96 274.58 175.96C275.52 175.96 276.34 175.16 275.7 172.78L277.58 173.3ZM289.4 165.78C289.96 165.84 290.64 165.88 291.2 165.88C292.28 165.88 296.54 165.78 297.68 165.68C298.52 165.62 298.98 165.54 299.22 165.46L300.5 167.26C300.04 167.56 299.56 167.84 299.12 168.18C298.04 168.94 295.94 170.7 294.66 171.7C295.34 171.52 295.94 171.48 296.56 171.48C299.96 171.48 302.54 173.6 302.54 176.5C302.54 179.66 300.14 182.16 295.3 182.16C292.52 182.16 290.42 180.9 290.42 178.88C290.42 177.26 291.9 175.78 294.02 175.78C296.76 175.78 298.28 177.62 298.34 179.82L296 180.12C295.96 178.68 295.2 177.68 294.02 177.68C293.28 177.68 292.78 178.14 292.78 178.66C292.78 179.4 293.6 179.9 294.82 179.9C298.2 179.9 299.92 178.62 299.92 176.48C299.92 174.66 298.12 173.44 295.78 173.44C292.7 173.44 290.72 175.08 288.58 177.5L286.76 175.62C288.18 174.5 290.6 172.46 291.76 171.48C292.88 170.56 294.98 168.88 295.96 168C294.94 168.04 292.18 168.14 291.1 168.22C290.56 168.26 289.94 168.3 289.48 168.38L289.4 165.78Z" fill="white"/>
<path fill-rule="evenodd" clip-rule="evenodd" d="M73.536 111.353C74.3496 110.539 75.6685 110.539 76.4821 111.353L84.8147 119.685C85.6282 120.499 85.6282 121.818 84.8147 122.631C84.0012 123.445 82.6822 123.445 81.8687 122.631L75.009 115.772L68.1494 122.631C67.3359 123.445 66.0169 123.445 65.2034 122.631C64.3899 121.818 64.3899 120.499 65.2034 119.685L73.536 111.353Z" fill="black"/>
<path fill-rule="evenodd" clip-rule="evenodd" d="M75.0091 110.743C76.1596 110.743 77.0922 111.675 77.0922 112.826V131.574C77.0922 132.725 76.1596 133.657 75.0091 133.657C73.8586 133.657 72.9259 132.725 72.9259 131.574V112.826C72.9259 111.675 73.8586 110.743 75.0091 110.743Z" fill="black"/>
<path fill-rule="evenodd" clip-rule="evenodd" d="M68.0581 92.0127C70.8901 91.9084 73.709 92.4474 76.3027 93.5893C78.8964 94.7312 81.1975 96.4462 83.033 98.6054C84.5151 100.349 85.6624 102.345 86.4228 104.494H87.5079C90.2849 104.496 92.9835 105.422 95.1753 107.127C97.3672 108.832 98.9288 111.219 99.6138 113.91C100.299 116.601 100.068 119.443 98.958 121.989C97.848 124.534 95.9219 126.638 93.4838 127.967C92.4737 128.518 91.2084 128.145 90.6577 127.135C90.107 126.125 90.4794 124.86 91.4895 124.309C93.115 123.423 94.399 122.02 95.139 120.324C95.879 118.627 96.0329 116.732 95.5762 114.937C95.1196 113.143 94.0785 111.552 92.6172 110.416C91.156 109.279 89.3578 108.661 87.5066 108.66H84.8832C83.9335 108.66 83.104 108.018 82.8663 107.098C82.3146 104.964 81.2863 102.983 79.8587 101.304C78.431 99.6244 76.6413 98.2905 74.624 97.4024C72.6066 96.5143 70.4142 96.095 68.2115 96.1762C66.0088 96.2574 63.8532 96.8368 61.9067 97.871C59.9602 98.9051 58.2734 100.367 56.9733 102.147C55.6731 103.927 54.7934 105.978 54.4002 108.147C54.007 110.316 54.1106 112.546 54.7032 114.669C55.2958 116.792 56.362 118.753 57.8216 120.405C58.5834 121.267 58.5021 122.583 57.64 123.345C56.7779 124.107 55.4614 124.026 54.6996 123.163C52.823 121.04 51.4522 118.519 50.6903 115.789C49.9284 113.059 49.7952 110.193 50.3007 107.404C50.8062 104.616 51.9373 101.978 53.609 99.6895C55.2806 97.4011 57.4493 95.5214 59.9519 94.1917C62.4546 92.8621 65.2261 92.1171 68.0581 92.0127Z" fill="black"/>
<path fill-rule="evenodd" clip-rule="evenodd" d="M73.536 111.353C74.3496 110.539 75.6685 110.539 76.4821 111.353L84.8147 119.685C85.6282 120.499 85.6282 121.818 84.8147 122.631C84.0012 123.445 82.6822 123.445 81.8687 122.631L75.009 115.772L68.1494 122.631C67.3359 123.445 66.0169 123.445 65.2034 122.631C64.3899 121.818 64.3899 120.499 65.2034 119.685L73.536 111.353Z" fill="black"/>
</svg>
